%TF.GenerationSoftware,Altium Limited,Altium Designer,25.7.1 (20)*%
G04 Layer_Color=65535*
%FSLAX45Y45*%
%MOMM*%
%TF.SameCoordinates,6DC23F8A-9C4A-45C2-95F2-439E2FAEE1B8*%
%TF.FilePolarity,Positive*%
%TF.FileFunction,Legend,Top*%
%TF.Part,Single*%
G01*
G75*
%TA.AperFunction,NonConductor*%
%ADD44C,0.17780*%
%ADD45C,0.25400*%
%ADD46C,0.20000*%
D44*
X16974551Y4169388D02*
G03*
X16668027Y4168287I-154208J262912D01*
G01*
X16995602Y4544060D02*
Y4620260D01*
X16962582Y4582160D02*
X17033702D01*
X16670482Y4168140D02*
X16972742D01*
D45*
X15056592Y7429492D02*
G03*
X15056592Y7429492I-350000J0D01*
G01*
X15377428Y6828788D02*
Y7020827D01*
X14035773Y6828788D02*
Y7020827D01*
Y6828788D02*
X15377428D01*
X14035773Y7838174D02*
Y8030208D01*
X15377428Y7838174D02*
Y8030208D01*
X14035773D02*
X15377428D01*
X14079187Y8244799D02*
X14053795Y8270191D01*
X14003012D01*
X13977620Y8244799D01*
Y8219407D01*
X14003012Y8194015D01*
X14053795D01*
X14079187Y8168623D01*
Y8143232D01*
X14053795Y8117840D01*
X14003012D01*
X13977620Y8143232D01*
X14129971Y8270191D02*
Y8117840D01*
X14180754Y8168623D01*
X14231538Y8117840D01*
Y8270191D01*
X14282321Y8117840D02*
X14333105D01*
X14307713D01*
Y8270191D01*
X14282321Y8244799D01*
X15836990Y4635475D02*
Y4483125D01*
X15938557D01*
X16090907Y4635475D02*
X15989342D01*
Y4483125D01*
X16090907D01*
X15989342Y4559300D02*
X16040125D01*
X16141692Y4635475D02*
Y4483125D01*
X16217867D01*
X16243259Y4508517D01*
Y4610083D01*
X16217867Y4635475D01*
X16141692D01*
X16395610Y4483125D02*
X16294043D01*
X16395610Y4584692D01*
Y4610083D01*
X16370218Y4635475D01*
X16319434D01*
X16294043Y4610083D01*
X15697166Y8580079D02*
X15671774Y8605471D01*
X15620992D01*
X15595599Y8580079D01*
Y8478512D01*
X15620992Y8453120D01*
X15671774D01*
X15697166Y8478512D01*
X15747951Y8453120D02*
X15798734D01*
X15773343D01*
Y8605471D01*
X15747951Y8580079D01*
X15874910Y8453120D02*
X15925693D01*
X15900301D01*
Y8605471D01*
X15874910Y8580079D01*
X15151129Y5181583D02*
X15125737Y5206975D01*
X15074954D01*
X15049562Y5181583D01*
Y5080017D01*
X15074954Y5054625D01*
X15125737D01*
X15151129Y5080017D01*
X15201912Y5054625D02*
X15252696D01*
X15227304D01*
Y5206975D01*
X15201912Y5181583D01*
X15328871D02*
X15354263Y5206975D01*
X15405048D01*
X15430440Y5181583D01*
Y5080017D01*
X15405048Y5054625D01*
X15354263D01*
X15328871Y5080017D01*
Y5181583D01*
X14630408Y6743683D02*
X14605017Y6769075D01*
X14554233D01*
X14528841Y6743683D01*
Y6642117D01*
X14554233Y6616725D01*
X14605017D01*
X14630408Y6642117D01*
X14681192D02*
X14706584Y6616725D01*
X14757367D01*
X14782759Y6642117D01*
Y6743683D01*
X14757367Y6769075D01*
X14706584D01*
X14681192Y6743683D01*
Y6718292D01*
X14706584Y6692900D01*
X14782759D01*
D46*
X15036800Y5753100D02*
X15590520D01*
X15036800D02*
Y6743700D01*
X15590520Y5753100D02*
Y6743700D01*
X15036800D02*
X15590520D01*
X16560800Y4864100D02*
Y5417820D01*
X15570200Y4864100D02*
X16560800D01*
X15570200Y5417820D02*
X16560800D01*
X15570200Y4864100D02*
Y5417820D01*
X17081500Y7810500D02*
Y8364220D01*
X15582899Y7810500D02*
Y8364220D01*
X17081500D01*
X15582899Y7810500D02*
X17081500D01*
%TF.MD5,4bcd3e81c5ae64245416578ce790e558*%
M02*
