%TF.GenerationSoftware,Altium Limited,Altium Designer,25.7.1 (20)*%
G04 Layer_Color=0*
%FSLAX45Y45*%
%MOMM*%
%TF.SameCoordinates,6DC23F8A-9C4A-45C2-95F2-439E2FAEE1B8*%
%TF.FilePolarity,Positive*%
%TF.FileFunction,Plated,1,2,PTH,Drill*%
%TF.Part,Single*%
G01*
G75*
%TA.AperFunction,ComponentDrill*%
%ADD88C,0.81280*%
%ADD89C,0.90000*%
%ADD90C,0.90000*%
%ADD91O,1.20000X0.50000*%
%ADD92C,0.20000*%
%ADD93C,1.20000*%
%TA.AperFunction,ViaDrill,NotFilled*%
%ADD94C,0.30000*%
D88*
X16820341Y4572000D02*
D03*
Y4305300D02*
D03*
D89*
X15316200Y6375400D02*
D03*
Y6121400D02*
D03*
Y6629400D02*
D03*
Y5867400D02*
D03*
D90*
X16192500Y5143500D02*
D03*
X16446500D02*
D03*
X15684500D02*
D03*
X15938499D02*
D03*
X15951199Y8089900D02*
D03*
X15697200D02*
D03*
X16205200D02*
D03*
X16459200D02*
D03*
X16713200D02*
D03*
X16967200D02*
D03*
D91*
X17627600Y9880798D02*
D03*
Y10540802D02*
D03*
D92*
X16719499Y6495049D02*
D03*
Y6311549D02*
D03*
X16811249Y6586799D02*
D03*
Y6403299D02*
D03*
Y6219800D02*
D03*
X16902998Y6495049D02*
D03*
Y6311549D02*
D03*
X16994749Y6586799D02*
D03*
Y6403299D02*
D03*
Y6219800D02*
D03*
X17086499Y6495049D02*
D03*
Y6311549D02*
D03*
D93*
X14081599Y7179501D02*
D03*
X15331599D02*
D03*
Y7679500D02*
D03*
X14081599D02*
D03*
D94*
X17283501Y8250000D02*
D03*
X17145000Y7594600D02*
D03*
X16586200Y9817100D02*
D03*
X17000002Y9742100D02*
D03*
X17420782Y9545783D02*
D03*
X17125002Y9500000D02*
D03*
X17261034Y9261033D02*
D03*
X17448599Y8000000D02*
D03*
Y8457116D02*
D03*
Y9000000D02*
D03*
X17500002Y7750000D02*
D03*
Y8250000D02*
D03*
Y8750000D02*
D03*
X17250002Y8761800D02*
D03*
X17125002Y9000000D02*
D03*
X17057269Y8500000D02*
D03*
X17000002Y8250000D02*
D03*
Y8761800D02*
D03*
X16878300Y8686800D02*
D03*
X17628523Y7996477D02*
D03*
X17625002Y8500000D02*
D03*
Y12000000D02*
D03*
X17500002Y11750000D02*
D03*
X17625002Y11500000D02*
D03*
X17500002Y11250000D02*
D03*
Y10750000D02*
D03*
Y9750000D02*
D03*
X17625002Y9500000D02*
D03*
X17500002Y9250000D02*
D03*
X17625002Y9000000D02*
D03*
X17500002Y6750000D02*
D03*
Y6250000D02*
D03*
Y5250000D02*
D03*
Y4250000D02*
D03*
X17375002Y12000000D02*
D03*
X17250002Y11750000D02*
D03*
X17375002Y11500000D02*
D03*
Y11000000D02*
D03*
X17250002Y9750000D02*
D03*
X17375002Y7000000D02*
D03*
X17250002Y6750000D02*
D03*
X17375002Y6500000D02*
D03*
X17250002Y6250000D02*
D03*
X17375002Y6000000D02*
D03*
X17250002Y4250000D02*
D03*
X17125002Y12000000D02*
D03*
X17000002Y10750000D02*
D03*
X17125002Y10000000D02*
D03*
Y7000000D02*
D03*
X17000002Y6750000D02*
D03*
X17125002Y6000000D02*
D03*
X17000002Y5250000D02*
D03*
X17125002Y5000000D02*
D03*
X17000002Y4750000D02*
D03*
X17125002Y4500000D02*
D03*
X17000002Y4250000D02*
D03*
X16875002Y12000000D02*
D03*
X16750002Y11250000D02*
D03*
X16875002Y7000000D02*
D03*
X16750002Y6750000D02*
D03*
X16875002Y6000000D02*
D03*
X16625002Y11000000D02*
D03*
X16500002Y9750000D02*
D03*
Y9250000D02*
D03*
Y8750000D02*
D03*
Y8250000D02*
D03*
X16625002Y7000000D02*
D03*
X16500002Y6750000D02*
D03*
Y6250000D02*
D03*
X16625002Y6000000D02*
D03*
Y5000000D02*
D03*
X16500002Y4750000D02*
D03*
X16625002Y4500000D02*
D03*
X16500002Y4250000D02*
D03*
X16250002Y10250000D02*
D03*
Y9750000D02*
D03*
Y9250000D02*
D03*
X16375002Y9000000D02*
D03*
X16250002Y8750000D02*
D03*
X16375002Y8500000D02*
D03*
X16250002Y8250000D02*
D03*
Y7750000D02*
D03*
X16375002Y7000000D02*
D03*
X16250002Y6750000D02*
D03*
X16375002Y6500000D02*
D03*
X16250002Y6250000D02*
D03*
X16375002Y6000000D02*
D03*
Y5000000D02*
D03*
X16250002Y4750000D02*
D03*
X16375002Y4500000D02*
D03*
X16250002Y4250000D02*
D03*
X16000002Y11750000D02*
D03*
Y10750000D02*
D03*
Y10250000D02*
D03*
Y9750000D02*
D03*
Y9250000D02*
D03*
X16125002Y9000000D02*
D03*
X16000002Y8750000D02*
D03*
X16125002Y8500000D02*
D03*
X16000002Y8250000D02*
D03*
X16125002Y7000000D02*
D03*
Y6500000D02*
D03*
Y6000000D02*
D03*
Y5000000D02*
D03*
X16000002Y4750000D02*
D03*
X16125002Y4500000D02*
D03*
X16000002Y4250000D02*
D03*
X15750002Y11250000D02*
D03*
Y10750000D02*
D03*
X15875002Y10500000D02*
D03*
X15750002Y10250000D02*
D03*
X15875002Y10000000D02*
D03*
X15750002Y9750000D02*
D03*
X15875002Y9000000D02*
D03*
X15750002Y8750000D02*
D03*
X15875002Y8500000D02*
D03*
X15750002Y8250000D02*
D03*
X15875002Y7500000D02*
D03*
Y5500000D02*
D03*
Y5000000D02*
D03*
X15750002Y4750000D02*
D03*
X15875002Y4500000D02*
D03*
X15750002Y4250000D02*
D03*
X15625002Y12000000D02*
D03*
X15500000Y11750000D02*
D03*
Y10750000D02*
D03*
X15625002Y10500000D02*
D03*
X15500000Y9750000D02*
D03*
Y9250000D02*
D03*
X15625002Y9000000D02*
D03*
Y8500000D02*
D03*
X15500000Y7250000D02*
D03*
Y6750000D02*
D03*
Y6250000D02*
D03*
Y5750000D02*
D03*
Y5250000D02*
D03*
X15625002Y5000000D02*
D03*
X15500000Y4750000D02*
D03*
X15625002Y4500000D02*
D03*
X15500000Y4250000D02*
D03*
X15375000Y12000000D02*
D03*
X15250000Y11750000D02*
D03*
X15375000Y11500000D02*
D03*
Y11000000D02*
D03*
X15250000Y10750000D02*
D03*
X15375000Y10500000D02*
D03*
Y10000000D02*
D03*
X15250000Y9750000D02*
D03*
Y8250000D02*
D03*
X15375000Y8000000D02*
D03*
Y7500000D02*
D03*
Y7000000D02*
D03*
X15250000Y6250000D02*
D03*
Y5750000D02*
D03*
X15375000Y5500000D02*
D03*
X15250000Y5250000D02*
D03*
X15375000Y5000000D02*
D03*
X15250000Y4750000D02*
D03*
X15375000Y4500000D02*
D03*
X15250000Y4250000D02*
D03*
X15125000Y12000000D02*
D03*
X15000000Y11750000D02*
D03*
X15125000Y11500000D02*
D03*
Y11000000D02*
D03*
X15000000Y10750000D02*
D03*
X15125000Y10500000D02*
D03*
X15000000Y9750000D02*
D03*
X15125000Y8000000D02*
D03*
Y7500000D02*
D03*
Y7000000D02*
D03*
X15000000Y6750000D02*
D03*
X15125000Y6500000D02*
D03*
X15000000Y6250000D02*
D03*
X15125000Y6000000D02*
D03*
X15000000Y5750000D02*
D03*
X15125000Y5500000D02*
D03*
X15000000Y5250000D02*
D03*
X15125000Y5000000D02*
D03*
X15000000Y4750000D02*
D03*
X15125000Y4500000D02*
D03*
X15000000Y4250000D02*
D03*
X14875000Y12000000D02*
D03*
X14750000Y11750000D02*
D03*
X14875000Y11500000D02*
D03*
X14750000Y10750000D02*
D03*
X14875000Y10500000D02*
D03*
Y10000000D02*
D03*
X14750000Y9750000D02*
D03*
X14875000Y9500000D02*
D03*
X14750000Y9250000D02*
D03*
X14875000Y9000000D02*
D03*
X14750000Y8750000D02*
D03*
Y8250000D02*
D03*
X14875000Y8000000D02*
D03*
Y7500000D02*
D03*
Y7000000D02*
D03*
X14750000Y6750000D02*
D03*
X14875000Y6500000D02*
D03*
X14750000Y6250000D02*
D03*
X14875000Y6000000D02*
D03*
X14750000Y5750000D02*
D03*
X14875000Y5500000D02*
D03*
X14750000Y5250000D02*
D03*
X14875000Y5000000D02*
D03*
X14750000Y4750000D02*
D03*
X14875000Y4500000D02*
D03*
X14750000Y4250000D02*
D03*
X14625000Y12000000D02*
D03*
X14500000Y11750000D02*
D03*
X14625000Y11500000D02*
D03*
Y11000000D02*
D03*
X14500000Y10750000D02*
D03*
X14625000Y10500000D02*
D03*
X14500000Y10250000D02*
D03*
Y8250000D02*
D03*
X14625000Y8000000D02*
D03*
Y7500000D02*
D03*
Y7000000D02*
D03*
X14500000Y6750000D02*
D03*
X14625000Y6500000D02*
D03*
X14500000Y6250000D02*
D03*
X14625000Y6000000D02*
D03*
X14500000Y5750000D02*
D03*
X14625000Y5500000D02*
D03*
X14500000Y5250000D02*
D03*
X14625000Y5000000D02*
D03*
X14500000Y4750000D02*
D03*
X14625000Y4500000D02*
D03*
X14500000Y4250000D02*
D03*
X14375000Y12000000D02*
D03*
X14250000Y11750000D02*
D03*
X14375000Y11500000D02*
D03*
Y11000000D02*
D03*
X14250000Y10750000D02*
D03*
X14375000Y10500000D02*
D03*
X14250000Y10250000D02*
D03*
X14375000Y10000000D02*
D03*
X14250000Y9750000D02*
D03*
X14375000Y9500000D02*
D03*
X14250000Y8750000D02*
D03*
X14375000Y8500000D02*
D03*
X14250000Y8250000D02*
D03*
X14375000Y8000000D02*
D03*
Y7500000D02*
D03*
Y7000000D02*
D03*
X14250000Y6750000D02*
D03*
X14375000Y6500000D02*
D03*
X14250000Y6250000D02*
D03*
X14375000Y6000000D02*
D03*
X14250000Y5750000D02*
D03*
X14375000Y5500000D02*
D03*
X14250000Y5250000D02*
D03*
X14375000Y5000000D02*
D03*
X14250000Y4750000D02*
D03*
X14375000Y4500000D02*
D03*
X14250000Y4250000D02*
D03*
X14125000Y12000000D02*
D03*
X14000000Y11750000D02*
D03*
X14125000Y11500000D02*
D03*
Y11000000D02*
D03*
X14000000Y10750000D02*
D03*
X14125000Y10500000D02*
D03*
X14000000Y10250000D02*
D03*
X14125000Y10000000D02*
D03*
X14000000Y9750000D02*
D03*
X14125000Y9500000D02*
D03*
X14000000Y9250000D02*
D03*
X14125000Y9000000D02*
D03*
X14000000Y8750000D02*
D03*
X14125000Y8500000D02*
D03*
X14000000Y8250000D02*
D03*
X14125000Y8000000D02*
D03*
Y7500000D02*
D03*
Y7000000D02*
D03*
X14000000Y6750000D02*
D03*
X14125000Y6500000D02*
D03*
X14000000Y6250000D02*
D03*
X14125000Y6000000D02*
D03*
Y5500000D02*
D03*
X14000000Y5250000D02*
D03*
X14125000Y5000000D02*
D03*
X14000000Y4750000D02*
D03*
X14125000Y4500000D02*
D03*
X14000000Y4250000D02*
D03*
X13875000Y12000000D02*
D03*
X13750000Y11750000D02*
D03*
X13875000Y11500000D02*
D03*
X13750000Y11250000D02*
D03*
Y10750000D02*
D03*
Y10250000D02*
D03*
Y9750000D02*
D03*
Y9250000D02*
D03*
Y8750000D02*
D03*
Y8250000D02*
D03*
Y7750000D02*
D03*
Y7250000D02*
D03*
Y6750000D02*
D03*
Y6250000D02*
D03*
Y5750000D02*
D03*
X13875000Y5500000D02*
D03*
X13750000Y5250000D02*
D03*
X13875000Y5000000D02*
D03*
X13750000Y4750000D02*
D03*
X13875000Y4500000D02*
D03*
X13750000Y4250000D02*
D03*
X17322800Y5270500D02*
D03*
X17183099Y11150600D02*
D03*
X15539720Y7409180D02*
D03*
X16093440Y11549380D02*
D03*
%TF.MD5,c6e161fda15a2eae5eb166cc4908a5c6*%
M02*
