%TF.GenerationSoftware,Altium Limited,Altium Designer,25.7.1 (20)*%
G04 Layer_Color=65535*
%FSLAX45Y45*%
%MOMM*%
%TF.SameCoordinates,81D67EAA-D314-4BFC-ACE0-956B7E053A61*%
%TF.FilePolarity,Positive*%
%TF.FileFunction,Legend,Top*%
%TF.Part,Single*%
G01*
G75*
%TA.AperFunction,NonConductor*%
%ADD44C,0.25400*%
%ADD45C,0.17780*%
%ADD46C,0.20000*%
%ADD47C,0.30000*%
D44*
X15056592Y7429492D02*
G03*
X15056592Y7429492I-350000J0D01*
G01*
X14035773Y8030208D02*
X15377428D01*
Y7838174D02*
Y8030208D01*
X14035773Y7838174D02*
Y8030208D01*
Y6828788D02*
X15377428D01*
X14035773D02*
Y7020827D01*
X15377428Y6828788D02*
Y7020827D01*
X15659186Y8458225D02*
Y8610575D01*
X15735362D01*
X15760754Y8585183D01*
Y8534400D01*
X15735362Y8509008D01*
X15659186D01*
X15709970D02*
X15760754Y8458225D01*
X15913104Y8610575D02*
X15811537D01*
Y8534400D01*
X15862321D01*
X15811537D01*
Y8458225D01*
X15963889Y8610575D02*
X16014671D01*
X15989281D01*
Y8458225D01*
X15963889D01*
X16014671D01*
X16090846Y8610575D02*
Y8458225D01*
X16167023D01*
X16192413Y8483617D01*
Y8585183D01*
X16167023Y8610575D01*
X16090846D01*
X15836990Y4635475D02*
Y4483125D01*
X15938557D01*
X16090907Y4635475D02*
X15989342D01*
Y4483125D01*
X16090907D01*
X15989342Y4559300D02*
X16040125D01*
X16141692Y4635475D02*
Y4483125D01*
X16217867D01*
X16243259Y4508517D01*
Y4610083D01*
X16217867Y4635475D01*
X16141692D01*
X16395610Y4483125D02*
X16294043D01*
X16395610Y4584692D01*
Y4610083D01*
X16370218Y4635475D01*
X16319434D01*
X16294043Y4610083D01*
X15036867Y5206975D02*
Y5054625D01*
X15138432D01*
X15290784Y5181583D02*
X15265392Y5206975D01*
X15214607D01*
X15189217Y5181583D01*
Y5080017D01*
X15214607Y5054625D01*
X15265392D01*
X15290784Y5080017D01*
X15341566Y5206975D02*
Y5054625D01*
X15417743D01*
X15443134Y5080017D01*
Y5181583D01*
X15417743Y5206975D01*
X15341566D01*
X14414558Y6388075D02*
X14312990D01*
Y6311900D01*
X14363774D01*
X14312990D01*
Y6235725D01*
X14465341Y6388075D02*
Y6235725D01*
X14541518Y6388075D02*
Y6235725D01*
X14719260Y6261117D02*
Y6362683D01*
X14693867Y6388075D01*
X14643085D01*
X14617693Y6362683D01*
Y6261117D01*
X14643085Y6235725D01*
X14693867D01*
X14668475Y6286508D02*
X14719260Y6235725D01*
X14693867D02*
X14719260Y6261117D01*
X14770042Y6235725D02*
Y6388075D01*
X14846217D01*
X14871609Y6362683D01*
Y6311900D01*
X14846217Y6286508D01*
X14770042D01*
X14820827D02*
X14871609Y6235725D01*
D45*
X16974551Y4169388D02*
G03*
X16668027Y4168287I-154208J262912D01*
G01*
X16995602Y4544060D02*
Y4620260D01*
X16962582Y4582160D02*
X17033702D01*
X16670482Y4168140D02*
X16972742D01*
D46*
X15582899Y7810500D02*
X17081500D01*
X15582899Y8364220D02*
X17081500D01*
X15582899Y7810500D02*
Y8364220D01*
X17081500Y7810500D02*
Y8364220D01*
X15036800Y5753100D02*
X15590520D01*
X15036800D02*
Y6743700D01*
X15590520Y5753100D02*
Y6743700D01*
X15036800D02*
X15590520D01*
X16560800Y4864100D02*
Y5417820D01*
X15570200Y4864100D02*
X16560800D01*
X15570200Y5417820D02*
X16560800D01*
X15570200Y4864100D02*
Y5417820D01*
D47*
X14071674Y8267675D02*
Y8115325D01*
X14122458Y8166108D01*
X14173241Y8115325D01*
Y8267675D01*
X14224025Y8115325D02*
X14274808D01*
X14249417D01*
Y8216892D01*
X14224025D01*
X14376376Y8115325D02*
Y8242283D01*
Y8191500D01*
X14350984D01*
X14401767D01*
X14376376D01*
Y8242283D01*
X14401767Y8267675D01*
X14477943Y8115325D02*
X14528726D01*
X14503334D01*
Y8216892D01*
X14477943D01*
%TF.MD5,1b437da872fe4eb646cb4f7aac46c83a*%
M02*
