%TF.GenerationSoftware,Altium Limited,Altium Designer,25.7.1 (20)*%
G04 Layer_Color=16711935*
%FSLAX45Y45*%
%MOMM*%
%TF.SameCoordinates,6DC23F8A-9C4A-45C2-95F2-439E2FAEE1B8*%
%TF.FilePolarity,Negative*%
%TF.FileFunction,Soldermask,Bot*%
%TF.Part,Single*%
G01*
G75*
%TA.AperFunction,ComponentPad*%
%ADD57R,2.74320X1.85420*%
%ADD58O,2.74320X1.85420*%
%ADD59C,1.70320*%
%ADD60R,1.70320X1.70320*%
%ADD61R,1.70320X1.70320*%
G04:AMPARAMS|DCode=62|XSize=2.2032mm|YSize=1.4032mm|CornerRadius=0.4616mm|HoleSize=0mm|Usage=FLASHONLY|Rotation=180.000|XOffset=0mm|YOffset=0mm|HoleType=Round|Shape=RoundedRectangle|*
%AMROUNDEDRECTD62*
21,1,2.20320,0.48000,0,0,180.0*
21,1,1.28000,1.40320,0,0,180.0*
1,1,0.92320,-0.64000,0.24000*
1,1,0.92320,0.64000,0.24000*
1,1,0.92320,0.64000,-0.24000*
1,1,0.92320,-0.64000,-0.24000*
%
%ADD62ROUNDEDRECTD62*%
%ADD63C,0.50320*%
%ADD64C,2.60320*%
%TA.AperFunction,SMDPad,CuDef*%
%ADD65R,2.20320X0.90320*%
%ADD66O,2.20320X0.90320*%
%ADD67R,1.85420X1.47320*%
%ADD68R,1.72720X1.85420*%
%ADD69R,1.40320X1.00320*%
%ADD70R,1.40320X1.05320*%
%ADD71R,1.47320X1.85420*%
%ADD72R,1.85420X1.72720*%
%ADD73O,0.90320X2.20320*%
%ADD74R,0.90320X2.20320*%
%ADD75R,3.50320X2.60320*%
%ADD76R,1.20320X2.60320*%
%ADD77R,1.55320X2.00320*%
%ADD78O,0.75320X2.20320*%
%ADD79R,1.45000X0.50000*%
%ADD80R,1.60320X1.80320*%
%ADD81R,2.10320X2.10320*%
%TA.AperFunction,BGAPad,CuDef*%
%ADD82R,1.53320X1.53320*%
%TA.AperFunction,ConnectorPad*%
%ADD83R,1.10320X2.20320*%
%ADD84R,2.20320X1.10320*%
D57*
X16820341Y4572000D02*
D03*
D58*
Y4305300D02*
D03*
D59*
X15316200Y6375400D02*
D03*
Y6121400D02*
D03*
Y5867400D02*
D03*
X16192500Y5143500D02*
D03*
X16446500D02*
D03*
X15938499D02*
D03*
X15951199Y8089900D02*
D03*
X16205200D02*
D03*
X16459200D02*
D03*
X16713200D02*
D03*
X16967200D02*
D03*
D60*
X15316200Y6629400D02*
D03*
D61*
X15684500Y5143500D02*
D03*
X15697200Y8089900D02*
D03*
D62*
X17627600Y9880798D02*
D03*
Y10540802D02*
D03*
D63*
X16719499Y6495049D02*
D03*
Y6311549D02*
D03*
X16811249Y6586799D02*
D03*
Y6403299D02*
D03*
Y6219800D02*
D03*
X16902998Y6495049D02*
D03*
Y6311549D02*
D03*
X16994749Y6586799D02*
D03*
Y6403299D02*
D03*
Y6219800D02*
D03*
X17086499Y6495049D02*
D03*
Y6311549D02*
D03*
D64*
X14081599Y7179501D02*
D03*
X15331599D02*
D03*
Y7679500D02*
D03*
X14081599D02*
D03*
D65*
X14592300Y9626600D02*
D03*
D66*
X14236700D02*
D03*
D67*
X15659109Y11798295D02*
D03*
Y11468095D02*
D03*
X16903694Y10985505D02*
D03*
Y11315705D02*
D03*
X16865610Y9220195D02*
D03*
Y8889995D02*
D03*
X16802110Y5308595D02*
D03*
Y4978395D02*
D03*
X17322810Y4749795D02*
D03*
Y4419595D02*
D03*
D68*
X14592300Y9118600D02*
D03*
X14262100D02*
D03*
X17322800Y5054600D02*
D03*
X17653000D02*
D03*
X17185651Y10947400D02*
D03*
X17515849D02*
D03*
D69*
X14959106Y10985505D02*
D03*
X15659109D02*
D03*
D70*
X16581902Y10884413D02*
D03*
X16332439Y10789920D02*
D03*
X16331900Y10982452D02*
D03*
X16332443Y11708892D02*
D03*
X16581902Y11803380D02*
D03*
X16582446Y11610853D02*
D03*
D71*
X16581902Y11328390D02*
D03*
X16251701D02*
D03*
D72*
X16582446Y9563100D02*
D03*
Y9232900D02*
D03*
X17627600Y4775200D02*
D03*
Y4414520D02*
D03*
X15646400Y9563100D02*
D03*
Y9893300D02*
D03*
X15976601Y10988050D02*
D03*
Y11318250D02*
D03*
D73*
X15163800Y9918700D02*
D03*
D74*
Y9563100D02*
D03*
D75*
Y9154602D02*
D03*
D76*
X14933798Y8574598D02*
D03*
X15163800D02*
D03*
X15393802D02*
D03*
D77*
X15597998Y10337800D02*
D03*
X15263002D02*
D03*
D78*
X16090900Y10528300D02*
D03*
X16217900D02*
D03*
X16344901D02*
D03*
X16471899D02*
D03*
X16598900D02*
D03*
X16725900D02*
D03*
X16852901D02*
D03*
X16090900Y9988301D02*
D03*
X16217900D02*
D03*
X16344901D02*
D03*
X16471899D02*
D03*
X16725900D02*
D03*
X16852901D02*
D03*
X16598900D02*
D03*
X16979900Y10528300D02*
D03*
Y9988301D02*
D03*
D79*
X17360101Y10145801D02*
D03*
Y10340802D02*
D03*
Y10275799D02*
D03*
Y10210800D02*
D03*
Y10080798D02*
D03*
D80*
X17382602Y9890801D02*
D03*
Y10530799D02*
D03*
D81*
X17627600Y10090800D02*
D03*
Y10330800D02*
D03*
D82*
X16719499Y6586799D02*
D03*
Y6403299D02*
D03*
Y6219800D02*
D03*
X16902998Y6586799D02*
D03*
Y6403299D02*
D03*
Y6219800D02*
D03*
X17086499Y6586799D02*
D03*
Y6403299D02*
D03*
Y6219800D02*
D03*
D83*
X17653000Y7353300D02*
D03*
Y5653298D02*
D03*
X17525999D02*
D03*
X17145000Y7353300D02*
D03*
X17399001Y5653298D02*
D03*
X17272000Y7353300D02*
D03*
X16002000D02*
D03*
X17525999D02*
D03*
X17399001D02*
D03*
X17017999D02*
D03*
X16891000D02*
D03*
X16764000D02*
D03*
X16637000D02*
D03*
X16510001D02*
D03*
X16383000D02*
D03*
X16256000D02*
D03*
X16128999D02*
D03*
X16002000Y5653298D02*
D03*
X16128999D02*
D03*
X16256000D02*
D03*
X16383000D02*
D03*
X16510001D02*
D03*
X16637000D02*
D03*
X16764000D02*
D03*
X16891000D02*
D03*
X17017999D02*
D03*
X17145000D02*
D03*
X17272000D02*
D03*
D84*
X15902000Y5931799D02*
D03*
Y7074799D02*
D03*
Y6947799D02*
D03*
Y6820799D02*
D03*
Y6693799D02*
D03*
Y6566799D02*
D03*
Y6439799D02*
D03*
Y6312799D02*
D03*
Y6185799D02*
D03*
Y6058799D02*
D03*
%TF.MD5,9423cf5c6917a56be7523ae7c2211be8*%
M02*
