%TF.GenerationSoftware,Altium Limited,Altium Designer,25.7.1 (20)*%
G04 Layer_Color=255*
%FSLAX45Y45*%
%MOMM*%
%TF.SameCoordinates,81D67EAA-D314-4BFC-ACE0-956B7E053A61*%
%TF.FilePolarity,Positive*%
%TF.FileFunction,Pads,Bot*%
%TF.Part,Single*%
G01*
G75*
%TA.AperFunction,ComponentPad*%
%ADD13C,1.50000*%
%ADD14R,1.50000X1.50000*%
%ADD15C,2.40000*%
%ADD16R,2.54000X1.65100*%
%ADD17O,2.54000X1.65100*%
%ADD18R,1.50000X1.50000*%
G04:AMPARAMS|DCode=19|XSize=2mm|YSize=1.2mm|CornerRadius=0.36mm|HoleSize=0mm|Usage=FLASHONLY|Rotation=180.000|XOffset=0mm|YOffset=0mm|HoleType=Round|Shape=RoundedRectangle|*
%AMROUNDEDRECTD19*
21,1,2.00000,0.48000,0,0,180.0*
21,1,1.28000,1.20000,0,0,180.0*
1,1,0.72000,-0.64000,0.24000*
1,1,0.72000,0.64000,0.24000*
1,1,0.72000,0.64000,-0.24000*
1,1,0.72000,-0.64000,-0.24000*
%
%ADD19ROUNDEDRECTD19*%
%ADD20C,0.30000*%
%TA.AperFunction,SMDPad,CuDef*%
%ADD22R,2.00000X0.70000*%
%ADD23O,2.00000X0.70000*%
%ADD24R,1.65100X1.27000*%
%ADD25R,1.52400X1.65100*%
%ADD26R,1.20000X0.80000*%
%ADD27R,1.20000X0.85000*%
%ADD28R,1.27000X1.65100*%
%ADD29R,1.65100X1.52400*%
%ADD30O,0.70000X2.00000*%
%ADD31R,0.70000X2.00000*%
%ADD32R,3.30000X2.40000*%
%ADD33R,1.00000X2.40000*%
%ADD34R,1.35000X1.80000*%
%ADD35O,0.55000X2.00000*%
%ADD36R,1.35000X0.40000*%
%ADD37R,1.40000X1.60000*%
%ADD38R,1.90000X1.90000*%
%TA.AperFunction,BGAPad,CuDef*%
%ADD39R,1.33000X1.33000*%
%TA.AperFunction,ConnectorPad*%
%ADD40R,0.90000X2.00000*%
%ADD41R,2.00000X0.90000*%
D13*
X16967200Y8089900D02*
D03*
X16713200D02*
D03*
X16459200D02*
D03*
X16205200D02*
D03*
X15951199D02*
D03*
X15316200Y6375400D02*
D03*
Y6121400D02*
D03*
Y5867400D02*
D03*
X16192500Y5143500D02*
D03*
X16446500D02*
D03*
X15938499D02*
D03*
D14*
X15697200Y8089900D02*
D03*
X15684500Y5143500D02*
D03*
D15*
X14081599Y7679500D02*
D03*
X15331599D02*
D03*
Y7179501D02*
D03*
X14081599D02*
D03*
D16*
X16820341Y4572000D02*
D03*
D17*
Y4305300D02*
D03*
D18*
X15316200Y6629400D02*
D03*
D19*
X17627600Y9880798D02*
D03*
Y10540802D02*
D03*
D20*
X16719499Y6495049D02*
D03*
Y6311549D02*
D03*
X16811249Y6586799D02*
D03*
Y6403299D02*
D03*
Y6219800D02*
D03*
X16902998Y6495049D02*
D03*
Y6311549D02*
D03*
X16994749Y6586799D02*
D03*
Y6403299D02*
D03*
Y6219800D02*
D03*
X17086499Y6495049D02*
D03*
Y6311549D02*
D03*
D22*
X14592300Y9626600D02*
D03*
D23*
X14236700D02*
D03*
D24*
X15659109Y11798295D02*
D03*
Y11468095D02*
D03*
X16903694Y10985505D02*
D03*
Y11315705D02*
D03*
X16865610Y9220195D02*
D03*
Y8889995D02*
D03*
X16802110Y5308595D02*
D03*
Y4978395D02*
D03*
X17322810Y4749795D02*
D03*
Y4419595D02*
D03*
D25*
X14592300Y9118600D02*
D03*
X14262100D02*
D03*
X17322800Y5054600D02*
D03*
X17653000D02*
D03*
X17185651Y10947400D02*
D03*
X17515849D02*
D03*
D26*
X14959106Y10985505D02*
D03*
X15659109D02*
D03*
D27*
X16581902Y10884413D02*
D03*
X16332439Y10789920D02*
D03*
X16331900Y10982452D02*
D03*
X16332443Y11708892D02*
D03*
X16581902Y11803380D02*
D03*
X16582446Y11610853D02*
D03*
D28*
X16581902Y11328390D02*
D03*
X16251701D02*
D03*
D29*
X16582446Y9563100D02*
D03*
Y9232900D02*
D03*
X17627600Y4775200D02*
D03*
Y4414520D02*
D03*
X15646400Y9563100D02*
D03*
Y9893300D02*
D03*
X15976601Y10988050D02*
D03*
Y11318250D02*
D03*
D30*
X15163800Y9918700D02*
D03*
D31*
Y9563100D02*
D03*
D32*
Y9154602D02*
D03*
D33*
X14933798Y8574598D02*
D03*
X15163800D02*
D03*
X15393802D02*
D03*
D34*
X15597998Y10337800D02*
D03*
X15263002D02*
D03*
D35*
X16090900Y10528300D02*
D03*
X16217900D02*
D03*
X16344901D02*
D03*
X16471899D02*
D03*
X16598900D02*
D03*
X16725900D02*
D03*
X16852901D02*
D03*
X16090900Y9988301D02*
D03*
X16217900D02*
D03*
X16344901D02*
D03*
X16471899D02*
D03*
X16725900D02*
D03*
X16852901D02*
D03*
X16598900D02*
D03*
X16979900Y10528300D02*
D03*
Y9988301D02*
D03*
D36*
X17360101Y10145801D02*
D03*
Y10340802D02*
D03*
Y10275799D02*
D03*
Y10210800D02*
D03*
Y10080798D02*
D03*
D37*
X17382602Y9890801D02*
D03*
Y10530799D02*
D03*
D38*
X17627600Y10090800D02*
D03*
Y10330800D02*
D03*
D39*
X16719499Y6586799D02*
D03*
Y6403299D02*
D03*
Y6219800D02*
D03*
X16902998Y6586799D02*
D03*
Y6403299D02*
D03*
Y6219800D02*
D03*
X17086499Y6586799D02*
D03*
Y6403299D02*
D03*
Y6219800D02*
D03*
D40*
X17653000Y7353300D02*
D03*
Y5653298D02*
D03*
X17525999D02*
D03*
X17145000Y7353300D02*
D03*
X17399001Y5653298D02*
D03*
X17272000Y7353300D02*
D03*
X16002000D02*
D03*
X17525999D02*
D03*
X17399001D02*
D03*
X17017999D02*
D03*
X16891000D02*
D03*
X16764000D02*
D03*
X16637000D02*
D03*
X16510001D02*
D03*
X16383000D02*
D03*
X16256000D02*
D03*
X16128999D02*
D03*
X16002000Y5653298D02*
D03*
X16128999D02*
D03*
X16256000D02*
D03*
X16383000D02*
D03*
X16510001D02*
D03*
X16637000D02*
D03*
X16764000D02*
D03*
X16891000D02*
D03*
X17017999D02*
D03*
X17145000D02*
D03*
X17272000D02*
D03*
D41*
X15902000Y5931799D02*
D03*
Y7074799D02*
D03*
Y6947799D02*
D03*
Y6820799D02*
D03*
Y6693799D02*
D03*
Y6566799D02*
D03*
Y6439799D02*
D03*
Y6312799D02*
D03*
Y6185799D02*
D03*
Y6058799D02*
D03*
%TF.MD5,e455c3e1e36e74453f3311a2280b7bee*%
M02*
