%TF.GenerationSoftware,Altium Limited,Altium Designer,25.7.1 (20)*%
G04 Layer_Color=32896*
%FSLAX45Y45*%
%MOMM*%
%TF.SameCoordinates,81D67EAA-D314-4BFC-ACE0-956B7E053A61*%
%TF.FilePolarity,Positive*%
%TF.FileFunction,Legend,Bot*%
%TF.Part,Single*%
G01*
G75*
%TA.AperFunction,NonConductor*%
%ADD44C,0.25400*%
%ADD46C,0.20000*%
%ADD48C,0.12700*%
%ADD49C,0.25000*%
%ADD50C,0.60000*%
%ADD51C,0.10160*%
%ADD52C,0.20320*%
%ADD53C,0.08000*%
%ADD54C,0.10000*%
%ADD55R,0.70002X3.22499*%
%ADD56R,2.54000X1.27000*%
%ADD57R,3.22504X0.70002*%
D44*
X15027168Y10800085D02*
Y10914385D01*
Y11056625D02*
Y11170925D01*
X15436108Y10922005D02*
Y11049005D01*
X15182108Y10922005D02*
X15436108D01*
X15182108D02*
Y11049005D01*
X15436108D01*
X15027168Y11170925D02*
X15591048D01*
X15027168Y10800085D02*
X15591048D01*
Y10914385D01*
Y11056625D02*
Y11170925D01*
X17767218Y9651975D02*
Y9525017D01*
X17741826Y9499625D01*
X17691042D01*
X17665649Y9525017D01*
Y9651975D01*
X17513300Y9626583D02*
X17538692Y9651975D01*
X17589474D01*
X17614867Y9626583D01*
Y9601192D01*
X17589474Y9575800D01*
X17538692D01*
X17513300Y9550408D01*
Y9525017D01*
X17538692Y9499625D01*
X17589474D01*
X17614867Y9525017D01*
X17462515Y9651975D02*
Y9499625D01*
X17386340D01*
X17360950Y9525017D01*
Y9550408D01*
X17386340Y9575800D01*
X17462515D01*
X17386340D01*
X17360950Y9601192D01*
Y9626583D01*
X17386340Y9651975D01*
X17462515D01*
X17310165Y9499625D02*
X17259383D01*
X17284773D01*
Y9651975D01*
X17310165Y9626583D01*
X15976559Y10629875D02*
Y10502917D01*
X15951167Y10477525D01*
X15900383D01*
X15874992Y10502917D01*
Y10629875D01*
X15824208Y10604483D02*
X15798816Y10629875D01*
X15748033D01*
X15722641Y10604483D01*
Y10579092D01*
X15748033Y10553700D01*
X15773425D01*
X15748033D01*
X15722641Y10528308D01*
Y10502917D01*
X15748033Y10477525D01*
X15798816D01*
X15824208Y10502917D01*
X16002000Y7708851D02*
Y7581892D01*
X15976608Y7556500D01*
X15925826D01*
X15900433Y7581892D01*
Y7708851D01*
X15849649Y7556500D02*
X15798866D01*
X15824257D01*
Y7708851D01*
X15849649Y7683459D01*
X17208459Y5257825D02*
Y5410175D01*
X17132283D01*
X17106892Y5384783D01*
Y5334000D01*
X17132283Y5308608D01*
X17208459D01*
X17157675D02*
X17106892Y5257825D01*
X17056108Y5410175D02*
X16954541D01*
Y5384783D01*
X17056108Y5283217D01*
Y5257825D01*
X15417760Y11557025D02*
Y11709375D01*
X15341583D01*
X15316193Y11683983D01*
Y11633200D01*
X15341583Y11607808D01*
X15417760D01*
X15366975D02*
X15316193Y11557025D01*
X15163841Y11709375D02*
X15214626Y11683983D01*
X15265408Y11633200D01*
Y11582417D01*
X15240016Y11557025D01*
X15189233D01*
X15163841Y11582417D01*
Y11607808D01*
X15189233Y11633200D01*
X15265408D01*
X17089015Y11445811D02*
Y11515789D01*
X17054025D01*
X17042363Y11504126D01*
Y11480800D01*
X17054025Y11469137D01*
X17089015D01*
X17065689D02*
X17042363Y11445811D01*
X17019037Y11504126D02*
X17007375Y11515789D01*
X16984048D01*
X16972385Y11504126D01*
Y11492463D01*
X16984048Y11480800D01*
X16995711D01*
X16984048D01*
X16972385Y11469137D01*
Y11457474D01*
X16984048Y11445811D01*
X17007375D01*
X17019037Y11457474D01*
X16662360Y8928125D02*
Y9080475D01*
X16586183D01*
X16560793Y9055083D01*
Y9004300D01*
X16586183Y8978908D01*
X16662360D01*
X16611575D02*
X16560793Y8928125D01*
X16408441D02*
X16510008D01*
X16408441Y9029692D01*
Y9055083D01*
X16433833Y9080475D01*
X16484616D01*
X16510008Y9055083D01*
X17170367Y4800625D02*
Y4952975D01*
X17094193D01*
X17068800Y4927583D01*
Y4876800D01*
X17094193Y4851408D01*
X17170367D01*
X17119583D02*
X17068800Y4800625D01*
X17018016D02*
X16967233D01*
X16992624D01*
Y4952975D01*
X17018016Y4927583D01*
X17741818Y4254475D02*
Y4102125D01*
X17640250D01*
X17487900Y4254475D02*
X17589467D01*
Y4102125D01*
X17487900D01*
X17589467Y4178300D02*
X17538683D01*
X17437115Y4254475D02*
Y4102125D01*
X17360941D01*
X17335548Y4127517D01*
Y4229083D01*
X17360941Y4254475D01*
X17437115D01*
X17284766Y4102125D02*
X17233981D01*
X17259373D01*
Y4254475D01*
X17284766Y4229083D01*
X15532066Y10655275D02*
Y10502925D01*
X15455891D01*
X15430499Y10528317D01*
Y10629883D01*
X15455891Y10655275D01*
X15532066D01*
X15379716Y10502925D02*
X15328934D01*
X15354324D01*
Y10655275D01*
X15379716Y10629883D01*
X17437093Y11252183D02*
X17462483Y11277575D01*
X17513268D01*
X17538660Y11252183D01*
Y11150617D01*
X17513268Y11125225D01*
X17462483D01*
X17437093Y11150617D01*
X17386308Y11252183D02*
X17360916Y11277575D01*
X17310133D01*
X17284741Y11252183D01*
Y11226792D01*
X17310133Y11201400D01*
X17284741Y11176008D01*
Y11150617D01*
X17310133Y11125225D01*
X17360916D01*
X17386308Y11150617D01*
Y11176008D01*
X17360916Y11201400D01*
X17386308Y11226792D01*
Y11252183D01*
X17360916Y11201400D02*
X17310133D01*
X16811029Y9804408D02*
X16836421Y9779017D01*
Y9728233D01*
X16811029Y9702841D01*
X16709462D01*
X16684071Y9728233D01*
Y9779017D01*
X16709462Y9804408D01*
X16836421Y9855192D02*
Y9956759D01*
X16811029D01*
X16709462Y9855192D01*
X16684071D01*
X17652992Y5346683D02*
X17678383Y5372075D01*
X17729167D01*
X17754559Y5346683D01*
Y5245117D01*
X17729167Y5219725D01*
X17678383D01*
X17652992Y5245117D01*
X17500641Y5372075D02*
X17551425Y5346683D01*
X17602208Y5295900D01*
Y5245117D01*
X17576816Y5219725D01*
X17526033D01*
X17500641Y5245117D01*
Y5270508D01*
X17526033Y5295900D01*
X17602208D01*
X15176492Y10172683D02*
X15201883Y10198075D01*
X15252667D01*
X15278059Y10172683D01*
Y10071117D01*
X15252667Y10045725D01*
X15201883D01*
X15176492Y10071117D01*
X15049533Y10045725D02*
Y10198075D01*
X15125708Y10121900D01*
X15024141D01*
X14325592Y10032983D02*
X14350983Y10058375D01*
X14401767D01*
X14427159Y10032983D01*
Y9931417D01*
X14401767Y9906025D01*
X14350983D01*
X14325592Y9931417D01*
X14274808Y10032983D02*
X14249416Y10058375D01*
X14198633D01*
X14173241Y10032983D01*
Y10007592D01*
X14198633Y9982200D01*
X14224025D01*
X14198633D01*
X14173241Y9956808D01*
Y9931417D01*
X14198633Y9906025D01*
X14249416D01*
X14274808Y9931417D01*
X15671793Y10182833D02*
X15697183Y10208225D01*
X15747968D01*
X15773360Y10182833D01*
Y10081266D01*
X15747968Y10055874D01*
X15697183D01*
X15671793Y10081266D01*
X15519441Y10055874D02*
X15621008D01*
X15519441Y10157442D01*
Y10182833D01*
X15544833Y10208225D01*
X15595616D01*
X15621008Y10182833D01*
X14350999Y8915383D02*
X14376392Y8940775D01*
X14427174D01*
X14452567Y8915383D01*
Y8813817D01*
X14427174Y8788425D01*
X14376392D01*
X14350999Y8813817D01*
X14300217Y8788425D02*
X14249432D01*
X14274825D01*
Y8940775D01*
X14300217Y8915383D01*
X14795435Y11061675D02*
Y10909325D01*
X14719260D01*
X14693867Y10934717D01*
Y10960108D01*
X14719260Y10985500D01*
X14795435D01*
X14719260D01*
X14693867Y11010892D01*
Y11036283D01*
X14719260Y11061675D01*
X14795435D01*
X14643083D02*
X14541516D01*
X14592300D01*
Y10909325D01*
X14389166D02*
X14490733D01*
X14389166Y11010892D01*
Y11036283D01*
X14414557Y11061675D01*
X14465341D01*
X14490733Y11036283D01*
D46*
X17662000Y5503300D02*
G03*
X17662000Y5503300I-10000J0D01*
G01*
X17030400Y10121900D02*
Y10388600D01*
X16040401D02*
X17030400D01*
X14828799Y8724600D02*
Y9004600D01*
X15498801Y8724600D02*
Y9004600D01*
X14828799D02*
X15498801D01*
X14828799Y8724600D02*
X15498801D01*
X16040401Y10121900D02*
Y10388600D01*
Y10121900D02*
X17030400D01*
X17332599Y10000798D02*
Y10030800D01*
X17487601Y10600802D02*
X17507600D01*
X17902602Y9810801D02*
Y10610799D01*
X17747600D02*
X17902602D01*
X17747600Y9810801D02*
X17902602D01*
X17772598D02*
Y10610799D01*
X17842601Y9810801D02*
Y10610799D01*
X17487601Y9820798D02*
X17507600D01*
X17332599Y10390800D02*
Y10420802D01*
X14917316Y9318689D02*
Y9260374D01*
X14905652Y9248711D01*
X14882326D01*
X14870663Y9260374D01*
Y9318689D01*
X14800685Y9248711D02*
X14847337D01*
X14800685Y9295363D01*
Y9307026D01*
X14812347Y9318689D01*
X14835674D01*
X14847337Y9307026D01*
X16517516Y11115611D02*
Y11185589D01*
X16482526D01*
X16470863Y11173926D01*
Y11150600D01*
X16482526Y11138937D01*
X16517516D01*
X16494189D02*
X16470863Y11115611D01*
X16412547D02*
Y11185589D01*
X16447537Y11150600D01*
X16400885D01*
X16712163Y11012974D02*
Y11059626D01*
X16723827Y11071289D01*
X16747153D01*
X16758815Y11059626D01*
Y11012974D01*
X16747153Y11001311D01*
X16723827D01*
X16735489Y11024637D02*
X16712163Y11001311D01*
X16723827D02*
X16712163Y11012974D01*
X16642184Y11001311D02*
X16688837D01*
X16642184Y11047963D01*
Y11059626D01*
X16653848Y11071289D01*
X16677174D01*
X16688837Y11059626D01*
X15924763Y10818326D02*
X15936426Y10829989D01*
X15959752D01*
X15971416Y10818326D01*
Y10771674D01*
X15959752Y10760011D01*
X15936426D01*
X15924763Y10771674D01*
X15854785Y10829989D02*
X15901437D01*
Y10795000D01*
X15878111Y10806663D01*
X15866447D01*
X15854785Y10795000D01*
Y10771674D01*
X15866447Y10760011D01*
X15889774D01*
X15901437Y10771674D01*
D48*
X14620280Y9626600D02*
G03*
X14620280Y9626600I-208280J0D01*
G01*
X15372079Y9743398D02*
G03*
X15372079Y9743398I-208280J0D01*
G01*
X14629501Y9411599D02*
Y9841601D01*
X14199500Y9411599D02*
X14629501D01*
X14199500D02*
Y9841601D01*
X14629501D01*
Y9621601D02*
Y9711599D01*
X14529501Y9841601D02*
X14629501Y9741601D01*
X14499500Y9841601D02*
X14529501D01*
Y9411599D02*
X14629501Y9511599D01*
X15562590Y11381735D02*
Y11884655D01*
X15758170D01*
Y11381735D02*
Y11884655D01*
X15562590Y11381735D02*
X15758170D01*
X14678661Y9022080D02*
Y9217660D01*
X14175740D02*
X14678661D01*
X14175740Y9022080D02*
Y9217660D01*
Y9022080D02*
X14678661D01*
X17000214Y10899145D02*
Y11402065D01*
X16804634Y10899145D02*
X17000214D01*
X16804634D02*
Y11402065D01*
X17000214D01*
X16165343Y11424910D02*
X16668262D01*
Y11229330D02*
Y11424910D01*
X16165343Y11229330D02*
X16668262D01*
X16165343D02*
Y11424910D01*
X16485925Y9146540D02*
X16681506D01*
Y9649460D01*
X16485925D02*
X16681506D01*
X16485925Y9146540D02*
Y9649460D01*
X16769090Y8803635D02*
Y9306555D01*
X16964670D01*
Y8803635D02*
Y9306555D01*
X16769090Y8803635D02*
X16964670D01*
X16705589Y4892035D02*
Y5394955D01*
X16901170D01*
Y4892035D02*
Y5394955D01*
X16705589Y4892035D02*
X16901170D01*
X17739360Y4958080D02*
Y5153660D01*
X17236440D02*
X17739360D01*
X17236440Y4958080D02*
Y5153660D01*
Y4958080D02*
X17739360D01*
X17226289Y4333235D02*
Y4836155D01*
X17421870D01*
Y4333235D02*
Y4836155D01*
X17226289Y4333235D02*
X17421870D01*
X14948799Y9625899D02*
X15048799Y9525899D01*
X15378801Y9625899D02*
Y9655896D01*
X15278801Y9525899D02*
X15378801Y9625899D01*
X15158801Y9525899D02*
X15248799D01*
X15378801D02*
Y9955896D01*
X14948799D02*
X15378801D01*
X14948799Y9525899D02*
Y9955896D01*
Y9525899D02*
X15378801D01*
X15549879Y9476740D02*
X15745461D01*
Y9979660D01*
X15549879D02*
X15745461D01*
X15549879Y9476740D02*
Y9979660D01*
X15880080Y10901690D02*
X16075661D01*
Y11404610D01*
X15880080D02*
X16075661D01*
X15880080Y10901690D02*
Y11404610D01*
X17099290Y10848340D02*
Y11043920D01*
Y10848340D02*
X17602209D01*
Y11043920D01*
X17099290D02*
X17602209D01*
X17751999Y7403302D02*
X18402000D01*
Y5603301D02*
Y7403302D01*
X17751999Y5603301D02*
X18402000D01*
X15851997Y7403302D02*
X15917001D01*
X15851997Y7158299D02*
Y7403302D01*
Y5603301D02*
Y5848299D01*
Y5603301D02*
X15917001D01*
D49*
X16456700Y10807900D02*
G03*
X16456700Y10807900I-12500J0D01*
G01*
X15511301Y8574600D02*
G03*
X15511301Y8574600I-12500J0D01*
G01*
X17074899Y9988300D02*
G03*
X17074899Y9988300I-12500J0D01*
G01*
X16482642Y11785400D02*
G03*
X16482642Y11785400I-12500J0D01*
G01*
D50*
X16960400Y10203300D02*
G03*
X16960400Y10203300I-30000J0D01*
G01*
D51*
X15735310Y11554455D02*
Y11711935D01*
X15582910Y11554455D02*
Y11711935D01*
X14348460Y9042400D02*
X14505940D01*
X14348460Y9194800D02*
X14505940D01*
X16827493Y11071865D02*
Y11229345D01*
X16979893Y11071865D02*
Y11229345D01*
X16338062Y11252190D02*
X16495541D01*
X16338062Y11404590D02*
X16495541D01*
X16506245Y9319260D02*
Y9476740D01*
X16658646Y9319260D02*
Y9476740D01*
X16941811Y8976355D02*
Y9133835D01*
X16789410Y8976355D02*
Y9133835D01*
X16878310Y5064755D02*
Y5222235D01*
X16725909Y5064755D02*
Y5222235D01*
X17409160Y4978400D02*
X17566640D01*
X17409160Y5130800D02*
X17566640D01*
X17399010Y4505955D02*
Y4663435D01*
X17246609Y4505955D02*
Y4663435D01*
X17729201Y4429760D02*
Y4759960D01*
X17525999Y4429760D02*
Y4759960D01*
X17724120D02*
X17729201D01*
X17724120Y4429760D02*
X17729201D01*
X17525999D02*
X17533620D01*
X17525999Y4759960D02*
X17531081D01*
X15570200Y9649460D02*
Y9806940D01*
X15722600Y9649460D02*
Y9806940D01*
X15900400Y11074410D02*
Y11231890D01*
X16052800Y11074410D02*
Y11231890D01*
X17272009Y11023600D02*
X17429491D01*
X17272009Y10871200D02*
X17429491D01*
X14574500Y9703536D02*
X14515253D01*
X14544876Y9733159D02*
Y9673912D01*
X15240736Y9580898D02*
Y9640146D01*
X15270358Y9610522D02*
X15211111D01*
D52*
X16583899Y10718800D02*
Y10820400D01*
X16329900Y10718800D02*
X16583899D01*
Y10947400D02*
Y11049000D01*
X16329900D02*
X16583899D01*
X16330441Y11772900D02*
Y11874500D01*
X16584442D01*
X16330441Y11544300D02*
Y11645900D01*
Y11544300D02*
X16584442D01*
D53*
X17582600Y10210800D02*
X17602602D01*
D54*
X16725900Y11622574D02*
Y11669226D01*
X16737563Y11680889D01*
X16760889D01*
X16772552Y11669226D01*
Y11622574D01*
X16760889Y11610911D01*
X16737563D01*
X16749226Y11634237D02*
X16725900Y11610911D01*
X16737563D02*
X16725900Y11622574D01*
X16702574Y11610911D02*
X16679248D01*
X16690910D01*
Y11680889D01*
X16702574Y11669226D01*
D55*
X14334500Y9627850D02*
D03*
D56*
X15309108Y10985505D02*
D03*
D57*
X15165050Y9820897D02*
D03*
%TF.MD5,d6f2afd1de7237d4f6087d86a43433c6*%
M02*
