%TF.GenerationSoftware,Altium Limited,Altium Designer,25.7.1 (20)*%
G04 Layer_Physical_Order=1*
G04 Layer_Color=255*
%FSLAX45Y45*%
%MOMM*%
%TF.SameCoordinates,81D67EAA-D314-4BFC-ACE0-956B7E053A61*%
%TF.FilePolarity,Positive*%
%TF.FileFunction,Copper,L1,Top,Signal*%
%TF.Part,Single*%
G01*
G75*
%TA.AperFunction,Conductor*%
%ADD10C,0.30000*%
%ADD11C,1.00000*%
%ADD12C,0.38100*%
%TA.AperFunction,ComponentPad*%
%ADD13C,1.50000*%
%ADD14R,1.50000X1.50000*%
%ADD15C,2.40000*%
%ADD16R,2.54000X1.65100*%
%ADD17O,2.54000X1.65100*%
%ADD18R,1.50000X1.50000*%
G04:AMPARAMS|DCode=19|XSize=2mm|YSize=1.2mm|CornerRadius=0.36mm|HoleSize=0mm|Usage=FLASHONLY|Rotation=180.000|XOffset=0mm|YOffset=0mm|HoleType=Round|Shape=RoundedRectangle|*
%AMROUNDEDRECTD19*
21,1,2.00000,0.48000,0,0,180.0*
21,1,1.28000,1.20000,0,0,180.0*
1,1,0.72000,-0.64000,0.24000*
1,1,0.72000,0.64000,0.24000*
1,1,0.72000,0.64000,-0.24000*
1,1,0.72000,-0.64000,-0.24000*
%
%ADD19ROUNDEDRECTD19*%
%ADD20C,0.30000*%
%TA.AperFunction,ViaPad*%
%ADD21C,0.60000*%
G36*
X17774564Y10592638D02*
X17749438Y10588759D01*
X17735867Y10609069D01*
X17715556Y10622639D01*
X17691600Y10627405D01*
X17640300D01*
Y10540802D01*
Y10454199D01*
X17691600D01*
X17715556Y10458964D01*
X17735867Y10472535D01*
X17749438Y10492845D01*
X17774564Y10488965D01*
Y9932635D01*
X17749438Y9928755D01*
X17735867Y9949065D01*
X17715556Y9962636D01*
X17691600Y9967401D01*
X17640300D01*
Y9880798D01*
X17627600D01*
D01*
X17640300D01*
Y9794195D01*
X17691600D01*
X17715556Y9798961D01*
X17735867Y9812531D01*
X17749438Y9832841D01*
X17774564Y9828962D01*
Y7433888D01*
X17772000D01*
X17760295Y7431559D01*
X17750371Y7424929D01*
X17743741Y7415005D01*
X17741412Y7403300D01*
Y5603300D01*
X17743741Y5591595D01*
X17750371Y5581671D01*
X17760295Y5575041D01*
X17772000Y5572712D01*
X17774564D01*
Y4056736D01*
X13556335D01*
Y12351664D01*
X17774564D01*
Y10592638D01*
D02*
G37*
%LPC*%
G36*
X17614900Y10627405D02*
X17563600D01*
X17539642Y10622639D01*
X17519333Y10609069D01*
X17505762Y10588759D01*
X17500996Y10564802D01*
Y10553502D01*
X17614900D01*
Y10627405D01*
D02*
G37*
G36*
Y10528102D02*
X17500996D01*
Y10516802D01*
X17505762Y10492845D01*
X17519333Y10472535D01*
X17539642Y10458964D01*
X17563600Y10454199D01*
X17614900D01*
Y10528102D01*
D02*
G37*
G36*
Y9967401D02*
X17563600D01*
X17539642Y9962636D01*
X17519333Y9949065D01*
X17505762Y9928755D01*
X17500996Y9904798D01*
Y9893498D01*
X17614900D01*
Y9967401D01*
D02*
G37*
G36*
Y9868098D02*
X17500996D01*
Y9856798D01*
X17505762Y9832841D01*
X17519333Y9812531D01*
X17539642Y9798961D01*
X17563600Y9794195D01*
X17614900D01*
Y9868098D01*
D02*
G37*
G36*
X15964418Y8190300D02*
X15963901D01*
Y8102600D01*
X16051601D01*
Y8103118D01*
X16044759Y8128653D01*
X16031540Y8151547D01*
X16012846Y8170240D01*
X15989954Y8183458D01*
X15964418Y8190300D01*
D02*
G37*
G36*
X15938499D02*
X15937982D01*
X15912447Y8183458D01*
X15889552Y8170240D01*
X15870860Y8151547D01*
X15857642Y8128653D01*
X15850800Y8103118D01*
Y8102600D01*
X15938499D01*
Y8190300D01*
D02*
G37*
G36*
X16051601Y8077200D02*
X15963901D01*
Y7989500D01*
X15964418D01*
X15989954Y7996342D01*
X16012846Y8009560D01*
X16031540Y8028253D01*
X16044759Y8051147D01*
X16051601Y8076682D01*
Y8077200D01*
D02*
G37*
G36*
X15938499D02*
X15850800D01*
Y8076682D01*
X15857642Y8051147D01*
X15870860Y8028253D01*
X15889552Y8009560D01*
X15912447Y7996342D01*
X15937982Y7989500D01*
X15938499D01*
Y8077200D01*
D02*
G37*
G36*
X16981023Y8194900D02*
X16953377D01*
X16926672Y8187744D01*
X16902728Y8173921D01*
X16883179Y8154371D01*
X16869356Y8130428D01*
X16862199Y8103723D01*
Y8076077D01*
X16869356Y8049372D01*
X16883179Y8025429D01*
X16902728Y8005879D01*
X16926672Y7992056D01*
X16953377Y7984900D01*
X16981023D01*
X17007729Y7992056D01*
X17031671Y8005879D01*
X17051221Y8025429D01*
X17065044Y8049372D01*
X17072200Y8076077D01*
Y8103723D01*
X17065044Y8130428D01*
X17051221Y8154371D01*
X17031671Y8173921D01*
X17007729Y8187744D01*
X16981023Y8194900D01*
D02*
G37*
G36*
X16727023D02*
X16699377D01*
X16672672Y8187744D01*
X16648729Y8173921D01*
X16629179Y8154371D01*
X16615356Y8130428D01*
X16608200Y8103723D01*
Y8076077D01*
X16615356Y8049372D01*
X16629179Y8025429D01*
X16648729Y8005879D01*
X16672672Y7992056D01*
X16699377Y7984900D01*
X16727023D01*
X16753728Y7992056D01*
X16777670Y8005879D01*
X16797221Y8025429D01*
X16811044Y8049372D01*
X16818201Y8076077D01*
Y8103723D01*
X16811044Y8130428D01*
X16797221Y8154371D01*
X16777670Y8173921D01*
X16753728Y8187744D01*
X16727023Y8194900D01*
D02*
G37*
G36*
X16473022D02*
X16445377D01*
X16418672Y8187744D01*
X16394730Y8173921D01*
X16375179Y8154371D01*
X16361356Y8130428D01*
X16354201Y8103723D01*
Y8076077D01*
X16361356Y8049372D01*
X16375179Y8025429D01*
X16394730Y8005879D01*
X16418672Y7992056D01*
X16445377Y7984900D01*
X16473022D01*
X16499728Y7992056D01*
X16523671Y8005879D01*
X16543221Y8025429D01*
X16557043Y8049372D01*
X16564200Y8076077D01*
Y8103723D01*
X16557043Y8130428D01*
X16543221Y8154371D01*
X16523671Y8173921D01*
X16499728Y8187744D01*
X16473022Y8194900D01*
D02*
G37*
G36*
X16219023D02*
X16191377D01*
X16164671Y8187744D01*
X16140729Y8173921D01*
X16121179Y8154371D01*
X16107356Y8130428D01*
X16100200Y8103723D01*
Y8076077D01*
X16107356Y8049372D01*
X16121179Y8025429D01*
X16140729Y8005879D01*
X16164671Y7992056D01*
X16191377Y7984900D01*
X16219023D01*
X16245728Y7992056D01*
X16269672Y8005879D01*
X16289221Y8025429D01*
X16303044Y8049372D01*
X16310201Y8076077D01*
Y8103723D01*
X16303044Y8130428D01*
X16289221Y8154371D01*
X16269672Y8173921D01*
X16245728Y8187744D01*
X16219023Y8194900D01*
D02*
G37*
G36*
X16105376Y11609380D02*
X16081505D01*
X16059453Y11600246D01*
X16042574Y11583367D01*
X16033440Y11561315D01*
Y11537445D01*
X16042574Y11515393D01*
X16043430Y11514538D01*
Y9639695D01*
X15504356Y9100623D01*
X15493517Y9084398D01*
X15489709Y9065260D01*
Y7756133D01*
X15464528Y7750552D01*
X15448112Y7775119D01*
X15427219Y7796013D01*
X15402652Y7812428D01*
X15375352Y7823735D01*
X15346375Y7829500D01*
X15316826D01*
X15287846Y7823735D01*
X15260548Y7812428D01*
X15235982Y7796013D01*
X15215086Y7775119D01*
X15198672Y7750552D01*
X15189903Y7729382D01*
X14223297D01*
X14214528Y7750552D01*
X14198112Y7775119D01*
X14177219Y7796013D01*
X14152652Y7812428D01*
X14125352Y7823735D01*
X14096375Y7829500D01*
X14066826D01*
X14037846Y7823735D01*
X14010548Y7812428D01*
X13985982Y7796013D01*
X13965086Y7775119D01*
X13948672Y7750552D01*
X13937366Y7723253D01*
X13931599Y7694274D01*
Y7664726D01*
X13937366Y7635747D01*
X13948672Y7608448D01*
X13965086Y7583881D01*
X13985982Y7562987D01*
X14010548Y7546572D01*
X14037846Y7535265D01*
X14066826Y7529500D01*
X14096375D01*
X14125352Y7535265D01*
X14152652Y7546572D01*
X14177219Y7562987D01*
X14198112Y7583881D01*
X14214528Y7608448D01*
X14225835Y7635747D01*
X14226208Y7637618D01*
X15186992D01*
X15187366Y7635747D01*
X15198672Y7608448D01*
X15215086Y7583881D01*
X15235982Y7562987D01*
X15260548Y7546572D01*
X15287846Y7535265D01*
X15316826Y7529500D01*
X15346375D01*
X15375352Y7535265D01*
X15402652Y7546572D01*
X15427219Y7562987D01*
X15448112Y7583881D01*
X15464528Y7608448D01*
X15489709Y7602867D01*
Y7444022D01*
X15488853Y7443167D01*
X15479720Y7421115D01*
Y7397245D01*
X15488853Y7375193D01*
X15505733Y7358314D01*
X15527785Y7349180D01*
X15551656D01*
X15573708Y7358314D01*
X15584760Y7369367D01*
X15610159Y7361128D01*
Y6710090D01*
X15421201D01*
Y6734400D01*
X15211200D01*
Y6524400D01*
X15421201D01*
Y6548710D01*
X15610159D01*
Y5248500D01*
X15579500D01*
Y5038500D01*
X15789500D01*
Y5248500D01*
X15771539D01*
Y6629400D01*
Y7984900D01*
X15802200D01*
Y8194900D01*
X15615131D01*
X15592200Y8194900D01*
X15589731Y8219277D01*
Y9044545D01*
X16128802Y9583617D01*
X16139644Y9599842D01*
X16143451Y9618980D01*
Y11514538D01*
X16144305Y11515393D01*
X16153439Y11537445D01*
Y11561315D01*
X16144305Y11583367D01*
X16127428Y11600246D01*
X16105376Y11609380D01*
D02*
G37*
G36*
X16890234Y8746800D02*
X16866365D01*
X16844313Y8737666D01*
X16827434Y8720787D01*
X16818300Y8698735D01*
Y8674865D01*
X16827434Y8652813D01*
X16844313Y8635934D01*
X16866365Y8626800D01*
X16890234D01*
X16912286Y8635934D01*
X16917271Y8640918D01*
X17100595D01*
X17162617Y8578895D01*
Y7677105D01*
X17140114Y7654600D01*
X17133064D01*
X17111012Y7645466D01*
X17094135Y7628587D01*
X17085001Y7606535D01*
Y7582665D01*
X17094135Y7560613D01*
X17111012Y7543734D01*
X17133064Y7534600D01*
X17156935D01*
X17178987Y7543734D01*
X17195866Y7560613D01*
X17205000Y7582665D01*
Y7589714D01*
X17240942Y7625657D01*
X17250890Y7640542D01*
X17254382Y7658100D01*
Y8597900D01*
X17250890Y8615458D01*
X17240942Y8630343D01*
X17152043Y8719243D01*
X17137158Y8729189D01*
X17119600Y8732682D01*
X16917271D01*
X16912286Y8737666D01*
X16890234Y8746800D01*
D02*
G37*
G36*
X15318901Y7324901D02*
X15312457D01*
X15275478Y7314992D01*
X15242322Y7295850D01*
X15215251Y7268779D01*
X15196109Y7235623D01*
X15194437Y7229383D01*
X14218764D01*
X14217091Y7235623D01*
X14197949Y7268779D01*
X14170879Y7295850D01*
X14137721Y7314992D01*
X14100742Y7324901D01*
X14094299D01*
Y7179501D01*
Y7034101D01*
X14100742D01*
X14137721Y7044010D01*
X14170879Y7063152D01*
X14197949Y7090223D01*
X14217091Y7123379D01*
X14220908Y7137619D01*
X15192293D01*
X15196109Y7123379D01*
X15215251Y7090223D01*
X15242322Y7063152D01*
X15275478Y7044010D01*
X15312457Y7034101D01*
X15318901D01*
Y7179501D01*
Y7324901D01*
D02*
G37*
G36*
X15350742D02*
X15344301D01*
Y7192201D01*
X15477000D01*
Y7198643D01*
X15467091Y7235623D01*
X15447949Y7268779D01*
X15420879Y7295850D01*
X15387721Y7314992D01*
X15350742Y7324901D01*
D02*
G37*
G36*
X14068900D02*
X14062457D01*
X14025478Y7314992D01*
X13992322Y7295850D01*
X13965251Y7268779D01*
X13946109Y7235623D01*
X13936200Y7198643D01*
Y7192201D01*
X14068900D01*
Y7324901D01*
D02*
G37*
G36*
X15477000Y7166801D02*
X15344301D01*
Y7034101D01*
X15350742D01*
X15387721Y7044010D01*
X15420879Y7063152D01*
X15447949Y7090223D01*
X15467091Y7123379D01*
X15477000Y7160359D01*
Y7166801D01*
D02*
G37*
G36*
X14068900D02*
X13936200D01*
Y7160359D01*
X13946109Y7123379D01*
X13965251Y7090223D01*
X13992322Y7063152D01*
X14025478Y7044010D01*
X14062457Y7034101D01*
X14068900D01*
Y7166801D01*
D02*
G37*
G36*
X17007449Y6625267D02*
Y6599499D01*
X17033217D01*
X17028998Y6609684D01*
X17017633Y6621048D01*
X17007449Y6625267D01*
D02*
G37*
G36*
X16823949D02*
Y6599499D01*
X16849718D01*
X16845499Y6609684D01*
X16834134Y6621048D01*
X16823949Y6625267D01*
D02*
G37*
G36*
X16982050D02*
X16971864Y6621048D01*
X16960500Y6609684D01*
X16956281Y6599499D01*
X16982050D01*
Y6625267D01*
D02*
G37*
G36*
X16798549D02*
X16788364Y6621048D01*
X16777000Y6609684D01*
X16772781Y6599499D01*
X16798549D01*
Y6625267D01*
D02*
G37*
G36*
X16849718Y6574099D02*
X16823949D01*
Y6548331D01*
X16834134Y6552550D01*
X16845499Y6563914D01*
X16849718Y6574099D01*
D02*
G37*
G36*
X17033217D02*
X17007449D01*
Y6548331D01*
X17017633Y6552550D01*
X17028998Y6563914D01*
X17033217Y6574099D01*
D02*
G37*
G36*
X16982050D02*
X16956281D01*
X16960500Y6563914D01*
X16971864Y6552550D01*
X16982050Y6548331D01*
Y6574099D01*
D02*
G37*
G36*
X16798549D02*
X16772781D01*
X16777000Y6563914D01*
X16788364Y6552550D01*
X16798549Y6548331D01*
Y6574099D01*
D02*
G37*
G36*
X17099199Y6533517D02*
Y6507749D01*
X17124966D01*
X17120747Y6517934D01*
X17109383Y6529299D01*
X17099199Y6533517D01*
D02*
G37*
G36*
X16915698D02*
Y6507749D01*
X16941467D01*
X16937248Y6517934D01*
X16925883Y6529299D01*
X16915698Y6533517D01*
D02*
G37*
G36*
X16732199D02*
Y6507749D01*
X16757967D01*
X16753749Y6517934D01*
X16742384Y6529299D01*
X16732199Y6533517D01*
D02*
G37*
G36*
X16890298D02*
X16880115Y6529299D01*
X16868750Y6517934D01*
X16864531Y6507749D01*
X16890298D01*
Y6533517D01*
D02*
G37*
G36*
X16706799D02*
X16696616Y6529299D01*
X16685249Y6517934D01*
X16681030Y6507749D01*
X16706799D01*
Y6533517D01*
D02*
G37*
G36*
X17073799D02*
X17063614Y6529299D01*
X17052249Y6517934D01*
X17048032Y6507749D01*
X17073799D01*
Y6533517D01*
D02*
G37*
G36*
X17124966Y6482349D02*
X17099199D01*
Y6456581D01*
X17109383Y6460800D01*
X17120747Y6472165D01*
X17124966Y6482349D01*
D02*
G37*
G36*
X16941467D02*
X16915698D01*
Y6456581D01*
X16925883Y6460800D01*
X16937248Y6472165D01*
X16941467Y6482349D01*
D02*
G37*
G36*
X16757967D02*
X16732199D01*
Y6456581D01*
X16742384Y6460800D01*
X16753749Y6472165D01*
X16757967Y6482349D01*
D02*
G37*
G36*
X17073799D02*
X17048032D01*
X17052249Y6472165D01*
X17063614Y6460800D01*
X17073799Y6456581D01*
Y6482349D01*
D02*
G37*
G36*
X16890298D02*
X16864531D01*
X16868750Y6472165D01*
X16880115Y6460800D01*
X16890298Y6456581D01*
Y6482349D01*
D02*
G37*
G36*
X16706799D02*
X16681030D01*
X16685249Y6472165D01*
X16696616Y6460800D01*
X16706799Y6456581D01*
Y6482349D01*
D02*
G37*
G36*
X17007449Y6441767D02*
Y6415999D01*
X17033217D01*
X17028998Y6426184D01*
X17017633Y6437549D01*
X17007449Y6441767D01*
D02*
G37*
G36*
X16823949D02*
Y6415999D01*
X16849718D01*
X16845499Y6426184D01*
X16834134Y6437549D01*
X16823949Y6441767D01*
D02*
G37*
G36*
X16982050D02*
X16971864Y6437549D01*
X16960500Y6426184D01*
X16956281Y6415999D01*
X16982050D01*
Y6441767D01*
D02*
G37*
G36*
X16798549D02*
X16788364Y6437549D01*
X16777000Y6426184D01*
X16772781Y6415999D01*
X16798549D01*
Y6441767D01*
D02*
G37*
G36*
X16849718Y6390599D02*
X16823949D01*
Y6364831D01*
X16834134Y6369050D01*
X16845499Y6380415D01*
X16849718Y6390599D01*
D02*
G37*
G36*
X17033217D02*
X17007449D01*
Y6364831D01*
X17017633Y6369050D01*
X17028998Y6380415D01*
X17033217Y6390599D01*
D02*
G37*
G36*
X16982050D02*
X16956281D01*
X16960500Y6380415D01*
X16971864Y6369050D01*
X16982050Y6364831D01*
Y6390599D01*
D02*
G37*
G36*
X16798549D02*
X16772781D01*
X16777000Y6380415D01*
X16788364Y6369050D01*
X16798549Y6364831D01*
Y6390599D01*
D02*
G37*
G36*
X17099199Y6350018D02*
Y6324249D01*
X17124966D01*
X17120747Y6334434D01*
X17109383Y6345799D01*
X17099199Y6350018D01*
D02*
G37*
G36*
X16915698D02*
Y6324249D01*
X16941467D01*
X16937248Y6334434D01*
X16925883Y6345799D01*
X16915698Y6350018D01*
D02*
G37*
G36*
X16732199D02*
Y6324249D01*
X16757967D01*
X16753749Y6334434D01*
X16742384Y6345799D01*
X16732199Y6350018D01*
D02*
G37*
G36*
X16890298D02*
X16880115Y6345799D01*
X16868750Y6334434D01*
X16864531Y6324249D01*
X16890298D01*
Y6350018D01*
D02*
G37*
G36*
X16706799D02*
X16696616Y6345799D01*
X16685249Y6334434D01*
X16681030Y6324249D01*
X16706799D01*
Y6350018D01*
D02*
G37*
G36*
X17073799D02*
X17063614Y6345799D01*
X17052249Y6334434D01*
X17048032Y6324249D01*
X17073799D01*
Y6350018D01*
D02*
G37*
G36*
X17124966Y6298849D02*
X17099199D01*
Y6273081D01*
X17109383Y6277300D01*
X17120747Y6288665D01*
X17124966Y6298849D01*
D02*
G37*
G36*
X16941467D02*
X16915698D01*
Y6273081D01*
X16925883Y6277300D01*
X16937248Y6288665D01*
X16941467Y6298849D01*
D02*
G37*
G36*
X16757967D02*
X16732199D01*
Y6273081D01*
X16742384Y6277300D01*
X16753749Y6288665D01*
X16757967Y6298849D01*
D02*
G37*
G36*
X17073799D02*
X17048032D01*
X17052249Y6288665D01*
X17063614Y6277300D01*
X17073799Y6273081D01*
Y6298849D01*
D02*
G37*
G36*
X16890298D02*
X16864531D01*
X16868750Y6288665D01*
X16880115Y6277300D01*
X16890298Y6273081D01*
Y6298849D01*
D02*
G37*
G36*
X16706799D02*
X16681030D01*
X16685249Y6288665D01*
X16696616Y6277300D01*
X16706799Y6273081D01*
Y6298849D01*
D02*
G37*
G36*
X15330023Y6480400D02*
X15302377D01*
X15275671Y6473244D01*
X15251729Y6459421D01*
X15232179Y6439871D01*
X15218356Y6415928D01*
X15211200Y6389223D01*
Y6361577D01*
X15218356Y6334872D01*
X15232179Y6310929D01*
X15251729Y6291379D01*
X15275671Y6277556D01*
X15302377Y6270400D01*
X15330023D01*
X15356728Y6277556D01*
X15380672Y6291379D01*
X15400221Y6310929D01*
X15414044Y6334872D01*
X15421201Y6361577D01*
Y6389223D01*
X15414044Y6415928D01*
X15400221Y6439871D01*
X15380672Y6459421D01*
X15356728Y6473244D01*
X15330023Y6480400D01*
D02*
G37*
G36*
X17007449Y6258268D02*
Y6232500D01*
X17033217D01*
X17028998Y6242684D01*
X17017633Y6254049D01*
X17007449Y6258268D01*
D02*
G37*
G36*
X16823949D02*
Y6232500D01*
X16849718D01*
X16845499Y6242684D01*
X16834134Y6254049D01*
X16823949Y6258268D01*
D02*
G37*
G36*
X16982050D02*
X16971864Y6254049D01*
X16960500Y6242684D01*
X16956281Y6232500D01*
X16982050D01*
Y6258268D01*
D02*
G37*
G36*
X16798549D02*
X16788364Y6254049D01*
X16777000Y6242684D01*
X16772781Y6232500D01*
X16798549D01*
Y6258268D01*
D02*
G37*
G36*
X16849718Y6207100D02*
X16823949D01*
Y6181332D01*
X16834134Y6185550D01*
X16845499Y6196915D01*
X16849718Y6207100D01*
D02*
G37*
G36*
X17033217D02*
X17007449D01*
Y6181332D01*
X17017633Y6185550D01*
X17028998Y6196915D01*
X17033217Y6207100D01*
D02*
G37*
G36*
X16982050D02*
X16956281D01*
X16960500Y6196915D01*
X16971864Y6185550D01*
X16982050Y6181332D01*
Y6207100D01*
D02*
G37*
G36*
X16798549D02*
X16772781D01*
X16777000Y6196915D01*
X16788364Y6185550D01*
X16798549Y6181332D01*
Y6207100D01*
D02*
G37*
G36*
X15330023Y6226400D02*
X15302377D01*
X15275671Y6219244D01*
X15251729Y6205421D01*
X15232179Y6185871D01*
X15218356Y6161928D01*
X15211200Y6135223D01*
Y6107577D01*
X15218356Y6080872D01*
X15232179Y6056929D01*
X15251729Y6037379D01*
X15275671Y6023556D01*
X15302377Y6016400D01*
X15330023D01*
X15356728Y6023556D01*
X15380672Y6037379D01*
X15400221Y6056929D01*
X15414044Y6080872D01*
X15421201Y6107577D01*
Y6135223D01*
X15414044Y6161928D01*
X15400221Y6185871D01*
X15380672Y6205421D01*
X15356728Y6219244D01*
X15330023Y6226400D01*
D02*
G37*
G36*
X15329417Y5967800D02*
X15328900D01*
Y5880100D01*
X15416600D01*
Y5880618D01*
X15409758Y5906153D01*
X15396539Y5929047D01*
X15377847Y5947740D01*
X15354953Y5960958D01*
X15329417Y5967800D01*
D02*
G37*
G36*
X15303500D02*
X15302982D01*
X15277448Y5960958D01*
X15254553Y5947740D01*
X15235860Y5929047D01*
X15222643Y5906153D01*
X15215800Y5880618D01*
Y5880100D01*
X15303500D01*
Y5967800D01*
D02*
G37*
G36*
X15416600Y5854700D02*
X15328900D01*
Y5767000D01*
X15329417D01*
X15354953Y5773842D01*
X15377847Y5787060D01*
X15396539Y5805753D01*
X15409758Y5828647D01*
X15416600Y5854182D01*
Y5854700D01*
D02*
G37*
G36*
X15303500D02*
X15215800D01*
Y5854182D01*
X15222643Y5828647D01*
X15235860Y5805753D01*
X15254553Y5787060D01*
X15277448Y5773842D01*
X15302982Y5767000D01*
X15303500D01*
Y5854700D01*
D02*
G37*
G36*
X17195035Y11210600D02*
X17171165D01*
X17149113Y11201466D01*
X17132234Y11184587D01*
X17123100Y11162535D01*
Y11138665D01*
X17132234Y11116613D01*
X17137218Y11111629D01*
Y10594650D01*
X16837350Y10294782D01*
X16687801D01*
X16670242Y10291289D01*
X16655357Y10281343D01*
X16553757Y10179743D01*
X16543811Y10164858D01*
X16540318Y10147300D01*
Y9856071D01*
X16535333Y9851087D01*
X16526199Y9829035D01*
Y9805165D01*
X16535333Y9783113D01*
X16552213Y9766234D01*
X16574265Y9757100D01*
X16598135D01*
X16620187Y9766234D01*
X16625171Y9771218D01*
X17024396D01*
X17327718Y9467895D01*
Y7254621D01*
X17331210Y7237062D01*
X17341158Y7222178D01*
X17543617Y7019716D01*
Y5556205D01*
X17317914Y5330500D01*
X17310864D01*
X17288812Y5321366D01*
X17271935Y5304487D01*
X17262801Y5282435D01*
Y5258565D01*
X17271935Y5236513D01*
X17288812Y5219634D01*
X17310864Y5210500D01*
X17334735D01*
X17356787Y5219634D01*
X17373666Y5236513D01*
X17382800Y5258565D01*
Y5265614D01*
X17621944Y5504757D01*
X17631889Y5519642D01*
X17635382Y5537200D01*
Y7038721D01*
X17631889Y7056279D01*
X17621944Y7071164D01*
X17419482Y7273626D01*
Y9486900D01*
X17415990Y9504458D01*
X17406042Y9519343D01*
X17075842Y9849543D01*
X17060957Y9859489D01*
X17043401Y9862982D01*
X16632082D01*
Y10128295D01*
X16706805Y10203018D01*
X16856354D01*
X16873914Y10206511D01*
X16888799Y10216457D01*
X17215543Y10543202D01*
X17225488Y10558088D01*
X17228983Y10575646D01*
Y11111629D01*
X17233966Y11116613D01*
X17243100Y11138665D01*
Y11162535D01*
X17233966Y11184587D01*
X17217087Y11201466D01*
X17195035Y11210600D01*
D02*
G37*
G36*
X15951718Y5243900D02*
X15951199D01*
Y5156200D01*
X16038901D01*
Y5156718D01*
X16032059Y5182253D01*
X16018840Y5205147D01*
X16000146Y5223840D01*
X15977254Y5237058D01*
X15951718Y5243900D01*
D02*
G37*
G36*
X15925800D02*
X15925282D01*
X15899747Y5237058D01*
X15876852Y5223840D01*
X15858160Y5205147D01*
X15844942Y5182253D01*
X15838100Y5156718D01*
Y5156200D01*
X15925800D01*
Y5243900D01*
D02*
G37*
G36*
X16038901Y5130800D02*
X15951199D01*
Y5043100D01*
X15951718D01*
X15977254Y5049942D01*
X16000146Y5063160D01*
X16018840Y5081853D01*
X16032059Y5104747D01*
X16038901Y5130282D01*
Y5130800D01*
D02*
G37*
G36*
X15925800D02*
X15838100D01*
Y5130282D01*
X15844942Y5104747D01*
X15858160Y5081853D01*
X15876852Y5063160D01*
X15899747Y5049942D01*
X15925282Y5043100D01*
X15925800D01*
Y5130800D01*
D02*
G37*
G36*
X16460323Y5248500D02*
X16432677D01*
X16405972Y5241344D01*
X16382030Y5227521D01*
X16362479Y5207971D01*
X16348656Y5184028D01*
X16341499Y5157323D01*
Y5129677D01*
X16348656Y5102972D01*
X16362479Y5079029D01*
X16382030Y5059479D01*
X16405972Y5045656D01*
X16432677Y5038500D01*
X16460323D01*
X16487029Y5045656D01*
X16510971Y5059479D01*
X16530521Y5079029D01*
X16544344Y5102972D01*
X16551500Y5129677D01*
Y5157323D01*
X16544344Y5184028D01*
X16530521Y5207971D01*
X16510971Y5227521D01*
X16487029Y5241344D01*
X16460323Y5248500D01*
D02*
G37*
G36*
X16206323D02*
X16178677D01*
X16151971Y5241344D01*
X16128029Y5227521D01*
X16108479Y5207971D01*
X16094656Y5184028D01*
X16087500Y5157323D01*
Y5129677D01*
X16094656Y5102972D01*
X16108479Y5079029D01*
X16128029Y5059479D01*
X16151971Y5045656D01*
X16178677Y5038500D01*
X16206323D01*
X16233028Y5045656D01*
X16256972Y5059479D01*
X16276521Y5079029D01*
X16290344Y5102972D01*
X16297501Y5129677D01*
Y5157323D01*
X16290344Y5184028D01*
X16276521Y5207971D01*
X16256972Y5227521D01*
X16233028Y5241344D01*
X16206323Y5248500D01*
D02*
G37*
G36*
X16977342Y4684550D02*
X16663342D01*
Y4459450D01*
X16977342D01*
Y4684550D01*
D02*
G37*
G36*
X16864792Y4414181D02*
X16833041D01*
Y4318000D01*
X16972002D01*
X16969965Y4333481D01*
X16959087Y4359741D01*
X16941783Y4382291D01*
X16919234Y4399594D01*
X16892973Y4410471D01*
X16864792Y4414181D01*
D02*
G37*
G36*
X16807642D02*
X16775893D01*
X16747713Y4410471D01*
X16721451Y4399594D01*
X16698901Y4382291D01*
X16681598Y4359741D01*
X16670721Y4333481D01*
X16668683Y4318000D01*
X16807642D01*
Y4414181D01*
D02*
G37*
G36*
X16972002Y4292600D02*
X16833041D01*
Y4196419D01*
X16864792D01*
X16892973Y4200129D01*
X16919234Y4211006D01*
X16941783Y4228309D01*
X16959087Y4250859D01*
X16969965Y4277119D01*
X16972002Y4292600D01*
D02*
G37*
G36*
X16807642D02*
X16668683D01*
X16670721Y4277119D01*
X16681598Y4250859D01*
X16698901Y4228309D01*
X16721451Y4211006D01*
X16747713Y4200129D01*
X16775893Y4196419D01*
X16807642D01*
Y4292600D01*
D02*
G37*
%LPD*%
D10*
X17208501Y7658100D02*
Y8597900D01*
X17145000Y7594600D02*
X17208501Y7658100D01*
X17119600Y8686800D02*
X17208501Y8597900D01*
X16586200Y10147300D02*
X16687801Y10248900D01*
X16586200Y9817100D02*
X17043401D01*
X16586200D02*
Y10147300D01*
X17373599Y7254621D02*
Y9486900D01*
X17043401Y9817100D02*
X17373599Y9486900D01*
Y7254621D02*
X17589500Y7038721D01*
X16878300Y8686800D02*
X17119600D01*
X17589500Y5537200D02*
Y7038721D01*
X17322800Y5270500D02*
X17589500Y5537200D01*
X17183099Y10575646D02*
Y11150600D01*
X16856354Y10248900D02*
X17183099Y10575646D01*
X16687801Y10248900D02*
X16856354D01*
X14078900Y7183501D02*
X15328900D01*
X14078900Y7683500D02*
X15328900D01*
D11*
X15690849Y6629400D02*
Y8083550D01*
Y5149850D02*
Y6629400D01*
Y8083550D02*
X15697200Y8089900D01*
X15684500Y5143500D02*
X15690849Y5149850D01*
X15316200Y6629400D02*
X15690849D01*
D12*
X15539720Y7409180D02*
Y9065260D01*
X16093440Y9618980D01*
Y11549380D01*
D13*
X16967200Y8089900D02*
D03*
X16713200D02*
D03*
X16459200D02*
D03*
X16205200D02*
D03*
X15951199D02*
D03*
X15316200Y6375400D02*
D03*
Y6121400D02*
D03*
Y5867400D02*
D03*
X16192500Y5143500D02*
D03*
X16446500D02*
D03*
X15938499D02*
D03*
D14*
X15697200Y8089900D02*
D03*
X15684500Y5143500D02*
D03*
D15*
X14081599Y7679500D02*
D03*
X15331599D02*
D03*
Y7179501D02*
D03*
X14081599D02*
D03*
D16*
X16820341Y4572000D02*
D03*
D17*
Y4305300D02*
D03*
D18*
X15316200Y6629400D02*
D03*
D19*
X17627600Y9880798D02*
D03*
Y10540802D02*
D03*
D20*
X16719499Y6495049D02*
D03*
Y6311549D02*
D03*
X16811249Y6586799D02*
D03*
Y6403299D02*
D03*
Y6219800D02*
D03*
X16902998Y6495049D02*
D03*
Y6311549D02*
D03*
X16994749Y6586799D02*
D03*
Y6403299D02*
D03*
Y6219800D02*
D03*
X17086499Y6495049D02*
D03*
Y6311549D02*
D03*
D21*
X17283501Y8250000D02*
D03*
X17145000Y7594600D02*
D03*
X16586200Y9817100D02*
D03*
X17000002Y9742100D02*
D03*
X17420782Y9545783D02*
D03*
X17125002Y9500000D02*
D03*
X17261034Y9261033D02*
D03*
X17448599Y8000000D02*
D03*
Y8457116D02*
D03*
Y9000000D02*
D03*
X17500002Y7750000D02*
D03*
Y8250000D02*
D03*
Y8750000D02*
D03*
X17250002Y8761800D02*
D03*
X17125002Y9000000D02*
D03*
X17057269Y8500000D02*
D03*
X17000002Y8250000D02*
D03*
Y8761800D02*
D03*
X16878300Y8686800D02*
D03*
X17628523Y7996477D02*
D03*
X17625002Y8500000D02*
D03*
Y12000000D02*
D03*
X17500002Y11750000D02*
D03*
X17625002Y11500000D02*
D03*
X17500002Y11250000D02*
D03*
Y10750000D02*
D03*
Y9750000D02*
D03*
X17625002Y9500000D02*
D03*
X17500002Y9250000D02*
D03*
X17625002Y9000000D02*
D03*
X17500002Y6750000D02*
D03*
Y6250000D02*
D03*
Y5250000D02*
D03*
Y4250000D02*
D03*
X17375002Y12000000D02*
D03*
X17250002Y11750000D02*
D03*
X17375002Y11500000D02*
D03*
Y11000000D02*
D03*
X17250002Y9750000D02*
D03*
X17375002Y7000000D02*
D03*
X17250002Y6750000D02*
D03*
X17375002Y6500000D02*
D03*
X17250002Y6250000D02*
D03*
X17375002Y6000000D02*
D03*
X17250002Y4250000D02*
D03*
X17125002Y12000000D02*
D03*
X17000002Y10750000D02*
D03*
X17125002Y10000000D02*
D03*
Y7000000D02*
D03*
X17000002Y6750000D02*
D03*
X17125002Y6000000D02*
D03*
X17000002Y5250000D02*
D03*
X17125002Y5000000D02*
D03*
X17000002Y4750000D02*
D03*
X17125002Y4500000D02*
D03*
X17000002Y4250000D02*
D03*
X16875002Y12000000D02*
D03*
X16750002Y11250000D02*
D03*
X16875002Y7000000D02*
D03*
X16750002Y6750000D02*
D03*
X16875002Y6000000D02*
D03*
X16625002Y11000000D02*
D03*
X16500002Y9750000D02*
D03*
Y9250000D02*
D03*
Y8750000D02*
D03*
Y8250000D02*
D03*
X16625002Y7000000D02*
D03*
X16500002Y6750000D02*
D03*
Y6250000D02*
D03*
X16625002Y6000000D02*
D03*
Y5000000D02*
D03*
X16500002Y4750000D02*
D03*
X16625002Y4500000D02*
D03*
X16500002Y4250000D02*
D03*
X16250002Y10250000D02*
D03*
Y9750000D02*
D03*
Y9250000D02*
D03*
X16375002Y9000000D02*
D03*
X16250002Y8750000D02*
D03*
X16375002Y8500000D02*
D03*
X16250002Y8250000D02*
D03*
Y7750000D02*
D03*
X16375002Y7000000D02*
D03*
X16250002Y6750000D02*
D03*
X16375002Y6500000D02*
D03*
X16250002Y6250000D02*
D03*
X16375002Y6000000D02*
D03*
Y5000000D02*
D03*
X16250002Y4750000D02*
D03*
X16375002Y4500000D02*
D03*
X16250002Y4250000D02*
D03*
X16000002Y11750000D02*
D03*
Y10750000D02*
D03*
Y10250000D02*
D03*
Y9750000D02*
D03*
Y9250000D02*
D03*
X16125002Y9000000D02*
D03*
X16000002Y8750000D02*
D03*
X16125002Y8500000D02*
D03*
X16000002Y8250000D02*
D03*
X16125002Y7000000D02*
D03*
Y6500000D02*
D03*
Y6000000D02*
D03*
Y5000000D02*
D03*
X16000002Y4750000D02*
D03*
X16125002Y4500000D02*
D03*
X16000002Y4250000D02*
D03*
X15750002Y11250000D02*
D03*
Y10750000D02*
D03*
X15875002Y10500000D02*
D03*
X15750002Y10250000D02*
D03*
X15875002Y10000000D02*
D03*
X15750002Y9750000D02*
D03*
X15875002Y9000000D02*
D03*
X15750002Y8750000D02*
D03*
X15875002Y8500000D02*
D03*
X15750002Y8250000D02*
D03*
X15875002Y7500000D02*
D03*
Y5500000D02*
D03*
Y5000000D02*
D03*
X15750002Y4750000D02*
D03*
X15875002Y4500000D02*
D03*
X15750002Y4250000D02*
D03*
X15625002Y12000000D02*
D03*
X15500000Y11750000D02*
D03*
Y10750000D02*
D03*
X15625002Y10500000D02*
D03*
X15500000Y9750000D02*
D03*
Y9250000D02*
D03*
X15625002Y9000000D02*
D03*
Y8500000D02*
D03*
X15500000Y7250000D02*
D03*
Y6750000D02*
D03*
Y6250000D02*
D03*
Y5750000D02*
D03*
Y5250000D02*
D03*
X15625002Y5000000D02*
D03*
X15500000Y4750000D02*
D03*
X15625002Y4500000D02*
D03*
X15500000Y4250000D02*
D03*
X15375000Y12000000D02*
D03*
X15250000Y11750000D02*
D03*
X15375000Y11500000D02*
D03*
Y11000000D02*
D03*
X15250000Y10750000D02*
D03*
X15375000Y10500000D02*
D03*
Y10000000D02*
D03*
X15250000Y9750000D02*
D03*
Y8250000D02*
D03*
X15375000Y8000000D02*
D03*
Y7500000D02*
D03*
Y7000000D02*
D03*
X15250000Y6250000D02*
D03*
Y5750000D02*
D03*
X15375000Y5500000D02*
D03*
X15250000Y5250000D02*
D03*
X15375000Y5000000D02*
D03*
X15250000Y4750000D02*
D03*
X15375000Y4500000D02*
D03*
X15250000Y4250000D02*
D03*
X15125000Y12000000D02*
D03*
X15000000Y11750000D02*
D03*
X15125000Y11500000D02*
D03*
Y11000000D02*
D03*
X15000000Y10750000D02*
D03*
X15125000Y10500000D02*
D03*
X15000000Y9750000D02*
D03*
X15125000Y8000000D02*
D03*
Y7500000D02*
D03*
Y7000000D02*
D03*
X15000000Y6750000D02*
D03*
X15125000Y6500000D02*
D03*
X15000000Y6250000D02*
D03*
X15125000Y6000000D02*
D03*
X15000000Y5750000D02*
D03*
X15125000Y5500000D02*
D03*
X15000000Y5250000D02*
D03*
X15125000Y5000000D02*
D03*
X15000000Y4750000D02*
D03*
X15125000Y4500000D02*
D03*
X15000000Y4250000D02*
D03*
X14875000Y12000000D02*
D03*
X14750000Y11750000D02*
D03*
X14875000Y11500000D02*
D03*
X14750000Y10750000D02*
D03*
X14875000Y10500000D02*
D03*
Y10000000D02*
D03*
X14750000Y9750000D02*
D03*
X14875000Y9500000D02*
D03*
X14750000Y9250000D02*
D03*
X14875000Y9000000D02*
D03*
X14750000Y8750000D02*
D03*
Y8250000D02*
D03*
X14875000Y8000000D02*
D03*
Y7500000D02*
D03*
Y7000000D02*
D03*
X14750000Y6750000D02*
D03*
X14875000Y6500000D02*
D03*
X14750000Y6250000D02*
D03*
X14875000Y6000000D02*
D03*
X14750000Y5750000D02*
D03*
X14875000Y5500000D02*
D03*
X14750000Y5250000D02*
D03*
X14875000Y5000000D02*
D03*
X14750000Y4750000D02*
D03*
X14875000Y4500000D02*
D03*
X14750000Y4250000D02*
D03*
X14625000Y12000000D02*
D03*
X14500000Y11750000D02*
D03*
X14625000Y11500000D02*
D03*
Y11000000D02*
D03*
X14500000Y10750000D02*
D03*
X14625000Y10500000D02*
D03*
X14500000Y10250000D02*
D03*
Y8250000D02*
D03*
X14625000Y8000000D02*
D03*
Y7500000D02*
D03*
Y7000000D02*
D03*
X14500000Y6750000D02*
D03*
X14625000Y6500000D02*
D03*
X14500000Y6250000D02*
D03*
X14625000Y6000000D02*
D03*
X14500000Y5750000D02*
D03*
X14625000Y5500000D02*
D03*
X14500000Y5250000D02*
D03*
X14625000Y5000000D02*
D03*
X14500000Y4750000D02*
D03*
X14625000Y4500000D02*
D03*
X14500000Y4250000D02*
D03*
X14375000Y12000000D02*
D03*
X14250000Y11750000D02*
D03*
X14375000Y11500000D02*
D03*
Y11000000D02*
D03*
X14250000Y10750000D02*
D03*
X14375000Y10500000D02*
D03*
X14250000Y10250000D02*
D03*
X14375000Y10000000D02*
D03*
X14250000Y9750000D02*
D03*
X14375000Y9500000D02*
D03*
X14250000Y8750000D02*
D03*
X14375000Y8500000D02*
D03*
X14250000Y8250000D02*
D03*
X14375000Y8000000D02*
D03*
Y7500000D02*
D03*
Y7000000D02*
D03*
X14250000Y6750000D02*
D03*
X14375000Y6500000D02*
D03*
X14250000Y6250000D02*
D03*
X14375000Y6000000D02*
D03*
X14250000Y5750000D02*
D03*
X14375000Y5500000D02*
D03*
X14250000Y5250000D02*
D03*
X14375000Y5000000D02*
D03*
X14250000Y4750000D02*
D03*
X14375000Y4500000D02*
D03*
X14250000Y4250000D02*
D03*
X14125000Y12000000D02*
D03*
X14000000Y11750000D02*
D03*
X14125000Y11500000D02*
D03*
Y11000000D02*
D03*
X14000000Y10750000D02*
D03*
X14125000Y10500000D02*
D03*
X14000000Y10250000D02*
D03*
X14125000Y10000000D02*
D03*
X14000000Y9750000D02*
D03*
X14125000Y9500000D02*
D03*
X14000000Y9250000D02*
D03*
X14125000Y9000000D02*
D03*
X14000000Y8750000D02*
D03*
X14125000Y8500000D02*
D03*
X14000000Y8250000D02*
D03*
X14125000Y8000000D02*
D03*
Y7500000D02*
D03*
Y7000000D02*
D03*
X14000000Y6750000D02*
D03*
X14125000Y6500000D02*
D03*
X14000000Y6250000D02*
D03*
X14125000Y6000000D02*
D03*
Y5500000D02*
D03*
X14000000Y5250000D02*
D03*
X14125000Y5000000D02*
D03*
X14000000Y4750000D02*
D03*
X14125000Y4500000D02*
D03*
X14000000Y4250000D02*
D03*
X13875000Y12000000D02*
D03*
X13750000Y11750000D02*
D03*
X13875000Y11500000D02*
D03*
X13750000Y11250000D02*
D03*
Y10750000D02*
D03*
Y10250000D02*
D03*
Y9750000D02*
D03*
Y9250000D02*
D03*
Y8750000D02*
D03*
Y8250000D02*
D03*
Y7750000D02*
D03*
Y7250000D02*
D03*
Y6750000D02*
D03*
Y6250000D02*
D03*
Y5750000D02*
D03*
X13875000Y5500000D02*
D03*
X13750000Y5250000D02*
D03*
X13875000Y5000000D02*
D03*
X13750000Y4750000D02*
D03*
X13875000Y4500000D02*
D03*
X13750000Y4250000D02*
D03*
X17322800Y5270500D02*
D03*
X17183099Y11150600D02*
D03*
X15539720Y7409180D02*
D03*
X16093440Y11549380D02*
D03*
%TF.MD5,34ba37bcebb48e3240d41ce5e1789a36*%
M02*
