%TF.GenerationSoftware,Altium Limited,Altium Designer,25.7.1 (20)*%
G04 Layer_Color=128*
%FSLAX45Y45*%
%MOMM*%
%TF.SameCoordinates,6DC23F8A-9C4A-45C2-95F2-439E2FAEE1B8*%
%TF.FilePolarity,Positive*%
%TF.FileFunction,Drillmap*%
%TF.Part,Single*%
G01*
G75*
%TA.AperFunction,NonConductor*%
%ADD47C,0.12700*%
D47*
X16779703Y4572000D02*
X16860982D01*
X16820341Y4531360D02*
Y4612640D01*
X16779703Y4305300D02*
X16860982D01*
X16820341Y4264660D02*
Y4345940D01*
X15271201Y6375400D02*
X15361200D01*
X15316200Y6330400D02*
Y6420400D01*
X15271201Y6121400D02*
X15361200D01*
X15316200Y6076400D02*
Y6166400D01*
X15271201Y6629400D02*
X15361200D01*
X15316200Y6584400D02*
Y6674400D01*
X15271201Y5867400D02*
X15361200D01*
X15316200Y5822400D02*
Y5912400D01*
X16147501Y5143500D02*
X16237500D01*
X16192500Y5098500D02*
Y5188500D01*
X16401500Y5143500D02*
X16491499D01*
X16446500Y5098500D02*
Y5188500D01*
X15639500Y5143500D02*
X15729500D01*
X15684500Y5098500D02*
Y5188500D01*
X15893500Y5143500D02*
X15983501D01*
X15938499Y5098500D02*
Y5188500D01*
X17602600Y9880798D02*
X17652600D01*
X17627600Y9855798D02*
Y9905798D01*
X17602600Y10540802D02*
X17652600D01*
X17627600Y10515802D02*
Y10565802D01*
X16709499Y6495049D02*
X16729498D01*
X16719499Y6485049D02*
Y6505049D01*
X16709499Y6311549D02*
X16729498D01*
X16719499Y6301549D02*
Y6321549D01*
X16801250Y6586799D02*
X16821249D01*
X16811249Y6576799D02*
Y6596799D01*
X16801250Y6403299D02*
X16821249D01*
X16811249Y6393299D02*
Y6413299D01*
X16801250Y6219800D02*
X16821249D01*
X16811249Y6209800D02*
Y6229800D01*
X16892999Y6495049D02*
X16912999D01*
X16902998Y6485049D02*
Y6505049D01*
X16892999Y6311549D02*
X16912999D01*
X16902998Y6301549D02*
Y6321549D01*
X16984749Y6586799D02*
X17004749D01*
X16994749Y6576799D02*
Y6596799D01*
X16984749Y6403299D02*
X17004749D01*
X16994749Y6393299D02*
Y6413299D01*
X16984749Y6219800D02*
X17004749D01*
X16994749Y6209800D02*
Y6229800D01*
X17076498Y6495049D02*
X17096500D01*
X17086499Y6485049D02*
Y6505049D01*
X17076498Y6311549D02*
X17096500D01*
X17086499Y6301549D02*
Y6321549D01*
X14021600Y7179501D02*
X14141600D01*
X14081599Y7119501D02*
Y7239501D01*
X15271600Y7179501D02*
X15391600D01*
X15331599Y7119501D02*
Y7239501D01*
X15906200Y8089900D02*
X15996201D01*
X15951199Y8044900D02*
Y8134900D01*
X15652200Y8089900D02*
X15742200D01*
X15697200Y8044900D02*
Y8134900D01*
X16160201Y8089900D02*
X16250200D01*
X16205200Y8044900D02*
Y8134900D01*
X16414200Y8089900D02*
X16504201D01*
X16459200Y8044900D02*
Y8134900D01*
X16668201Y8089900D02*
X16758200D01*
X16713200Y8044900D02*
Y8134900D01*
X16922200Y8089900D02*
X17012199D01*
X16967200Y8044900D02*
Y8134900D01*
X15271600Y7679500D02*
X15391600D01*
X15331599Y7619500D02*
Y7739500D01*
X14021600Y7679500D02*
X14141600D01*
X14081599Y7619500D02*
Y7739500D01*
X17268500Y8250000D02*
X17298500D01*
X17283501Y8235000D02*
Y8265000D01*
X17130000Y7594600D02*
X17160001D01*
X17145000Y7579600D02*
Y7609600D01*
X16571201Y9817100D02*
X16601199D01*
X16586200Y9802100D02*
Y9832100D01*
X16985001Y9742100D02*
X17015001D01*
X17000002Y9727100D02*
Y9757100D01*
X17405783Y9545783D02*
X17435783D01*
X17420782Y9530783D02*
Y9560783D01*
X17110001Y9500000D02*
X17140001D01*
X17125002Y9485000D02*
Y9515000D01*
X17246033Y9261033D02*
X17276033D01*
X17261034Y9246033D02*
Y9276033D01*
X17433600Y8000000D02*
X17463600D01*
X17448599Y7985000D02*
Y8015000D01*
X17433600Y8457116D02*
X17463600D01*
X17448599Y8442116D02*
Y8472116D01*
X17433600Y9000000D02*
X17463600D01*
X17448599Y8985000D02*
Y9015000D01*
X17485001Y7750000D02*
X17515001D01*
X17500002Y7735000D02*
Y7765000D01*
X17485001Y8250000D02*
X17515001D01*
X17500002Y8235000D02*
Y8265000D01*
X17485001Y8750000D02*
X17515001D01*
X17500002Y8735000D02*
Y8765000D01*
X17235001Y8761800D02*
X17265001D01*
X17250002Y8746800D02*
Y8776800D01*
X17110001Y9000000D02*
X17140001D01*
X17125002Y8985000D02*
Y9015000D01*
X17042270Y8500000D02*
X17072270D01*
X17057269Y8485000D02*
Y8515000D01*
X16985001Y8250000D02*
X17015001D01*
X17000002Y8235000D02*
Y8265000D01*
X16985001Y8761800D02*
X17015001D01*
X17000002Y8746800D02*
Y8776800D01*
X16863300Y8686800D02*
X16893300D01*
X16878300Y8671800D02*
Y8701800D01*
X17613522Y7996477D02*
X17643523D01*
X17628523Y7981477D02*
Y8011477D01*
X17610001Y8500000D02*
X17640001D01*
X17625002Y8485000D02*
Y8515000D01*
X17610001Y12000000D02*
X17640001D01*
X17625002Y11985000D02*
Y12015000D01*
X17485001Y11750000D02*
X17515001D01*
X17500002Y11735000D02*
Y11765000D01*
X17610001Y11500000D02*
X17640001D01*
X17625002Y11485000D02*
Y11515000D01*
X17485001Y11250000D02*
X17515001D01*
X17500002Y11235000D02*
Y11265000D01*
X17485001Y10750000D02*
X17515001D01*
X17500002Y10735000D02*
Y10765000D01*
X17485001Y9750000D02*
X17515001D01*
X17500002Y9735000D02*
Y9765000D01*
X17610001Y9500000D02*
X17640001D01*
X17625002Y9485000D02*
Y9515000D01*
X17485001Y9250000D02*
X17515001D01*
X17500002Y9235000D02*
Y9265000D01*
X17610001Y9000000D02*
X17640001D01*
X17625002Y8985000D02*
Y9015000D01*
X17485001Y6750000D02*
X17515001D01*
X17500002Y6735000D02*
Y6765000D01*
X17485001Y6250000D02*
X17515001D01*
X17500002Y6235000D02*
Y6265000D01*
X17485001Y5250000D02*
X17515001D01*
X17500002Y5235000D02*
Y5265000D01*
X17485001Y4250000D02*
X17515001D01*
X17500002Y4235000D02*
Y4265000D01*
X17360001Y12000000D02*
X17390001D01*
X17375002Y11985000D02*
Y12015000D01*
X17235001Y11750000D02*
X17265001D01*
X17250002Y11735000D02*
Y11765000D01*
X17360001Y11500000D02*
X17390001D01*
X17375002Y11485000D02*
Y11515000D01*
X17360001Y11000000D02*
X17390001D01*
X17375002Y10985000D02*
Y11015000D01*
X17235001Y9750000D02*
X17265001D01*
X17250002Y9735000D02*
Y9765000D01*
X17360001Y7000000D02*
X17390001D01*
X17375002Y6985000D02*
Y7015000D01*
X17235001Y6750000D02*
X17265001D01*
X17250002Y6735000D02*
Y6765000D01*
X17360001Y6500000D02*
X17390001D01*
X17375002Y6485000D02*
Y6515000D01*
X17235001Y6250000D02*
X17265001D01*
X17250002Y6235000D02*
Y6265000D01*
X17360001Y6000000D02*
X17390001D01*
X17375002Y5985000D02*
Y6015000D01*
X17235001Y4250000D02*
X17265001D01*
X17250002Y4235000D02*
Y4265000D01*
X17110001Y12000000D02*
X17140001D01*
X17125002Y11985000D02*
Y12015000D01*
X16985001Y10750000D02*
X17015001D01*
X17000002Y10735000D02*
Y10765000D01*
X17110001Y10000000D02*
X17140001D01*
X17125002Y9985000D02*
Y10015000D01*
X17110001Y7000000D02*
X17140001D01*
X17125002Y6985000D02*
Y7015000D01*
X16985001Y6750000D02*
X17015001D01*
X17000002Y6735000D02*
Y6765000D01*
X17110001Y6000000D02*
X17140001D01*
X17125002Y5985000D02*
Y6015000D01*
X16985001Y5250000D02*
X17015001D01*
X17000002Y5235000D02*
Y5265000D01*
X17110001Y5000000D02*
X17140001D01*
X17125002Y4985000D02*
Y5015000D01*
X16985001Y4750000D02*
X17015001D01*
X17000002Y4735000D02*
Y4765000D01*
X17110001Y4500000D02*
X17140001D01*
X17125002Y4485000D02*
Y4515000D01*
X16985001Y4250000D02*
X17015001D01*
X17000002Y4235000D02*
Y4265000D01*
X16860001Y12000000D02*
X16890001D01*
X16875002Y11985000D02*
Y12015000D01*
X16735001Y11250000D02*
X16765001D01*
X16750002Y11235000D02*
Y11265000D01*
X16860001Y7000000D02*
X16890001D01*
X16875002Y6985000D02*
Y7015000D01*
X16735001Y6750000D02*
X16765001D01*
X16750002Y6735000D02*
Y6765000D01*
X16860001Y6000000D02*
X16890001D01*
X16875002Y5985000D02*
Y6015000D01*
X16610001Y11000000D02*
X16640001D01*
X16625002Y10985000D02*
Y11015000D01*
X16485001Y9750000D02*
X16514999D01*
X16500002Y9735000D02*
Y9765000D01*
X16485001Y9250000D02*
X16514999D01*
X16500002Y9235000D02*
Y9265000D01*
X16485001Y8750000D02*
X16514999D01*
X16500002Y8735000D02*
Y8765000D01*
X16485001Y8250000D02*
X16514999D01*
X16500002Y8235000D02*
Y8265000D01*
X16610001Y7000000D02*
X16640001D01*
X16625002Y6985000D02*
Y7015000D01*
X16485001Y6750000D02*
X16514999D01*
X16500002Y6735000D02*
Y6765000D01*
X16485001Y6250000D02*
X16514999D01*
X16500002Y6235000D02*
Y6265000D01*
X16610001Y6000000D02*
X16640001D01*
X16625002Y5985000D02*
Y6015000D01*
X16610001Y5000000D02*
X16640001D01*
X16625002Y4985000D02*
Y5015000D01*
X16485001Y4750000D02*
X16514999D01*
X16500002Y4735000D02*
Y4765000D01*
X16610001Y4500000D02*
X16640001D01*
X16625002Y4485000D02*
Y4515000D01*
X16485001Y4250000D02*
X16514999D01*
X16500002Y4235000D02*
Y4265000D01*
X16235001Y10250000D02*
X16264999D01*
X16250002Y10235000D02*
Y10265000D01*
X16235001Y9750000D02*
X16264999D01*
X16250002Y9735000D02*
Y9765000D01*
X16235001Y9250000D02*
X16264999D01*
X16250002Y9235000D02*
Y9265000D01*
X16360001Y9000000D02*
X16389999D01*
X16375002Y8985000D02*
Y9015000D01*
X16235001Y8750000D02*
X16264999D01*
X16250002Y8735000D02*
Y8765000D01*
X16360001Y8500000D02*
X16389999D01*
X16375002Y8485000D02*
Y8515000D01*
X16235001Y8250000D02*
X16264999D01*
X16250002Y8235000D02*
Y8265000D01*
X16235001Y7750000D02*
X16264999D01*
X16250002Y7735000D02*
Y7765000D01*
X16360001Y7000000D02*
X16389999D01*
X16375002Y6985000D02*
Y7015000D01*
X16235001Y6750000D02*
X16264999D01*
X16250002Y6735000D02*
Y6765000D01*
X16360001Y6500000D02*
X16389999D01*
X16375002Y6485000D02*
Y6515000D01*
X16235001Y6250000D02*
X16264999D01*
X16250002Y6235000D02*
Y6265000D01*
X16360001Y6000000D02*
X16389999D01*
X16375002Y5985000D02*
Y6015000D01*
X16360001Y5000000D02*
X16389999D01*
X16375002Y4985000D02*
Y5015000D01*
X16235001Y4750000D02*
X16264999D01*
X16250002Y4735000D02*
Y4765000D01*
X16360001Y4500000D02*
X16389999D01*
X16375002Y4485000D02*
Y4515000D01*
X16235001Y4250000D02*
X16264999D01*
X16250002Y4235000D02*
Y4265000D01*
X15985001Y11750000D02*
X16014999D01*
X16000002Y11735000D02*
Y11765000D01*
X15985001Y10750000D02*
X16014999D01*
X16000002Y10735000D02*
Y10765000D01*
X15985001Y10250000D02*
X16014999D01*
X16000002Y10235000D02*
Y10265000D01*
X15985001Y9750000D02*
X16014999D01*
X16000002Y9735000D02*
Y9765000D01*
X15985001Y9250000D02*
X16014999D01*
X16000002Y9235000D02*
Y9265000D01*
X16110001Y9000000D02*
X16139999D01*
X16125002Y8985000D02*
Y9015000D01*
X15985001Y8750000D02*
X16014999D01*
X16000002Y8735000D02*
Y8765000D01*
X16110001Y8500000D02*
X16139999D01*
X16125002Y8485000D02*
Y8515000D01*
X15985001Y8250000D02*
X16014999D01*
X16000002Y8235000D02*
Y8265000D01*
X16110001Y7000000D02*
X16139999D01*
X16125002Y6985000D02*
Y7015000D01*
X16110001Y6500000D02*
X16139999D01*
X16125002Y6485000D02*
Y6515000D01*
X16110001Y6000000D02*
X16139999D01*
X16125002Y5985000D02*
Y6015000D01*
X16110001Y5000000D02*
X16139999D01*
X16125002Y4985000D02*
Y5015000D01*
X15985001Y4750000D02*
X16014999D01*
X16000002Y4735000D02*
Y4765000D01*
X16110001Y4500000D02*
X16139999D01*
X16125002Y4485000D02*
Y4515000D01*
X15985001Y4250000D02*
X16014999D01*
X16000002Y4235000D02*
Y4265000D01*
X15735001Y11250000D02*
X15764999D01*
X15750002Y11235000D02*
Y11265000D01*
X15735001Y10750000D02*
X15764999D01*
X15750002Y10735000D02*
Y10765000D01*
X15860001Y10500000D02*
X15889999D01*
X15875002Y10485000D02*
Y10515000D01*
X15735001Y10250000D02*
X15764999D01*
X15750002Y10235000D02*
Y10265000D01*
X15860001Y10000000D02*
X15889999D01*
X15875002Y9985000D02*
Y10015000D01*
X15735001Y9750000D02*
X15764999D01*
X15750002Y9735000D02*
Y9765000D01*
X15860001Y9000000D02*
X15889999D01*
X15875002Y8985000D02*
Y9015000D01*
X15735001Y8750000D02*
X15764999D01*
X15750002Y8735000D02*
Y8765000D01*
X15860001Y8500000D02*
X15889999D01*
X15875002Y8485000D02*
Y8515000D01*
X15735001Y8250000D02*
X15764999D01*
X15750002Y8235000D02*
Y8265000D01*
X15860001Y7500000D02*
X15889999D01*
X15875002Y7485000D02*
Y7515000D01*
X15860001Y5500000D02*
X15889999D01*
X15875002Y5485000D02*
Y5515000D01*
X15860001Y5000000D02*
X15889999D01*
X15875002Y4985000D02*
Y5015000D01*
X15735001Y4750000D02*
X15764999D01*
X15750002Y4735000D02*
Y4765000D01*
X15860001Y4500000D02*
X15889999D01*
X15875002Y4485000D02*
Y4515000D01*
X15735001Y4250000D02*
X15764999D01*
X15750002Y4235000D02*
Y4265000D01*
X15610001Y12000000D02*
X15639999D01*
X15625002Y11985000D02*
Y12015000D01*
X15485001Y11750000D02*
X15514999D01*
X15500000Y11735000D02*
Y11765000D01*
X15485001Y10750000D02*
X15514999D01*
X15500000Y10735000D02*
Y10765000D01*
X15610001Y10500000D02*
X15639999D01*
X15625002Y10485000D02*
Y10515000D01*
X15485001Y9750000D02*
X15514999D01*
X15500000Y9735000D02*
Y9765000D01*
X15485001Y9250000D02*
X15514999D01*
X15500000Y9235000D02*
Y9265000D01*
X15610001Y9000000D02*
X15639999D01*
X15625002Y8985000D02*
Y9015000D01*
X15610001Y8500000D02*
X15639999D01*
X15625002Y8485000D02*
Y8515000D01*
X15485001Y7250000D02*
X15514999D01*
X15500000Y7235000D02*
Y7265000D01*
X15485001Y6750000D02*
X15514999D01*
X15500000Y6735000D02*
Y6765000D01*
X15485001Y6250000D02*
X15514999D01*
X15500000Y6235000D02*
Y6265000D01*
X15485001Y5750000D02*
X15514999D01*
X15500000Y5735000D02*
Y5765000D01*
X15485001Y5250000D02*
X15514999D01*
X15500000Y5235000D02*
Y5265000D01*
X15610001Y5000000D02*
X15639999D01*
X15625002Y4985000D02*
Y5015000D01*
X15485001Y4750000D02*
X15514999D01*
X15500000Y4735000D02*
Y4765000D01*
X15610001Y4500000D02*
X15639999D01*
X15625002Y4485000D02*
Y4515000D01*
X15485001Y4250000D02*
X15514999D01*
X15500000Y4235000D02*
Y4265000D01*
X15360001Y12000000D02*
X15389999D01*
X15375000Y11985000D02*
Y12015000D01*
X15235001Y11750000D02*
X15264999D01*
X15250000Y11735000D02*
Y11765000D01*
X15360001Y11500000D02*
X15389999D01*
X15375000Y11485000D02*
Y11515000D01*
X15360001Y11000000D02*
X15389999D01*
X15375000Y10985000D02*
Y11015000D01*
X15235001Y10750000D02*
X15264999D01*
X15250000Y10735000D02*
Y10765000D01*
X15360001Y10500000D02*
X15389999D01*
X15375000Y10485000D02*
Y10515000D01*
X15360001Y10000000D02*
X15389999D01*
X15375000Y9985000D02*
Y10015000D01*
X15235001Y9750000D02*
X15264999D01*
X15250000Y9735000D02*
Y9765000D01*
X15235001Y8250000D02*
X15264999D01*
X15250000Y8235000D02*
Y8265000D01*
X15360001Y8000000D02*
X15389999D01*
X15375000Y7985000D02*
Y8015000D01*
X15360001Y7500000D02*
X15389999D01*
X15375000Y7485000D02*
Y7515000D01*
X15360001Y7000000D02*
X15389999D01*
X15375000Y6985000D02*
Y7015000D01*
X15235001Y6250000D02*
X15264999D01*
X15250000Y6235000D02*
Y6265000D01*
X15235001Y5750000D02*
X15264999D01*
X15250000Y5735000D02*
Y5765000D01*
X15360001Y5500000D02*
X15389999D01*
X15375000Y5485000D02*
Y5515000D01*
X15235001Y5250000D02*
X15264999D01*
X15250000Y5235000D02*
Y5265000D01*
X15360001Y5000000D02*
X15389999D01*
X15375000Y4985000D02*
Y5015000D01*
X15235001Y4750000D02*
X15264999D01*
X15250000Y4735000D02*
Y4765000D01*
X15360001Y4500000D02*
X15389999D01*
X15375000Y4485000D02*
Y4515000D01*
X15235001Y4250000D02*
X15264999D01*
X15250000Y4235000D02*
Y4265000D01*
X15110001Y12000000D02*
X15139999D01*
X15125000Y11985000D02*
Y12015000D01*
X14985001Y11750000D02*
X15014999D01*
X15000000Y11735000D02*
Y11765000D01*
X15110001Y11500000D02*
X15139999D01*
X15125000Y11485000D02*
Y11515000D01*
X15110001Y11000000D02*
X15139999D01*
X15125000Y10985000D02*
Y11015000D01*
X14985001Y10750000D02*
X15014999D01*
X15000000Y10735000D02*
Y10765000D01*
X15110001Y10500000D02*
X15139999D01*
X15125000Y10485000D02*
Y10515000D01*
X14985001Y9750000D02*
X15014999D01*
X15000000Y9735000D02*
Y9765000D01*
X15110001Y8000000D02*
X15139999D01*
X15125000Y7985000D02*
Y8015000D01*
X15110001Y7500000D02*
X15139999D01*
X15125000Y7485000D02*
Y7515000D01*
X15110001Y7000000D02*
X15139999D01*
X15125000Y6985000D02*
Y7015000D01*
X14985001Y6750000D02*
X15014999D01*
X15000000Y6735000D02*
Y6765000D01*
X15110001Y6500000D02*
X15139999D01*
X15125000Y6485000D02*
Y6515000D01*
X14985001Y6250000D02*
X15014999D01*
X15000000Y6235000D02*
Y6265000D01*
X15110001Y6000000D02*
X15139999D01*
X15125000Y5985000D02*
Y6015000D01*
X14985001Y5750000D02*
X15014999D01*
X15000000Y5735000D02*
Y5765000D01*
X15110001Y5500000D02*
X15139999D01*
X15125000Y5485000D02*
Y5515000D01*
X14985001Y5250000D02*
X15014999D01*
X15000000Y5235000D02*
Y5265000D01*
X15110001Y5000000D02*
X15139999D01*
X15125000Y4985000D02*
Y5015000D01*
X14985001Y4750000D02*
X15014999D01*
X15000000Y4735000D02*
Y4765000D01*
X15110001Y4500000D02*
X15139999D01*
X15125000Y4485000D02*
Y4515000D01*
X14985001Y4250000D02*
X15014999D01*
X15000000Y4235000D02*
Y4265000D01*
X14860001Y12000000D02*
X14889999D01*
X14875000Y11985000D02*
Y12015000D01*
X14735001Y11750000D02*
X14764999D01*
X14750000Y11735000D02*
Y11765000D01*
X14860001Y11500000D02*
X14889999D01*
X14875000Y11485000D02*
Y11515000D01*
X14735001Y10750000D02*
X14764999D01*
X14750000Y10735000D02*
Y10765000D01*
X14860001Y10500000D02*
X14889999D01*
X14875000Y10485000D02*
Y10515000D01*
X14860001Y10000000D02*
X14889999D01*
X14875000Y9985000D02*
Y10015000D01*
X14735001Y9750000D02*
X14764999D01*
X14750000Y9735000D02*
Y9765000D01*
X14860001Y9500000D02*
X14889999D01*
X14875000Y9485000D02*
Y9515000D01*
X14735001Y9250000D02*
X14764999D01*
X14750000Y9235000D02*
Y9265000D01*
X14860001Y9000000D02*
X14889999D01*
X14875000Y8985000D02*
Y9015000D01*
X14735001Y8750000D02*
X14764999D01*
X14750000Y8735000D02*
Y8765000D01*
X14735001Y8250000D02*
X14764999D01*
X14750000Y8235000D02*
Y8265000D01*
X14860001Y8000000D02*
X14889999D01*
X14875000Y7985000D02*
Y8015000D01*
X14860001Y7500000D02*
X14889999D01*
X14875000Y7485000D02*
Y7515000D01*
X14860001Y7000000D02*
X14889999D01*
X14875000Y6985000D02*
Y7015000D01*
X14735001Y6750000D02*
X14764999D01*
X14750000Y6735000D02*
Y6765000D01*
X14860001Y6500000D02*
X14889999D01*
X14875000Y6485000D02*
Y6515000D01*
X14735001Y6250000D02*
X14764999D01*
X14750000Y6235000D02*
Y6265000D01*
X14860001Y6000000D02*
X14889999D01*
X14875000Y5985000D02*
Y6015000D01*
X14735001Y5750000D02*
X14764999D01*
X14750000Y5735000D02*
Y5765000D01*
X14860001Y5500000D02*
X14889999D01*
X14875000Y5485000D02*
Y5515000D01*
X14735001Y5250000D02*
X14764999D01*
X14750000Y5235000D02*
Y5265000D01*
X14860001Y5000000D02*
X14889999D01*
X14875000Y4985000D02*
Y5015000D01*
X14735001Y4750000D02*
X14764999D01*
X14750000Y4735000D02*
Y4765000D01*
X14860001Y4500000D02*
X14889999D01*
X14875000Y4485000D02*
Y4515000D01*
X14735001Y4250000D02*
X14764999D01*
X14750000Y4235000D02*
Y4265000D01*
X14610001Y12000000D02*
X14639999D01*
X14625000Y11985000D02*
Y12015000D01*
X14485001Y11750000D02*
X14514999D01*
X14500000Y11735000D02*
Y11765000D01*
X14610001Y11500000D02*
X14639999D01*
X14625000Y11485000D02*
Y11515000D01*
X14610001Y11000000D02*
X14639999D01*
X14625000Y10985000D02*
Y11015000D01*
X14485001Y10750000D02*
X14514999D01*
X14500000Y10735000D02*
Y10765000D01*
X14610001Y10500000D02*
X14639999D01*
X14625000Y10485000D02*
Y10515000D01*
X14485001Y10250000D02*
X14514999D01*
X14500000Y10235000D02*
Y10265000D01*
X14485001Y8250000D02*
X14514999D01*
X14500000Y8235000D02*
Y8265000D01*
X14610001Y8000000D02*
X14639999D01*
X14625000Y7985000D02*
Y8015000D01*
X14610001Y7500000D02*
X14639999D01*
X14625000Y7485000D02*
Y7515000D01*
X14610001Y7000000D02*
X14639999D01*
X14625000Y6985000D02*
Y7015000D01*
X14485001Y6750000D02*
X14514999D01*
X14500000Y6735000D02*
Y6765000D01*
X14610001Y6500000D02*
X14639999D01*
X14625000Y6485000D02*
Y6515000D01*
X14485001Y6250000D02*
X14514999D01*
X14500000Y6235000D02*
Y6265000D01*
X14610001Y6000000D02*
X14639999D01*
X14625000Y5985000D02*
Y6015000D01*
X14485001Y5750000D02*
X14514999D01*
X14500000Y5735000D02*
Y5765000D01*
X14610001Y5500000D02*
X14639999D01*
X14625000Y5485000D02*
Y5515000D01*
X14485001Y5250000D02*
X14514999D01*
X14500000Y5235000D02*
Y5265000D01*
X14610001Y5000000D02*
X14639999D01*
X14625000Y4985000D02*
Y5015000D01*
X14485001Y4750000D02*
X14514999D01*
X14500000Y4735000D02*
Y4765000D01*
X14610001Y4500000D02*
X14639999D01*
X14625000Y4485000D02*
Y4515000D01*
X14485001Y4250000D02*
X14514999D01*
X14500000Y4235000D02*
Y4265000D01*
X14360001Y12000000D02*
X14389999D01*
X14375000Y11985000D02*
Y12015000D01*
X14235001Y11750000D02*
X14264999D01*
X14250000Y11735000D02*
Y11765000D01*
X14360001Y11500000D02*
X14389999D01*
X14375000Y11485000D02*
Y11515000D01*
X14360001Y11000000D02*
X14389999D01*
X14375000Y10985000D02*
Y11015000D01*
X14235001Y10750000D02*
X14264999D01*
X14250000Y10735000D02*
Y10765000D01*
X14360001Y10500000D02*
X14389999D01*
X14375000Y10485000D02*
Y10515000D01*
X14235001Y10250000D02*
X14264999D01*
X14250000Y10235000D02*
Y10265000D01*
X14360001Y10000000D02*
X14389999D01*
X14375000Y9985000D02*
Y10015000D01*
X14235001Y9750000D02*
X14264999D01*
X14250000Y9735000D02*
Y9765000D01*
X14360001Y9500000D02*
X14389999D01*
X14375000Y9485000D02*
Y9515000D01*
X14235001Y8750000D02*
X14264999D01*
X14250000Y8735000D02*
Y8765000D01*
X14360001Y8500000D02*
X14389999D01*
X14375000Y8485000D02*
Y8515000D01*
X14235001Y8250000D02*
X14264999D01*
X14250000Y8235000D02*
Y8265000D01*
X14360001Y8000000D02*
X14389999D01*
X14375000Y7985000D02*
Y8015000D01*
X14360001Y7500000D02*
X14389999D01*
X14375000Y7485000D02*
Y7515000D01*
X14360001Y7000000D02*
X14389999D01*
X14375000Y6985000D02*
Y7015000D01*
X14235001Y6750000D02*
X14264999D01*
X14250000Y6735000D02*
Y6765000D01*
X14360001Y6500000D02*
X14389999D01*
X14375000Y6485000D02*
Y6515000D01*
X14235001Y6250000D02*
X14264999D01*
X14250000Y6235000D02*
Y6265000D01*
X14360001Y6000000D02*
X14389999D01*
X14375000Y5985000D02*
Y6015000D01*
X14235001Y5750000D02*
X14264999D01*
X14250000Y5735000D02*
Y5765000D01*
X14360001Y5500000D02*
X14389999D01*
X14375000Y5485000D02*
Y5515000D01*
X14235001Y5250000D02*
X14264999D01*
X14250000Y5235000D02*
Y5265000D01*
X14360001Y5000000D02*
X14389999D01*
X14375000Y4985000D02*
Y5015000D01*
X14235001Y4750000D02*
X14264999D01*
X14250000Y4735000D02*
Y4765000D01*
X14360001Y4500000D02*
X14389999D01*
X14375000Y4485000D02*
Y4515000D01*
X14235001Y4250000D02*
X14264999D01*
X14250000Y4235000D02*
Y4265000D01*
X14110001Y12000000D02*
X14139999D01*
X14125000Y11985000D02*
Y12015000D01*
X13985001Y11750000D02*
X14014999D01*
X14000000Y11735000D02*
Y11765000D01*
X14110001Y11500000D02*
X14139999D01*
X14125000Y11485000D02*
Y11515000D01*
X14110001Y11000000D02*
X14139999D01*
X14125000Y10985000D02*
Y11015000D01*
X13985001Y10750000D02*
X14014999D01*
X14000000Y10735000D02*
Y10765000D01*
X14110001Y10500000D02*
X14139999D01*
X14125000Y10485000D02*
Y10515000D01*
X13985001Y10250000D02*
X14014999D01*
X14000000Y10235000D02*
Y10265000D01*
X14110001Y10000000D02*
X14139999D01*
X14125000Y9985000D02*
Y10015000D01*
X13985001Y9750000D02*
X14014999D01*
X14000000Y9735000D02*
Y9765000D01*
X14110001Y9500000D02*
X14139999D01*
X14125000Y9485000D02*
Y9515000D01*
X13985001Y9250000D02*
X14014999D01*
X14000000Y9235000D02*
Y9265000D01*
X14110001Y9000000D02*
X14139999D01*
X14125000Y8985000D02*
Y9015000D01*
X13985001Y8750000D02*
X14014999D01*
X14000000Y8735000D02*
Y8765000D01*
X14110001Y8500000D02*
X14139999D01*
X14125000Y8485000D02*
Y8515000D01*
X13985001Y8250000D02*
X14014999D01*
X14000000Y8235000D02*
Y8265000D01*
X14110001Y8000000D02*
X14139999D01*
X14125000Y7985000D02*
Y8015000D01*
X14110001Y7500000D02*
X14139999D01*
X14125000Y7485000D02*
Y7515000D01*
X14110001Y7000000D02*
X14139999D01*
X14125000Y6985000D02*
Y7015000D01*
X13985001Y6750000D02*
X14014999D01*
X14000000Y6735000D02*
Y6765000D01*
X14110001Y6500000D02*
X14139999D01*
X14125000Y6485000D02*
Y6515000D01*
X13985001Y6250000D02*
X14014999D01*
X14000000Y6235000D02*
Y6265000D01*
X14110001Y6000000D02*
X14139999D01*
X14125000Y5985000D02*
Y6015000D01*
X14110001Y5500000D02*
X14139999D01*
X14125000Y5485000D02*
Y5515000D01*
X13985001Y5250000D02*
X14014999D01*
X14000000Y5235000D02*
Y5265000D01*
X14110001Y5000000D02*
X14139999D01*
X14125000Y4985000D02*
Y5015000D01*
X13985001Y4750000D02*
X14014999D01*
X14000000Y4735000D02*
Y4765000D01*
X14110001Y4500000D02*
X14139999D01*
X14125000Y4485000D02*
Y4515000D01*
X13985001Y4250000D02*
X14014999D01*
X14000000Y4235000D02*
Y4265000D01*
X13860001Y12000000D02*
X13889999D01*
X13875000Y11985000D02*
Y12015000D01*
X13735001Y11750000D02*
X13764999D01*
X13750000Y11735000D02*
Y11765000D01*
X13860001Y11500000D02*
X13889999D01*
X13875000Y11485000D02*
Y11515000D01*
X13735001Y11250000D02*
X13764999D01*
X13750000Y11235000D02*
Y11265000D01*
X13735001Y10750000D02*
X13764999D01*
X13750000Y10735000D02*
Y10765000D01*
X13735001Y10250000D02*
X13764999D01*
X13750000Y10235000D02*
Y10265000D01*
X13735001Y9750000D02*
X13764999D01*
X13750000Y9735000D02*
Y9765000D01*
X13735001Y9250000D02*
X13764999D01*
X13750000Y9235000D02*
Y9265000D01*
X13735001Y8750000D02*
X13764999D01*
X13750000Y8735000D02*
Y8765000D01*
X13735001Y8250000D02*
X13764999D01*
X13750000Y8235000D02*
Y8265000D01*
X13735001Y7750000D02*
X13764999D01*
X13750000Y7735000D02*
Y7765000D01*
X13735001Y7250000D02*
X13764999D01*
X13750000Y7235000D02*
Y7265000D01*
X13735001Y6750000D02*
X13764999D01*
X13750000Y6735000D02*
Y6765000D01*
X13735001Y6250000D02*
X13764999D01*
X13750000Y6235000D02*
Y6265000D01*
X13735001Y5750000D02*
X13764999D01*
X13750000Y5735000D02*
Y5765000D01*
X13860001Y5500000D02*
X13889999D01*
X13875000Y5485000D02*
Y5515000D01*
X13735001Y5250000D02*
X13764999D01*
X13750000Y5235000D02*
Y5265000D01*
X13860001Y5000000D02*
X13889999D01*
X13875000Y4985000D02*
Y5015000D01*
X13735001Y4750000D02*
X13764999D01*
X13750000Y4735000D02*
Y4765000D01*
X13860001Y4500000D02*
X13889999D01*
X13875000Y4485000D02*
Y4515000D01*
X13735001Y4250000D02*
X13764999D01*
X13750000Y4235000D02*
Y4265000D01*
X17307800Y5270500D02*
X17337801D01*
X17322800Y5255500D02*
Y5285500D01*
X17168100Y11150600D02*
X17198100D01*
X17183099Y11135600D02*
Y11165600D01*
X15524719Y7409180D02*
X15554720D01*
X15539720Y7394180D02*
Y7424180D01*
X16078439Y11549380D02*
X16108440D01*
X16093440Y11534380D02*
Y11564380D01*
%TF.MD5,ebcdc4832b410ca44c0a28c6f655a075*%
M02*
