%TF.GenerationSoftware,Altium Limited,Altium Designer,25.7.1 (20)*%
G04 Layer_Color=255*
%FSLAX45Y45*%
%MOMM*%
%TF.SameCoordinates,6DC23F8A-9C4A-45C2-95F2-439E2FAEE1B8*%
%TF.FilePolarity,Positive*%
%TF.FileFunction,Pads,Top*%
%TF.Part,Single*%
G01*
G75*
%TA.AperFunction,ComponentPad*%
%ADD13R,2.54000X1.65100*%
%ADD14O,2.54000X1.65100*%
%ADD15C,1.50000*%
%ADD16R,1.50000X1.50000*%
%ADD17R,1.50000X1.50000*%
G04:AMPARAMS|DCode=18|XSize=2mm|YSize=1.2mm|CornerRadius=0.36mm|HoleSize=0mm|Usage=FLASHONLY|Rotation=180.000|XOffset=0mm|YOffset=0mm|HoleType=Round|Shape=RoundedRectangle|*
%AMROUNDEDRECTD18*
21,1,2.00000,0.48000,0,0,180.0*
21,1,1.28000,1.20000,0,0,180.0*
1,1,0.72000,-0.64000,0.24000*
1,1,0.72000,0.64000,0.24000*
1,1,0.72000,0.64000,-0.24000*
1,1,0.72000,-0.64000,-0.24000*
%
%ADD18ROUNDEDRECTD18*%
%ADD19C,0.30000*%
%ADD20C,2.40000*%
D13*
X16820341Y4572000D02*
D03*
D14*
Y4305300D02*
D03*
D15*
X15316200Y6375400D02*
D03*
Y6121400D02*
D03*
Y5867400D02*
D03*
X16192500Y5143500D02*
D03*
X16446500D02*
D03*
X15938499D02*
D03*
X15951199Y8089900D02*
D03*
X16205200D02*
D03*
X16459200D02*
D03*
X16713200D02*
D03*
X16967200D02*
D03*
D16*
X15316200Y6629400D02*
D03*
D17*
X15684500Y5143500D02*
D03*
X15697200Y8089900D02*
D03*
D18*
X17627600Y9880798D02*
D03*
Y10540802D02*
D03*
D19*
X16719499Y6495049D02*
D03*
Y6311549D02*
D03*
X16811249Y6586799D02*
D03*
Y6403299D02*
D03*
Y6219800D02*
D03*
X16902998Y6495049D02*
D03*
Y6311549D02*
D03*
X16994749Y6586799D02*
D03*
Y6403299D02*
D03*
Y6219800D02*
D03*
X17086499Y6495049D02*
D03*
Y6311549D02*
D03*
D20*
X14081599Y7179501D02*
D03*
X15331599D02*
D03*
Y7679500D02*
D03*
X14081599D02*
D03*
%TF.MD5,89dfa0a9779c21268c8929b240721c62*%
M02*
