%TF.GenerationSoftware,Altium Limited,Altium Designer,25.7.1 (20)*%
G04 Layer_Color=2752767*
%FSLAX45Y45*%
%MOMM*%
%TF.SameCoordinates,6DC23F8A-9C4A-45C2-95F2-439E2FAEE1B8*%
%TF.FilePolarity,Positive*%
%TF.FileFunction,Drawing*%
%TF.Part,Single*%
G01*
G75*
%TA.AperFunction,NonConductor*%
%ADD47C,0.12700*%
%ADD96C,0.16933*%
D47*
X16820341Y4521200D02*
X16845741Y4546600D01*
X16871143D01*
X16845741Y4572000D01*
X16871143Y4597400D01*
X16845741D01*
X16820341Y4622800D01*
X16794942Y4597400D01*
X16769542D01*
X16794942Y4572000D01*
X16769542Y4546600D01*
X16794942D01*
X16820341Y4521200D01*
Y4254500D02*
X16845741Y4279900D01*
X16871143D01*
X16845741Y4305300D01*
X16871143Y4330700D01*
X16845741D01*
X16820341Y4356100D01*
X16794942Y4330700D01*
X16769542D01*
X16794942Y4305300D01*
X16769542Y4279900D01*
X16794942D01*
X16820341Y4254500D01*
X17627600Y9829998D02*
X17576801Y9931598D01*
X17678400D01*
X17627600Y9829998D01*
Y10490002D02*
X17576801Y10591602D01*
X17678400D01*
X17627600Y10490002D01*
X16668700Y6444249D02*
Y6545849D01*
X16770299D01*
Y6444249D01*
X16668700D01*
Y6260749D02*
Y6362349D01*
X16770299D01*
Y6260749D01*
X16668700D01*
X16760449Y6535999D02*
Y6637599D01*
X16862048D01*
Y6535999D01*
X16760449D01*
Y6352499D02*
Y6454099D01*
X16862048D01*
Y6352499D01*
X16760449D01*
Y6169000D02*
Y6270600D01*
X16862048D01*
Y6169000D01*
X16760449D01*
X16852199Y6444249D02*
Y6545849D01*
X16953799D01*
Y6444249D01*
X16852199D01*
Y6260749D02*
Y6362349D01*
X16953799D01*
Y6260749D01*
X16852199D01*
X16943948Y6535999D02*
Y6637599D01*
X17045549D01*
Y6535999D01*
X16943948D01*
Y6352499D02*
Y6454099D01*
X17045549D01*
Y6352499D01*
X16943948D01*
Y6169000D02*
Y6270600D01*
X17045549D01*
Y6169000D01*
X16943948D01*
X17035699Y6444249D02*
Y6545849D01*
X17137299D01*
Y6444249D01*
X17035699D01*
Y6260749D02*
Y6362349D01*
X17137299D01*
Y6260749D01*
X17035699D01*
X14030800Y7128701D02*
X14056200Y7179501D01*
X14030800Y7230301D01*
X14081599Y7204901D01*
X14132401Y7230301D01*
X14107001Y7179501D01*
X14132401Y7128701D01*
X14081599Y7154101D01*
X14030800Y7128701D01*
X15280800D02*
X15306200Y7179501D01*
X15280800Y7230301D01*
X15331599Y7204901D01*
X15382401Y7230301D01*
X15357001Y7179501D01*
X15382401Y7128701D01*
X15331599Y7154101D01*
X15280800Y7128701D01*
Y7628700D02*
X15306200Y7679500D01*
X15280800Y7730300D01*
X15331599Y7704900D01*
X15382401Y7730300D01*
X15357001Y7679500D01*
X15382401Y7628700D01*
X15331599Y7654100D01*
X15280800Y7628700D01*
X14030800D02*
X14056200Y7679500D01*
X14030800Y7730300D01*
X14081599Y7704900D01*
X14132401Y7730300D01*
X14107001Y7679500D01*
X14132401Y7628700D01*
X14081599Y7654100D01*
X14030800Y7628700D01*
X17258099Y8224600D02*
Y8199200D01*
X17308900D01*
Y8224600D01*
X17334300D01*
Y8275400D01*
X17308900D01*
Y8300800D01*
X17258099D01*
Y8275400D01*
X17232700D01*
Y8224600D01*
X17258099D01*
X17119600Y7569200D02*
Y7543800D01*
X17170399D01*
Y7569200D01*
X17195799D01*
Y7620000D01*
X17170399D01*
Y7645400D01*
X17119600D01*
Y7620000D01*
X17094200D01*
Y7569200D01*
X17119600D01*
X16560800Y9791700D02*
Y9766300D01*
X16611600D01*
Y9791700D01*
X16637000D01*
Y9842500D01*
X16611600D01*
Y9867900D01*
X16560800D01*
Y9842500D01*
X16535400D01*
Y9791700D01*
X16560800D01*
X16974602Y9716700D02*
Y9691300D01*
X17025401D01*
Y9716700D01*
X17050801D01*
Y9767500D01*
X17025401D01*
Y9792900D01*
X16974602D01*
Y9767500D01*
X16949200D01*
Y9716700D01*
X16974602D01*
X17395383Y9520383D02*
Y9494983D01*
X17446182D01*
Y9520383D01*
X17471584D01*
Y9571183D01*
X17446182D01*
Y9596583D01*
X17395383D01*
Y9571183D01*
X17369983D01*
Y9520383D01*
X17395383D01*
X17099602Y9474600D02*
Y9449200D01*
X17150401D01*
Y9474600D01*
X17175801D01*
Y9525400D01*
X17150401D01*
Y9550800D01*
X17099602D01*
Y9525400D01*
X17074200D01*
Y9474600D01*
X17099602D01*
X17235632Y9235633D02*
Y9210233D01*
X17286433D01*
Y9235633D01*
X17311833D01*
Y9286433D01*
X17286433D01*
Y9311833D01*
X17235632D01*
Y9286433D01*
X17210233D01*
Y9235633D01*
X17235632D01*
X17423199Y7974600D02*
Y7949200D01*
X17474001D01*
Y7974600D01*
X17499400D01*
Y8025400D01*
X17474001D01*
Y8050800D01*
X17423199D01*
Y8025400D01*
X17397800D01*
Y7974600D01*
X17423199D01*
Y8431716D02*
Y8406316D01*
X17474001D01*
Y8431716D01*
X17499400D01*
Y8482516D01*
X17474001D01*
Y8507916D01*
X17423199D01*
Y8482516D01*
X17397800D01*
Y8431716D01*
X17423199D01*
Y8974600D02*
Y8949200D01*
X17474001D01*
Y8974600D01*
X17499400D01*
Y9025400D01*
X17474001D01*
Y9050800D01*
X17423199D01*
Y9025400D01*
X17397800D01*
Y8974600D01*
X17423199D01*
X17474602Y7724600D02*
Y7699200D01*
X17525401D01*
Y7724600D01*
X17550801D01*
Y7775400D01*
X17525401D01*
Y7800800D01*
X17474602D01*
Y7775400D01*
X17449200D01*
Y7724600D01*
X17474602D01*
Y8224600D02*
Y8199200D01*
X17525401D01*
Y8224600D01*
X17550801D01*
Y8275400D01*
X17525401D01*
Y8300800D01*
X17474602D01*
Y8275400D01*
X17449200D01*
Y8224600D01*
X17474602D01*
Y8724600D02*
Y8699200D01*
X17525401D01*
Y8724600D01*
X17550801D01*
Y8775400D01*
X17525401D01*
Y8800800D01*
X17474602D01*
Y8775400D01*
X17449200D01*
Y8724600D01*
X17474602D01*
X17224602Y8736400D02*
Y8711000D01*
X17275401D01*
Y8736400D01*
X17300801D01*
Y8787200D01*
X17275401D01*
Y8812600D01*
X17224602D01*
Y8787200D01*
X17199200D01*
Y8736400D01*
X17224602D01*
X17099602Y8974600D02*
Y8949200D01*
X17150401D01*
Y8974600D01*
X17175801D01*
Y9025400D01*
X17150401D01*
Y9050800D01*
X17099602D01*
Y9025400D01*
X17074200D01*
Y8974600D01*
X17099602D01*
X17031870Y8474600D02*
Y8449200D01*
X17082671D01*
Y8474600D01*
X17108070D01*
Y8525400D01*
X17082671D01*
Y8550800D01*
X17031870D01*
Y8525400D01*
X17006470D01*
Y8474600D01*
X17031870D01*
X16974602Y8224600D02*
Y8199200D01*
X17025401D01*
Y8224600D01*
X17050801D01*
Y8275400D01*
X17025401D01*
Y8300800D01*
X16974602D01*
Y8275400D01*
X16949200D01*
Y8224600D01*
X16974602D01*
Y8736400D02*
Y8711000D01*
X17025401D01*
Y8736400D01*
X17050801D01*
Y8787200D01*
X17025401D01*
Y8812600D01*
X16974602D01*
Y8787200D01*
X16949200D01*
Y8736400D01*
X16974602D01*
X16852901Y8661400D02*
Y8636000D01*
X16903700D01*
Y8661400D01*
X16929100D01*
Y8712200D01*
X16903700D01*
Y8737600D01*
X16852901D01*
Y8712200D01*
X16827499D01*
Y8661400D01*
X16852901D01*
X17603123Y7971077D02*
Y7945677D01*
X17653923D01*
Y7971077D01*
X17679323D01*
Y8021877D01*
X17653923D01*
Y8047277D01*
X17603123D01*
Y8021877D01*
X17577724D01*
Y7971077D01*
X17603123D01*
X17599602Y8474600D02*
Y8449200D01*
X17650401D01*
Y8474600D01*
X17675801D01*
Y8525400D01*
X17650401D01*
Y8550800D01*
X17599602D01*
Y8525400D01*
X17574200D01*
Y8474600D01*
X17599602D01*
Y11974600D02*
Y11949200D01*
X17650401D01*
Y11974600D01*
X17675801D01*
Y12025400D01*
X17650401D01*
Y12050800D01*
X17599602D01*
Y12025400D01*
X17574200D01*
Y11974600D01*
X17599602D01*
X17474602Y11724600D02*
Y11699200D01*
X17525401D01*
Y11724600D01*
X17550801D01*
Y11775400D01*
X17525401D01*
Y11800800D01*
X17474602D01*
Y11775400D01*
X17449200D01*
Y11724600D01*
X17474602D01*
X17599602Y11474600D02*
Y11449200D01*
X17650401D01*
Y11474600D01*
X17675801D01*
Y11525400D01*
X17650401D01*
Y11550800D01*
X17599602D01*
Y11525400D01*
X17574200D01*
Y11474600D01*
X17599602D01*
X17474602Y11224600D02*
Y11199200D01*
X17525401D01*
Y11224600D01*
X17550801D01*
Y11275400D01*
X17525401D01*
Y11300800D01*
X17474602D01*
Y11275400D01*
X17449200D01*
Y11224600D01*
X17474602D01*
Y10724600D02*
Y10699200D01*
X17525401D01*
Y10724600D01*
X17550801D01*
Y10775400D01*
X17525401D01*
Y10800800D01*
X17474602D01*
Y10775400D01*
X17449200D01*
Y10724600D01*
X17474602D01*
Y9724600D02*
Y9699200D01*
X17525401D01*
Y9724600D01*
X17550801D01*
Y9775400D01*
X17525401D01*
Y9800800D01*
X17474602D01*
Y9775400D01*
X17449200D01*
Y9724600D01*
X17474602D01*
X17599602Y9474600D02*
Y9449200D01*
X17650401D01*
Y9474600D01*
X17675801D01*
Y9525400D01*
X17650401D01*
Y9550800D01*
X17599602D01*
Y9525400D01*
X17574200D01*
Y9474600D01*
X17599602D01*
X17474602Y9224600D02*
Y9199200D01*
X17525401D01*
Y9224600D01*
X17550801D01*
Y9275400D01*
X17525401D01*
Y9300800D01*
X17474602D01*
Y9275400D01*
X17449200D01*
Y9224600D01*
X17474602D01*
X17599602Y8974600D02*
Y8949200D01*
X17650401D01*
Y8974600D01*
X17675801D01*
Y9025400D01*
X17650401D01*
Y9050800D01*
X17599602D01*
Y9025400D01*
X17574200D01*
Y8974600D01*
X17599602D01*
X17474602Y6724600D02*
Y6699200D01*
X17525401D01*
Y6724600D01*
X17550801D01*
Y6775400D01*
X17525401D01*
Y6800800D01*
X17474602D01*
Y6775400D01*
X17449200D01*
Y6724600D01*
X17474602D01*
Y6224600D02*
Y6199200D01*
X17525401D01*
Y6224600D01*
X17550801D01*
Y6275400D01*
X17525401D01*
Y6300800D01*
X17474602D01*
Y6275400D01*
X17449200D01*
Y6224600D01*
X17474602D01*
Y5224600D02*
Y5199200D01*
X17525401D01*
Y5224600D01*
X17550801D01*
Y5275400D01*
X17525401D01*
Y5300800D01*
X17474602D01*
Y5275400D01*
X17449200D01*
Y5224600D01*
X17474602D01*
Y4224600D02*
Y4199200D01*
X17525401D01*
Y4224600D01*
X17550801D01*
Y4275400D01*
X17525401D01*
Y4300800D01*
X17474602D01*
Y4275400D01*
X17449200D01*
Y4224600D01*
X17474602D01*
X17349602Y11974600D02*
Y11949200D01*
X17400401D01*
Y11974600D01*
X17425801D01*
Y12025400D01*
X17400401D01*
Y12050800D01*
X17349602D01*
Y12025400D01*
X17324200D01*
Y11974600D01*
X17349602D01*
X17224602Y11724600D02*
Y11699200D01*
X17275401D01*
Y11724600D01*
X17300801D01*
Y11775400D01*
X17275401D01*
Y11800800D01*
X17224602D01*
Y11775400D01*
X17199200D01*
Y11724600D01*
X17224602D01*
X17349602Y11474600D02*
Y11449200D01*
X17400401D01*
Y11474600D01*
X17425801D01*
Y11525400D01*
X17400401D01*
Y11550800D01*
X17349602D01*
Y11525400D01*
X17324200D01*
Y11474600D01*
X17349602D01*
Y10974600D02*
Y10949200D01*
X17400401D01*
Y10974600D01*
X17425801D01*
Y11025400D01*
X17400401D01*
Y11050800D01*
X17349602D01*
Y11025400D01*
X17324200D01*
Y10974600D01*
X17349602D01*
X17224602Y9724600D02*
Y9699200D01*
X17275401D01*
Y9724600D01*
X17300801D01*
Y9775400D01*
X17275401D01*
Y9800800D01*
X17224602D01*
Y9775400D01*
X17199200D01*
Y9724600D01*
X17224602D01*
X17349602Y6974600D02*
Y6949200D01*
X17400401D01*
Y6974600D01*
X17425801D01*
Y7025400D01*
X17400401D01*
Y7050800D01*
X17349602D01*
Y7025400D01*
X17324200D01*
Y6974600D01*
X17349602D01*
X17224602Y6724600D02*
Y6699200D01*
X17275401D01*
Y6724600D01*
X17300801D01*
Y6775400D01*
X17275401D01*
Y6800800D01*
X17224602D01*
Y6775400D01*
X17199200D01*
Y6724600D01*
X17224602D01*
X17349602Y6474600D02*
Y6449200D01*
X17400401D01*
Y6474600D01*
X17425801D01*
Y6525400D01*
X17400401D01*
Y6550800D01*
X17349602D01*
Y6525400D01*
X17324200D01*
Y6474600D01*
X17349602D01*
X17224602Y6224600D02*
Y6199200D01*
X17275401D01*
Y6224600D01*
X17300801D01*
Y6275400D01*
X17275401D01*
Y6300800D01*
X17224602D01*
Y6275400D01*
X17199200D01*
Y6224600D01*
X17224602D01*
X17349602Y5974600D02*
Y5949200D01*
X17400401D01*
Y5974600D01*
X17425801D01*
Y6025400D01*
X17400401D01*
Y6050800D01*
X17349602D01*
Y6025400D01*
X17324200D01*
Y5974600D01*
X17349602D01*
X17224602Y4224600D02*
Y4199200D01*
X17275401D01*
Y4224600D01*
X17300801D01*
Y4275400D01*
X17275401D01*
Y4300800D01*
X17224602D01*
Y4275400D01*
X17199200D01*
Y4224600D01*
X17224602D01*
X17099602Y11974600D02*
Y11949200D01*
X17150401D01*
Y11974600D01*
X17175801D01*
Y12025400D01*
X17150401D01*
Y12050800D01*
X17099602D01*
Y12025400D01*
X17074200D01*
Y11974600D01*
X17099602D01*
X16974602Y10724600D02*
Y10699200D01*
X17025401D01*
Y10724600D01*
X17050801D01*
Y10775400D01*
X17025401D01*
Y10800800D01*
X16974602D01*
Y10775400D01*
X16949200D01*
Y10724600D01*
X16974602D01*
X17099602Y9974600D02*
Y9949200D01*
X17150401D01*
Y9974600D01*
X17175801D01*
Y10025400D01*
X17150401D01*
Y10050800D01*
X17099602D01*
Y10025400D01*
X17074200D01*
Y9974600D01*
X17099602D01*
Y6974600D02*
Y6949200D01*
X17150401D01*
Y6974600D01*
X17175801D01*
Y7025400D01*
X17150401D01*
Y7050800D01*
X17099602D01*
Y7025400D01*
X17074200D01*
Y6974600D01*
X17099602D01*
X16974602Y6724600D02*
Y6699200D01*
X17025401D01*
Y6724600D01*
X17050801D01*
Y6775400D01*
X17025401D01*
Y6800800D01*
X16974602D01*
Y6775400D01*
X16949200D01*
Y6724600D01*
X16974602D01*
X17099602Y5974600D02*
Y5949200D01*
X17150401D01*
Y5974600D01*
X17175801D01*
Y6025400D01*
X17150401D01*
Y6050800D01*
X17099602D01*
Y6025400D01*
X17074200D01*
Y5974600D01*
X17099602D01*
X16974602Y5224600D02*
Y5199200D01*
X17025401D01*
Y5224600D01*
X17050801D01*
Y5275400D01*
X17025401D01*
Y5300800D01*
X16974602D01*
Y5275400D01*
X16949200D01*
Y5224600D01*
X16974602D01*
X17099602Y4974600D02*
Y4949200D01*
X17150401D01*
Y4974600D01*
X17175801D01*
Y5025400D01*
X17150401D01*
Y5050800D01*
X17099602D01*
Y5025400D01*
X17074200D01*
Y4974600D01*
X17099602D01*
X16974602Y4724600D02*
Y4699200D01*
X17025401D01*
Y4724600D01*
X17050801D01*
Y4775400D01*
X17025401D01*
Y4800800D01*
X16974602D01*
Y4775400D01*
X16949200D01*
Y4724600D01*
X16974602D01*
X17099602Y4474600D02*
Y4449200D01*
X17150401D01*
Y4474600D01*
X17175801D01*
Y4525400D01*
X17150401D01*
Y4550800D01*
X17099602D01*
Y4525400D01*
X17074200D01*
Y4474600D01*
X17099602D01*
X16974602Y4224600D02*
Y4199200D01*
X17025401D01*
Y4224600D01*
X17050801D01*
Y4275400D01*
X17025401D01*
Y4300800D01*
X16974602D01*
Y4275400D01*
X16949200D01*
Y4224600D01*
X16974602D01*
X16849602Y11974600D02*
Y11949200D01*
X16900401D01*
Y11974600D01*
X16925801D01*
Y12025400D01*
X16900401D01*
Y12050800D01*
X16849602D01*
Y12025400D01*
X16824200D01*
Y11974600D01*
X16849602D01*
X16724602Y11224600D02*
Y11199200D01*
X16775401D01*
Y11224600D01*
X16800801D01*
Y11275400D01*
X16775401D01*
Y11300800D01*
X16724602D01*
Y11275400D01*
X16699200D01*
Y11224600D01*
X16724602D01*
X16849602Y6974600D02*
Y6949200D01*
X16900401D01*
Y6974600D01*
X16925801D01*
Y7025400D01*
X16900401D01*
Y7050800D01*
X16849602D01*
Y7025400D01*
X16824200D01*
Y6974600D01*
X16849602D01*
X16724602Y6724600D02*
Y6699200D01*
X16775401D01*
Y6724600D01*
X16800801D01*
Y6775400D01*
X16775401D01*
Y6800800D01*
X16724602D01*
Y6775400D01*
X16699200D01*
Y6724600D01*
X16724602D01*
X16849602Y5974600D02*
Y5949200D01*
X16900401D01*
Y5974600D01*
X16925801D01*
Y6025400D01*
X16900401D01*
Y6050800D01*
X16849602D01*
Y6025400D01*
X16824200D01*
Y5974600D01*
X16849602D01*
X16599602Y10974600D02*
Y10949200D01*
X16650401D01*
Y10974600D01*
X16675801D01*
Y11025400D01*
X16650401D01*
Y11050800D01*
X16599602D01*
Y11025400D01*
X16574200D01*
Y10974600D01*
X16599602D01*
X16474602Y9724600D02*
Y9699200D01*
X16525401D01*
Y9724600D01*
X16550801D01*
Y9775400D01*
X16525401D01*
Y9800800D01*
X16474602D01*
Y9775400D01*
X16449200D01*
Y9724600D01*
X16474602D01*
Y9224600D02*
Y9199200D01*
X16525401D01*
Y9224600D01*
X16550801D01*
Y9275400D01*
X16525401D01*
Y9300800D01*
X16474602D01*
Y9275400D01*
X16449200D01*
Y9224600D01*
X16474602D01*
Y8724600D02*
Y8699200D01*
X16525401D01*
Y8724600D01*
X16550801D01*
Y8775400D01*
X16525401D01*
Y8800800D01*
X16474602D01*
Y8775400D01*
X16449200D01*
Y8724600D01*
X16474602D01*
Y8224600D02*
Y8199200D01*
X16525401D01*
Y8224600D01*
X16550801D01*
Y8275400D01*
X16525401D01*
Y8300800D01*
X16474602D01*
Y8275400D01*
X16449200D01*
Y8224600D01*
X16474602D01*
X16599602Y6974600D02*
Y6949200D01*
X16650401D01*
Y6974600D01*
X16675801D01*
Y7025400D01*
X16650401D01*
Y7050800D01*
X16599602D01*
Y7025400D01*
X16574200D01*
Y6974600D01*
X16599602D01*
X16474602Y6724600D02*
Y6699200D01*
X16525401D01*
Y6724600D01*
X16550801D01*
Y6775400D01*
X16525401D01*
Y6800800D01*
X16474602D01*
Y6775400D01*
X16449200D01*
Y6724600D01*
X16474602D01*
Y6224600D02*
Y6199200D01*
X16525401D01*
Y6224600D01*
X16550801D01*
Y6275400D01*
X16525401D01*
Y6300800D01*
X16474602D01*
Y6275400D01*
X16449200D01*
Y6224600D01*
X16474602D01*
X16599602Y5974600D02*
Y5949200D01*
X16650401D01*
Y5974600D01*
X16675801D01*
Y6025400D01*
X16650401D01*
Y6050800D01*
X16599602D01*
Y6025400D01*
X16574200D01*
Y5974600D01*
X16599602D01*
Y4974600D02*
Y4949200D01*
X16650401D01*
Y4974600D01*
X16675801D01*
Y5025400D01*
X16650401D01*
Y5050800D01*
X16599602D01*
Y5025400D01*
X16574200D01*
Y4974600D01*
X16599602D01*
X16474602Y4724600D02*
Y4699200D01*
X16525401D01*
Y4724600D01*
X16550801D01*
Y4775400D01*
X16525401D01*
Y4800800D01*
X16474602D01*
Y4775400D01*
X16449200D01*
Y4724600D01*
X16474602D01*
X16599602Y4474600D02*
Y4449200D01*
X16650401D01*
Y4474600D01*
X16675801D01*
Y4525400D01*
X16650401D01*
Y4550800D01*
X16599602D01*
Y4525400D01*
X16574200D01*
Y4474600D01*
X16599602D01*
X16474602Y4224600D02*
Y4199200D01*
X16525401D01*
Y4224600D01*
X16550801D01*
Y4275400D01*
X16525401D01*
Y4300800D01*
X16474602D01*
Y4275400D01*
X16449200D01*
Y4224600D01*
X16474602D01*
X16224602Y10224600D02*
Y10199200D01*
X16275401D01*
Y10224600D01*
X16300801D01*
Y10275400D01*
X16275401D01*
Y10300800D01*
X16224602D01*
Y10275400D01*
X16199200D01*
Y10224600D01*
X16224602D01*
Y9724600D02*
Y9699200D01*
X16275401D01*
Y9724600D01*
X16300801D01*
Y9775400D01*
X16275401D01*
Y9800800D01*
X16224602D01*
Y9775400D01*
X16199200D01*
Y9724600D01*
X16224602D01*
Y9224600D02*
Y9199200D01*
X16275401D01*
Y9224600D01*
X16300801D01*
Y9275400D01*
X16275401D01*
Y9300800D01*
X16224602D01*
Y9275400D01*
X16199200D01*
Y9224600D01*
X16224602D01*
X16349602Y8974600D02*
Y8949200D01*
X16400401D01*
Y8974600D01*
X16425801D01*
Y9025400D01*
X16400401D01*
Y9050800D01*
X16349602D01*
Y9025400D01*
X16324200D01*
Y8974600D01*
X16349602D01*
X16224602Y8724600D02*
Y8699200D01*
X16275401D01*
Y8724600D01*
X16300801D01*
Y8775400D01*
X16275401D01*
Y8800800D01*
X16224602D01*
Y8775400D01*
X16199200D01*
Y8724600D01*
X16224602D01*
X16349602Y8474600D02*
Y8449200D01*
X16400401D01*
Y8474600D01*
X16425801D01*
Y8525400D01*
X16400401D01*
Y8550800D01*
X16349602D01*
Y8525400D01*
X16324200D01*
Y8474600D01*
X16349602D01*
X16224602Y8224600D02*
Y8199200D01*
X16275401D01*
Y8224600D01*
X16300801D01*
Y8275400D01*
X16275401D01*
Y8300800D01*
X16224602D01*
Y8275400D01*
X16199200D01*
Y8224600D01*
X16224602D01*
Y7724600D02*
Y7699200D01*
X16275401D01*
Y7724600D01*
X16300801D01*
Y7775400D01*
X16275401D01*
Y7800800D01*
X16224602D01*
Y7775400D01*
X16199200D01*
Y7724600D01*
X16224602D01*
X16349602Y6974600D02*
Y6949200D01*
X16400401D01*
Y6974600D01*
X16425801D01*
Y7025400D01*
X16400401D01*
Y7050800D01*
X16349602D01*
Y7025400D01*
X16324200D01*
Y6974600D01*
X16349602D01*
X16224602Y6724600D02*
Y6699200D01*
X16275401D01*
Y6724600D01*
X16300801D01*
Y6775400D01*
X16275401D01*
Y6800800D01*
X16224602D01*
Y6775400D01*
X16199200D01*
Y6724600D01*
X16224602D01*
X16349602Y6474600D02*
Y6449200D01*
X16400401D01*
Y6474600D01*
X16425801D01*
Y6525400D01*
X16400401D01*
Y6550800D01*
X16349602D01*
Y6525400D01*
X16324200D01*
Y6474600D01*
X16349602D01*
X16224602Y6224600D02*
Y6199200D01*
X16275401D01*
Y6224600D01*
X16300801D01*
Y6275400D01*
X16275401D01*
Y6300800D01*
X16224602D01*
Y6275400D01*
X16199200D01*
Y6224600D01*
X16224602D01*
X16349602Y5974600D02*
Y5949200D01*
X16400401D01*
Y5974600D01*
X16425801D01*
Y6025400D01*
X16400401D01*
Y6050800D01*
X16349602D01*
Y6025400D01*
X16324200D01*
Y5974600D01*
X16349602D01*
Y4974600D02*
Y4949200D01*
X16400401D01*
Y4974600D01*
X16425801D01*
Y5025400D01*
X16400401D01*
Y5050800D01*
X16349602D01*
Y5025400D01*
X16324200D01*
Y4974600D01*
X16349602D01*
X16224602Y4724600D02*
Y4699200D01*
X16275401D01*
Y4724600D01*
X16300801D01*
Y4775400D01*
X16275401D01*
Y4800800D01*
X16224602D01*
Y4775400D01*
X16199200D01*
Y4724600D01*
X16224602D01*
X16349602Y4474600D02*
Y4449200D01*
X16400401D01*
Y4474600D01*
X16425801D01*
Y4525400D01*
X16400401D01*
Y4550800D01*
X16349602D01*
Y4525400D01*
X16324200D01*
Y4474600D01*
X16349602D01*
X16224602Y4224600D02*
Y4199200D01*
X16275401D01*
Y4224600D01*
X16300801D01*
Y4275400D01*
X16275401D01*
Y4300800D01*
X16224602D01*
Y4275400D01*
X16199200D01*
Y4224600D01*
X16224602D01*
X15974602Y11724600D02*
Y11699200D01*
X16025401D01*
Y11724600D01*
X16050801D01*
Y11775400D01*
X16025401D01*
Y11800800D01*
X15974602D01*
Y11775400D01*
X15949200D01*
Y11724600D01*
X15974602D01*
Y10724600D02*
Y10699200D01*
X16025401D01*
Y10724600D01*
X16050801D01*
Y10775400D01*
X16025401D01*
Y10800800D01*
X15974602D01*
Y10775400D01*
X15949200D01*
Y10724600D01*
X15974602D01*
Y10224600D02*
Y10199200D01*
X16025401D01*
Y10224600D01*
X16050801D01*
Y10275400D01*
X16025401D01*
Y10300800D01*
X15974602D01*
Y10275400D01*
X15949200D01*
Y10224600D01*
X15974602D01*
Y9724600D02*
Y9699200D01*
X16025401D01*
Y9724600D01*
X16050801D01*
Y9775400D01*
X16025401D01*
Y9800800D01*
X15974602D01*
Y9775400D01*
X15949200D01*
Y9724600D01*
X15974602D01*
Y9224600D02*
Y9199200D01*
X16025401D01*
Y9224600D01*
X16050801D01*
Y9275400D01*
X16025401D01*
Y9300800D01*
X15974602D01*
Y9275400D01*
X15949200D01*
Y9224600D01*
X15974602D01*
X16099602Y8974600D02*
Y8949200D01*
X16150401D01*
Y8974600D01*
X16175801D01*
Y9025400D01*
X16150401D01*
Y9050800D01*
X16099602D01*
Y9025400D01*
X16074200D01*
Y8974600D01*
X16099602D01*
X15974602Y8724600D02*
Y8699200D01*
X16025401D01*
Y8724600D01*
X16050801D01*
Y8775400D01*
X16025401D01*
Y8800800D01*
X15974602D01*
Y8775400D01*
X15949200D01*
Y8724600D01*
X15974602D01*
X16099602Y8474600D02*
Y8449200D01*
X16150401D01*
Y8474600D01*
X16175801D01*
Y8525400D01*
X16150401D01*
Y8550800D01*
X16099602D01*
Y8525400D01*
X16074200D01*
Y8474600D01*
X16099602D01*
X15974602Y8224600D02*
Y8199200D01*
X16025401D01*
Y8224600D01*
X16050801D01*
Y8275400D01*
X16025401D01*
Y8300800D01*
X15974602D01*
Y8275400D01*
X15949200D01*
Y8224600D01*
X15974602D01*
X16099602Y6974600D02*
Y6949200D01*
X16150401D01*
Y6974600D01*
X16175801D01*
Y7025400D01*
X16150401D01*
Y7050800D01*
X16099602D01*
Y7025400D01*
X16074200D01*
Y6974600D01*
X16099602D01*
Y6474600D02*
Y6449200D01*
X16150401D01*
Y6474600D01*
X16175801D01*
Y6525400D01*
X16150401D01*
Y6550800D01*
X16099602D01*
Y6525400D01*
X16074200D01*
Y6474600D01*
X16099602D01*
Y5974600D02*
Y5949200D01*
X16150401D01*
Y5974600D01*
X16175801D01*
Y6025400D01*
X16150401D01*
Y6050800D01*
X16099602D01*
Y6025400D01*
X16074200D01*
Y5974600D01*
X16099602D01*
Y4974600D02*
Y4949200D01*
X16150401D01*
Y4974600D01*
X16175801D01*
Y5025400D01*
X16150401D01*
Y5050800D01*
X16099602D01*
Y5025400D01*
X16074200D01*
Y4974600D01*
X16099602D01*
X15974602Y4724600D02*
Y4699200D01*
X16025401D01*
Y4724600D01*
X16050801D01*
Y4775400D01*
X16025401D01*
Y4800800D01*
X15974602D01*
Y4775400D01*
X15949200D01*
Y4724600D01*
X15974602D01*
X16099602Y4474600D02*
Y4449200D01*
X16150401D01*
Y4474600D01*
X16175801D01*
Y4525400D01*
X16150401D01*
Y4550800D01*
X16099602D01*
Y4525400D01*
X16074200D01*
Y4474600D01*
X16099602D01*
X15974602Y4224600D02*
Y4199200D01*
X16025401D01*
Y4224600D01*
X16050801D01*
Y4275400D01*
X16025401D01*
Y4300800D01*
X15974602D01*
Y4275400D01*
X15949200D01*
Y4224600D01*
X15974602D01*
X15724602Y11224600D02*
Y11199200D01*
X15775401D01*
Y11224600D01*
X15800801D01*
Y11275400D01*
X15775401D01*
Y11300800D01*
X15724602D01*
Y11275400D01*
X15699200D01*
Y11224600D01*
X15724602D01*
Y10724600D02*
Y10699200D01*
X15775401D01*
Y10724600D01*
X15800801D01*
Y10775400D01*
X15775401D01*
Y10800800D01*
X15724602D01*
Y10775400D01*
X15699200D01*
Y10724600D01*
X15724602D01*
X15849602Y10474600D02*
Y10449200D01*
X15900401D01*
Y10474600D01*
X15925801D01*
Y10525400D01*
X15900401D01*
Y10550800D01*
X15849602D01*
Y10525400D01*
X15824200D01*
Y10474600D01*
X15849602D01*
X15724602Y10224600D02*
Y10199200D01*
X15775401D01*
Y10224600D01*
X15800801D01*
Y10275400D01*
X15775401D01*
Y10300800D01*
X15724602D01*
Y10275400D01*
X15699200D01*
Y10224600D01*
X15724602D01*
X15849602Y9974600D02*
Y9949200D01*
X15900401D01*
Y9974600D01*
X15925801D01*
Y10025400D01*
X15900401D01*
Y10050800D01*
X15849602D01*
Y10025400D01*
X15824200D01*
Y9974600D01*
X15849602D01*
X15724602Y9724600D02*
Y9699200D01*
X15775401D01*
Y9724600D01*
X15800801D01*
Y9775400D01*
X15775401D01*
Y9800800D01*
X15724602D01*
Y9775400D01*
X15699200D01*
Y9724600D01*
X15724602D01*
X15849602Y8974600D02*
Y8949200D01*
X15900401D01*
Y8974600D01*
X15925801D01*
Y9025400D01*
X15900401D01*
Y9050800D01*
X15849602D01*
Y9025400D01*
X15824200D01*
Y8974600D01*
X15849602D01*
X15724602Y8724600D02*
Y8699200D01*
X15775401D01*
Y8724600D01*
X15800801D01*
Y8775400D01*
X15775401D01*
Y8800800D01*
X15724602D01*
Y8775400D01*
X15699200D01*
Y8724600D01*
X15724602D01*
X15849602Y8474600D02*
Y8449200D01*
X15900401D01*
Y8474600D01*
X15925801D01*
Y8525400D01*
X15900401D01*
Y8550800D01*
X15849602D01*
Y8525400D01*
X15824200D01*
Y8474600D01*
X15849602D01*
X15724602Y8224600D02*
Y8199200D01*
X15775401D01*
Y8224600D01*
X15800801D01*
Y8275400D01*
X15775401D01*
Y8300800D01*
X15724602D01*
Y8275400D01*
X15699200D01*
Y8224600D01*
X15724602D01*
X15849602Y7474600D02*
Y7449200D01*
X15900401D01*
Y7474600D01*
X15925801D01*
Y7525400D01*
X15900401D01*
Y7550800D01*
X15849602D01*
Y7525400D01*
X15824200D01*
Y7474600D01*
X15849602D01*
Y5474600D02*
Y5449200D01*
X15900401D01*
Y5474600D01*
X15925801D01*
Y5525400D01*
X15900401D01*
Y5550800D01*
X15849602D01*
Y5525400D01*
X15824200D01*
Y5474600D01*
X15849602D01*
Y4974600D02*
Y4949200D01*
X15900401D01*
Y4974600D01*
X15925801D01*
Y5025400D01*
X15900401D01*
Y5050800D01*
X15849602D01*
Y5025400D01*
X15824200D01*
Y4974600D01*
X15849602D01*
X15724602Y4724600D02*
Y4699200D01*
X15775401D01*
Y4724600D01*
X15800801D01*
Y4775400D01*
X15775401D01*
Y4800800D01*
X15724602D01*
Y4775400D01*
X15699200D01*
Y4724600D01*
X15724602D01*
X15849602Y4474600D02*
Y4449200D01*
X15900401D01*
Y4474600D01*
X15925801D01*
Y4525400D01*
X15900401D01*
Y4550800D01*
X15849602D01*
Y4525400D01*
X15824200D01*
Y4474600D01*
X15849602D01*
X15724602Y4224600D02*
Y4199200D01*
X15775401D01*
Y4224600D01*
X15800801D01*
Y4275400D01*
X15775401D01*
Y4300800D01*
X15724602D01*
Y4275400D01*
X15699200D01*
Y4224600D01*
X15724602D01*
X15599600Y11974600D02*
Y11949200D01*
X15650401D01*
Y11974600D01*
X15675800D01*
Y12025400D01*
X15650401D01*
Y12050800D01*
X15599600D01*
Y12025400D01*
X15574200D01*
Y11974600D01*
X15599600D01*
X15474600Y11724600D02*
Y11699200D01*
X15525400D01*
Y11724600D01*
X15550800D01*
Y11775400D01*
X15525400D01*
Y11800800D01*
X15474600D01*
Y11775400D01*
X15449200D01*
Y11724600D01*
X15474600D01*
Y10724600D02*
Y10699200D01*
X15525400D01*
Y10724600D01*
X15550800D01*
Y10775400D01*
X15525400D01*
Y10800800D01*
X15474600D01*
Y10775400D01*
X15449200D01*
Y10724600D01*
X15474600D01*
X15599600Y10474600D02*
Y10449200D01*
X15650401D01*
Y10474600D01*
X15675800D01*
Y10525400D01*
X15650401D01*
Y10550800D01*
X15599600D01*
Y10525400D01*
X15574200D01*
Y10474600D01*
X15599600D01*
X15474600Y9724600D02*
Y9699200D01*
X15525400D01*
Y9724600D01*
X15550800D01*
Y9775400D01*
X15525400D01*
Y9800800D01*
X15474600D01*
Y9775400D01*
X15449200D01*
Y9724600D01*
X15474600D01*
Y9224600D02*
Y9199200D01*
X15525400D01*
Y9224600D01*
X15550800D01*
Y9275400D01*
X15525400D01*
Y9300800D01*
X15474600D01*
Y9275400D01*
X15449200D01*
Y9224600D01*
X15474600D01*
X15599600Y8974600D02*
Y8949200D01*
X15650401D01*
Y8974600D01*
X15675800D01*
Y9025400D01*
X15650401D01*
Y9050800D01*
X15599600D01*
Y9025400D01*
X15574200D01*
Y8974600D01*
X15599600D01*
Y8474600D02*
Y8449200D01*
X15650401D01*
Y8474600D01*
X15675800D01*
Y8525400D01*
X15650401D01*
Y8550800D01*
X15599600D01*
Y8525400D01*
X15574200D01*
Y8474600D01*
X15599600D01*
X15474600Y7224600D02*
Y7199200D01*
X15525400D01*
Y7224600D01*
X15550800D01*
Y7275400D01*
X15525400D01*
Y7300800D01*
X15474600D01*
Y7275400D01*
X15449200D01*
Y7224600D01*
X15474600D01*
Y6724600D02*
Y6699200D01*
X15525400D01*
Y6724600D01*
X15550800D01*
Y6775400D01*
X15525400D01*
Y6800800D01*
X15474600D01*
Y6775400D01*
X15449200D01*
Y6724600D01*
X15474600D01*
Y6224600D02*
Y6199200D01*
X15525400D01*
Y6224600D01*
X15550800D01*
Y6275400D01*
X15525400D01*
Y6300800D01*
X15474600D01*
Y6275400D01*
X15449200D01*
Y6224600D01*
X15474600D01*
Y5724600D02*
Y5699200D01*
X15525400D01*
Y5724600D01*
X15550800D01*
Y5775400D01*
X15525400D01*
Y5800800D01*
X15474600D01*
Y5775400D01*
X15449200D01*
Y5724600D01*
X15474600D01*
Y5224600D02*
Y5199200D01*
X15525400D01*
Y5224600D01*
X15550800D01*
Y5275400D01*
X15525400D01*
Y5300800D01*
X15474600D01*
Y5275400D01*
X15449200D01*
Y5224600D01*
X15474600D01*
X15599600Y4974600D02*
Y4949200D01*
X15650401D01*
Y4974600D01*
X15675800D01*
Y5025400D01*
X15650401D01*
Y5050800D01*
X15599600D01*
Y5025400D01*
X15574200D01*
Y4974600D01*
X15599600D01*
X15474600Y4724600D02*
Y4699200D01*
X15525400D01*
Y4724600D01*
X15550800D01*
Y4775400D01*
X15525400D01*
Y4800800D01*
X15474600D01*
Y4775400D01*
X15449200D01*
Y4724600D01*
X15474600D01*
X15599600Y4474600D02*
Y4449200D01*
X15650401D01*
Y4474600D01*
X15675800D01*
Y4525400D01*
X15650401D01*
Y4550800D01*
X15599600D01*
Y4525400D01*
X15574200D01*
Y4474600D01*
X15599600D01*
X15474600Y4224600D02*
Y4199200D01*
X15525400D01*
Y4224600D01*
X15550800D01*
Y4275400D01*
X15525400D01*
Y4300800D01*
X15474600D01*
Y4275400D01*
X15449200D01*
Y4224600D01*
X15474600D01*
X15349600Y11974600D02*
Y11949200D01*
X15400400D01*
Y11974600D01*
X15425800D01*
Y12025400D01*
X15400400D01*
Y12050800D01*
X15349600D01*
Y12025400D01*
X15324200D01*
Y11974600D01*
X15349600D01*
X15224600Y11724600D02*
Y11699200D01*
X15275400D01*
Y11724600D01*
X15300800D01*
Y11775400D01*
X15275400D01*
Y11800800D01*
X15224600D01*
Y11775400D01*
X15199200D01*
Y11724600D01*
X15224600D01*
X15349600Y11474600D02*
Y11449200D01*
X15400400D01*
Y11474600D01*
X15425800D01*
Y11525400D01*
X15400400D01*
Y11550800D01*
X15349600D01*
Y11525400D01*
X15324200D01*
Y11474600D01*
X15349600D01*
Y10974600D02*
Y10949200D01*
X15400400D01*
Y10974600D01*
X15425800D01*
Y11025400D01*
X15400400D01*
Y11050800D01*
X15349600D01*
Y11025400D01*
X15324200D01*
Y10974600D01*
X15349600D01*
X15224600Y10724600D02*
Y10699200D01*
X15275400D01*
Y10724600D01*
X15300800D01*
Y10775400D01*
X15275400D01*
Y10800800D01*
X15224600D01*
Y10775400D01*
X15199200D01*
Y10724600D01*
X15224600D01*
X15349600Y10474600D02*
Y10449200D01*
X15400400D01*
Y10474600D01*
X15425800D01*
Y10525400D01*
X15400400D01*
Y10550800D01*
X15349600D01*
Y10525400D01*
X15324200D01*
Y10474600D01*
X15349600D01*
Y9974600D02*
Y9949200D01*
X15400400D01*
Y9974600D01*
X15425800D01*
Y10025400D01*
X15400400D01*
Y10050800D01*
X15349600D01*
Y10025400D01*
X15324200D01*
Y9974600D01*
X15349600D01*
X15224600Y9724600D02*
Y9699200D01*
X15275400D01*
Y9724600D01*
X15300800D01*
Y9775400D01*
X15275400D01*
Y9800800D01*
X15224600D01*
Y9775400D01*
X15199200D01*
Y9724600D01*
X15224600D01*
Y8224600D02*
Y8199200D01*
X15275400D01*
Y8224600D01*
X15300800D01*
Y8275400D01*
X15275400D01*
Y8300800D01*
X15224600D01*
Y8275400D01*
X15199200D01*
Y8224600D01*
X15224600D01*
X15349600Y7974600D02*
Y7949200D01*
X15400400D01*
Y7974600D01*
X15425800D01*
Y8025400D01*
X15400400D01*
Y8050800D01*
X15349600D01*
Y8025400D01*
X15324200D01*
Y7974600D01*
X15349600D01*
Y7474600D02*
Y7449200D01*
X15400400D01*
Y7474600D01*
X15425800D01*
Y7525400D01*
X15400400D01*
Y7550800D01*
X15349600D01*
Y7525400D01*
X15324200D01*
Y7474600D01*
X15349600D01*
Y6974600D02*
Y6949200D01*
X15400400D01*
Y6974600D01*
X15425800D01*
Y7025400D01*
X15400400D01*
Y7050800D01*
X15349600D01*
Y7025400D01*
X15324200D01*
Y6974600D01*
X15349600D01*
X15224600Y6224600D02*
Y6199200D01*
X15275400D01*
Y6224600D01*
X15300800D01*
Y6275400D01*
X15275400D01*
Y6300800D01*
X15224600D01*
Y6275400D01*
X15199200D01*
Y6224600D01*
X15224600D01*
Y5724600D02*
Y5699200D01*
X15275400D01*
Y5724600D01*
X15300800D01*
Y5775400D01*
X15275400D01*
Y5800800D01*
X15224600D01*
Y5775400D01*
X15199200D01*
Y5724600D01*
X15224600D01*
X15349600Y5474600D02*
Y5449200D01*
X15400400D01*
Y5474600D01*
X15425800D01*
Y5525400D01*
X15400400D01*
Y5550800D01*
X15349600D01*
Y5525400D01*
X15324200D01*
Y5474600D01*
X15349600D01*
X15224600Y5224600D02*
Y5199200D01*
X15275400D01*
Y5224600D01*
X15300800D01*
Y5275400D01*
X15275400D01*
Y5300800D01*
X15224600D01*
Y5275400D01*
X15199200D01*
Y5224600D01*
X15224600D01*
X15349600Y4974600D02*
Y4949200D01*
X15400400D01*
Y4974600D01*
X15425800D01*
Y5025400D01*
X15400400D01*
Y5050800D01*
X15349600D01*
Y5025400D01*
X15324200D01*
Y4974600D01*
X15349600D01*
X15224600Y4724600D02*
Y4699200D01*
X15275400D01*
Y4724600D01*
X15300800D01*
Y4775400D01*
X15275400D01*
Y4800800D01*
X15224600D01*
Y4775400D01*
X15199200D01*
Y4724600D01*
X15224600D01*
X15349600Y4474600D02*
Y4449200D01*
X15400400D01*
Y4474600D01*
X15425800D01*
Y4525400D01*
X15400400D01*
Y4550800D01*
X15349600D01*
Y4525400D01*
X15324200D01*
Y4474600D01*
X15349600D01*
X15224600Y4224600D02*
Y4199200D01*
X15275400D01*
Y4224600D01*
X15300800D01*
Y4275400D01*
X15275400D01*
Y4300800D01*
X15224600D01*
Y4275400D01*
X15199200D01*
Y4224600D01*
X15224600D01*
X15099600Y11974600D02*
Y11949200D01*
X15150400D01*
Y11974600D01*
X15175800D01*
Y12025400D01*
X15150400D01*
Y12050800D01*
X15099600D01*
Y12025400D01*
X15074200D01*
Y11974600D01*
X15099600D01*
X14974600Y11724600D02*
Y11699200D01*
X15025400D01*
Y11724600D01*
X15050800D01*
Y11775400D01*
X15025400D01*
Y11800800D01*
X14974600D01*
Y11775400D01*
X14949200D01*
Y11724600D01*
X14974600D01*
X15099600Y11474600D02*
Y11449200D01*
X15150400D01*
Y11474600D01*
X15175800D01*
Y11525400D01*
X15150400D01*
Y11550800D01*
X15099600D01*
Y11525400D01*
X15074200D01*
Y11474600D01*
X15099600D01*
Y10974600D02*
Y10949200D01*
X15150400D01*
Y10974600D01*
X15175800D01*
Y11025400D01*
X15150400D01*
Y11050800D01*
X15099600D01*
Y11025400D01*
X15074200D01*
Y10974600D01*
X15099600D01*
X14974600Y10724600D02*
Y10699200D01*
X15025400D01*
Y10724600D01*
X15050800D01*
Y10775400D01*
X15025400D01*
Y10800800D01*
X14974600D01*
Y10775400D01*
X14949200D01*
Y10724600D01*
X14974600D01*
X15099600Y10474600D02*
Y10449200D01*
X15150400D01*
Y10474600D01*
X15175800D01*
Y10525400D01*
X15150400D01*
Y10550800D01*
X15099600D01*
Y10525400D01*
X15074200D01*
Y10474600D01*
X15099600D01*
X14974600Y9724600D02*
Y9699200D01*
X15025400D01*
Y9724600D01*
X15050800D01*
Y9775400D01*
X15025400D01*
Y9800800D01*
X14974600D01*
Y9775400D01*
X14949200D01*
Y9724600D01*
X14974600D01*
X15099600Y7974600D02*
Y7949200D01*
X15150400D01*
Y7974600D01*
X15175800D01*
Y8025400D01*
X15150400D01*
Y8050800D01*
X15099600D01*
Y8025400D01*
X15074200D01*
Y7974600D01*
X15099600D01*
Y7474600D02*
Y7449200D01*
X15150400D01*
Y7474600D01*
X15175800D01*
Y7525400D01*
X15150400D01*
Y7550800D01*
X15099600D01*
Y7525400D01*
X15074200D01*
Y7474600D01*
X15099600D01*
Y6974600D02*
Y6949200D01*
X15150400D01*
Y6974600D01*
X15175800D01*
Y7025400D01*
X15150400D01*
Y7050800D01*
X15099600D01*
Y7025400D01*
X15074200D01*
Y6974600D01*
X15099600D01*
X14974600Y6724600D02*
Y6699200D01*
X15025400D01*
Y6724600D01*
X15050800D01*
Y6775400D01*
X15025400D01*
Y6800800D01*
X14974600D01*
Y6775400D01*
X14949200D01*
Y6724600D01*
X14974600D01*
X15099600Y6474600D02*
Y6449200D01*
X15150400D01*
Y6474600D01*
X15175800D01*
Y6525400D01*
X15150400D01*
Y6550800D01*
X15099600D01*
Y6525400D01*
X15074200D01*
Y6474600D01*
X15099600D01*
X14974600Y6224600D02*
Y6199200D01*
X15025400D01*
Y6224600D01*
X15050800D01*
Y6275400D01*
X15025400D01*
Y6300800D01*
X14974600D01*
Y6275400D01*
X14949200D01*
Y6224600D01*
X14974600D01*
X15099600Y5974600D02*
Y5949200D01*
X15150400D01*
Y5974600D01*
X15175800D01*
Y6025400D01*
X15150400D01*
Y6050800D01*
X15099600D01*
Y6025400D01*
X15074200D01*
Y5974600D01*
X15099600D01*
X14974600Y5724600D02*
Y5699200D01*
X15025400D01*
Y5724600D01*
X15050800D01*
Y5775400D01*
X15025400D01*
Y5800800D01*
X14974600D01*
Y5775400D01*
X14949200D01*
Y5724600D01*
X14974600D01*
X15099600Y5474600D02*
Y5449200D01*
X15150400D01*
Y5474600D01*
X15175800D01*
Y5525400D01*
X15150400D01*
Y5550800D01*
X15099600D01*
Y5525400D01*
X15074200D01*
Y5474600D01*
X15099600D01*
X14974600Y5224600D02*
Y5199200D01*
X15025400D01*
Y5224600D01*
X15050800D01*
Y5275400D01*
X15025400D01*
Y5300800D01*
X14974600D01*
Y5275400D01*
X14949200D01*
Y5224600D01*
X14974600D01*
X15099600Y4974600D02*
Y4949200D01*
X15150400D01*
Y4974600D01*
X15175800D01*
Y5025400D01*
X15150400D01*
Y5050800D01*
X15099600D01*
Y5025400D01*
X15074200D01*
Y4974600D01*
X15099600D01*
X14974600Y4724600D02*
Y4699200D01*
X15025400D01*
Y4724600D01*
X15050800D01*
Y4775400D01*
X15025400D01*
Y4800800D01*
X14974600D01*
Y4775400D01*
X14949200D01*
Y4724600D01*
X14974600D01*
X15099600Y4474600D02*
Y4449200D01*
X15150400D01*
Y4474600D01*
X15175800D01*
Y4525400D01*
X15150400D01*
Y4550800D01*
X15099600D01*
Y4525400D01*
X15074200D01*
Y4474600D01*
X15099600D01*
X14974600Y4224600D02*
Y4199200D01*
X15025400D01*
Y4224600D01*
X15050800D01*
Y4275400D01*
X15025400D01*
Y4300800D01*
X14974600D01*
Y4275400D01*
X14949200D01*
Y4224600D01*
X14974600D01*
X14849600Y11974600D02*
Y11949200D01*
X14900400D01*
Y11974600D01*
X14925800D01*
Y12025400D01*
X14900400D01*
Y12050800D01*
X14849600D01*
Y12025400D01*
X14824200D01*
Y11974600D01*
X14849600D01*
X14724600Y11724600D02*
Y11699200D01*
X14775400D01*
Y11724600D01*
X14800800D01*
Y11775400D01*
X14775400D01*
Y11800800D01*
X14724600D01*
Y11775400D01*
X14699200D01*
Y11724600D01*
X14724600D01*
X14849600Y11474600D02*
Y11449200D01*
X14900400D01*
Y11474600D01*
X14925800D01*
Y11525400D01*
X14900400D01*
Y11550800D01*
X14849600D01*
Y11525400D01*
X14824200D01*
Y11474600D01*
X14849600D01*
X14724600Y10724600D02*
Y10699200D01*
X14775400D01*
Y10724600D01*
X14800800D01*
Y10775400D01*
X14775400D01*
Y10800800D01*
X14724600D01*
Y10775400D01*
X14699200D01*
Y10724600D01*
X14724600D01*
X14849600Y10474600D02*
Y10449200D01*
X14900400D01*
Y10474600D01*
X14925800D01*
Y10525400D01*
X14900400D01*
Y10550800D01*
X14849600D01*
Y10525400D01*
X14824200D01*
Y10474600D01*
X14849600D01*
Y9974600D02*
Y9949200D01*
X14900400D01*
Y9974600D01*
X14925800D01*
Y10025400D01*
X14900400D01*
Y10050800D01*
X14849600D01*
Y10025400D01*
X14824200D01*
Y9974600D01*
X14849600D01*
X14724600Y9724600D02*
Y9699200D01*
X14775400D01*
Y9724600D01*
X14800800D01*
Y9775400D01*
X14775400D01*
Y9800800D01*
X14724600D01*
Y9775400D01*
X14699200D01*
Y9724600D01*
X14724600D01*
X14849600Y9474600D02*
Y9449200D01*
X14900400D01*
Y9474600D01*
X14925800D01*
Y9525400D01*
X14900400D01*
Y9550800D01*
X14849600D01*
Y9525400D01*
X14824200D01*
Y9474600D01*
X14849600D01*
X14724600Y9224600D02*
Y9199200D01*
X14775400D01*
Y9224600D01*
X14800800D01*
Y9275400D01*
X14775400D01*
Y9300800D01*
X14724600D01*
Y9275400D01*
X14699200D01*
Y9224600D01*
X14724600D01*
X14849600Y8974600D02*
Y8949200D01*
X14900400D01*
Y8974600D01*
X14925800D01*
Y9025400D01*
X14900400D01*
Y9050800D01*
X14849600D01*
Y9025400D01*
X14824200D01*
Y8974600D01*
X14849600D01*
X14724600Y8724600D02*
Y8699200D01*
X14775400D01*
Y8724600D01*
X14800800D01*
Y8775400D01*
X14775400D01*
Y8800800D01*
X14724600D01*
Y8775400D01*
X14699200D01*
Y8724600D01*
X14724600D01*
Y8224600D02*
Y8199200D01*
X14775400D01*
Y8224600D01*
X14800800D01*
Y8275400D01*
X14775400D01*
Y8300800D01*
X14724600D01*
Y8275400D01*
X14699200D01*
Y8224600D01*
X14724600D01*
X14849600Y7974600D02*
Y7949200D01*
X14900400D01*
Y7974600D01*
X14925800D01*
Y8025400D01*
X14900400D01*
Y8050800D01*
X14849600D01*
Y8025400D01*
X14824200D01*
Y7974600D01*
X14849600D01*
Y7474600D02*
Y7449200D01*
X14900400D01*
Y7474600D01*
X14925800D01*
Y7525400D01*
X14900400D01*
Y7550800D01*
X14849600D01*
Y7525400D01*
X14824200D01*
Y7474600D01*
X14849600D01*
Y6974600D02*
Y6949200D01*
X14900400D01*
Y6974600D01*
X14925800D01*
Y7025400D01*
X14900400D01*
Y7050800D01*
X14849600D01*
Y7025400D01*
X14824200D01*
Y6974600D01*
X14849600D01*
X14724600Y6724600D02*
Y6699200D01*
X14775400D01*
Y6724600D01*
X14800800D01*
Y6775400D01*
X14775400D01*
Y6800800D01*
X14724600D01*
Y6775400D01*
X14699200D01*
Y6724600D01*
X14724600D01*
X14849600Y6474600D02*
Y6449200D01*
X14900400D01*
Y6474600D01*
X14925800D01*
Y6525400D01*
X14900400D01*
Y6550800D01*
X14849600D01*
Y6525400D01*
X14824200D01*
Y6474600D01*
X14849600D01*
X14724600Y6224600D02*
Y6199200D01*
X14775400D01*
Y6224600D01*
X14800800D01*
Y6275400D01*
X14775400D01*
Y6300800D01*
X14724600D01*
Y6275400D01*
X14699200D01*
Y6224600D01*
X14724600D01*
X14849600Y5974600D02*
Y5949200D01*
X14900400D01*
Y5974600D01*
X14925800D01*
Y6025400D01*
X14900400D01*
Y6050800D01*
X14849600D01*
Y6025400D01*
X14824200D01*
Y5974600D01*
X14849600D01*
X14724600Y5724600D02*
Y5699200D01*
X14775400D01*
Y5724600D01*
X14800800D01*
Y5775400D01*
X14775400D01*
Y5800800D01*
X14724600D01*
Y5775400D01*
X14699200D01*
Y5724600D01*
X14724600D01*
X14849600Y5474600D02*
Y5449200D01*
X14900400D01*
Y5474600D01*
X14925800D01*
Y5525400D01*
X14900400D01*
Y5550800D01*
X14849600D01*
Y5525400D01*
X14824200D01*
Y5474600D01*
X14849600D01*
X14724600Y5224600D02*
Y5199200D01*
X14775400D01*
Y5224600D01*
X14800800D01*
Y5275400D01*
X14775400D01*
Y5300800D01*
X14724600D01*
Y5275400D01*
X14699200D01*
Y5224600D01*
X14724600D01*
X14849600Y4974600D02*
Y4949200D01*
X14900400D01*
Y4974600D01*
X14925800D01*
Y5025400D01*
X14900400D01*
Y5050800D01*
X14849600D01*
Y5025400D01*
X14824200D01*
Y4974600D01*
X14849600D01*
X14724600Y4724600D02*
Y4699200D01*
X14775400D01*
Y4724600D01*
X14800800D01*
Y4775400D01*
X14775400D01*
Y4800800D01*
X14724600D01*
Y4775400D01*
X14699200D01*
Y4724600D01*
X14724600D01*
X14849600Y4474600D02*
Y4449200D01*
X14900400D01*
Y4474600D01*
X14925800D01*
Y4525400D01*
X14900400D01*
Y4550800D01*
X14849600D01*
Y4525400D01*
X14824200D01*
Y4474600D01*
X14849600D01*
X14724600Y4224600D02*
Y4199200D01*
X14775400D01*
Y4224600D01*
X14800800D01*
Y4275400D01*
X14775400D01*
Y4300800D01*
X14724600D01*
Y4275400D01*
X14699200D01*
Y4224600D01*
X14724600D01*
X14599600Y11974600D02*
Y11949200D01*
X14650400D01*
Y11974600D01*
X14675800D01*
Y12025400D01*
X14650400D01*
Y12050800D01*
X14599600D01*
Y12025400D01*
X14574200D01*
Y11974600D01*
X14599600D01*
X14474600Y11724600D02*
Y11699200D01*
X14525400D01*
Y11724600D01*
X14550800D01*
Y11775400D01*
X14525400D01*
Y11800800D01*
X14474600D01*
Y11775400D01*
X14449200D01*
Y11724600D01*
X14474600D01*
X14599600Y11474600D02*
Y11449200D01*
X14650400D01*
Y11474600D01*
X14675800D01*
Y11525400D01*
X14650400D01*
Y11550800D01*
X14599600D01*
Y11525400D01*
X14574200D01*
Y11474600D01*
X14599600D01*
Y10974600D02*
Y10949200D01*
X14650400D01*
Y10974600D01*
X14675800D01*
Y11025400D01*
X14650400D01*
Y11050800D01*
X14599600D01*
Y11025400D01*
X14574200D01*
Y10974600D01*
X14599600D01*
X14474600Y10724600D02*
Y10699200D01*
X14525400D01*
Y10724600D01*
X14550800D01*
Y10775400D01*
X14525400D01*
Y10800800D01*
X14474600D01*
Y10775400D01*
X14449200D01*
Y10724600D01*
X14474600D01*
X14599600Y10474600D02*
Y10449200D01*
X14650400D01*
Y10474600D01*
X14675800D01*
Y10525400D01*
X14650400D01*
Y10550800D01*
X14599600D01*
Y10525400D01*
X14574200D01*
Y10474600D01*
X14599600D01*
X14474600Y10224600D02*
Y10199200D01*
X14525400D01*
Y10224600D01*
X14550800D01*
Y10275400D01*
X14525400D01*
Y10300800D01*
X14474600D01*
Y10275400D01*
X14449200D01*
Y10224600D01*
X14474600D01*
Y8224600D02*
Y8199200D01*
X14525400D01*
Y8224600D01*
X14550800D01*
Y8275400D01*
X14525400D01*
Y8300800D01*
X14474600D01*
Y8275400D01*
X14449200D01*
Y8224600D01*
X14474600D01*
X14599600Y7974600D02*
Y7949200D01*
X14650400D01*
Y7974600D01*
X14675800D01*
Y8025400D01*
X14650400D01*
Y8050800D01*
X14599600D01*
Y8025400D01*
X14574200D01*
Y7974600D01*
X14599600D01*
Y7474600D02*
Y7449200D01*
X14650400D01*
Y7474600D01*
X14675800D01*
Y7525400D01*
X14650400D01*
Y7550800D01*
X14599600D01*
Y7525400D01*
X14574200D01*
Y7474600D01*
X14599600D01*
Y6974600D02*
Y6949200D01*
X14650400D01*
Y6974600D01*
X14675800D01*
Y7025400D01*
X14650400D01*
Y7050800D01*
X14599600D01*
Y7025400D01*
X14574200D01*
Y6974600D01*
X14599600D01*
X14474600Y6724600D02*
Y6699200D01*
X14525400D01*
Y6724600D01*
X14550800D01*
Y6775400D01*
X14525400D01*
Y6800800D01*
X14474600D01*
Y6775400D01*
X14449200D01*
Y6724600D01*
X14474600D01*
X14599600Y6474600D02*
Y6449200D01*
X14650400D01*
Y6474600D01*
X14675800D01*
Y6525400D01*
X14650400D01*
Y6550800D01*
X14599600D01*
Y6525400D01*
X14574200D01*
Y6474600D01*
X14599600D01*
X14474600Y6224600D02*
Y6199200D01*
X14525400D01*
Y6224600D01*
X14550800D01*
Y6275400D01*
X14525400D01*
Y6300800D01*
X14474600D01*
Y6275400D01*
X14449200D01*
Y6224600D01*
X14474600D01*
X14599600Y5974600D02*
Y5949200D01*
X14650400D01*
Y5974600D01*
X14675800D01*
Y6025400D01*
X14650400D01*
Y6050800D01*
X14599600D01*
Y6025400D01*
X14574200D01*
Y5974600D01*
X14599600D01*
X14474600Y5724600D02*
Y5699200D01*
X14525400D01*
Y5724600D01*
X14550800D01*
Y5775400D01*
X14525400D01*
Y5800800D01*
X14474600D01*
Y5775400D01*
X14449200D01*
Y5724600D01*
X14474600D01*
X14599600Y5474600D02*
Y5449200D01*
X14650400D01*
Y5474600D01*
X14675800D01*
Y5525400D01*
X14650400D01*
Y5550800D01*
X14599600D01*
Y5525400D01*
X14574200D01*
Y5474600D01*
X14599600D01*
X14474600Y5224600D02*
Y5199200D01*
X14525400D01*
Y5224600D01*
X14550800D01*
Y5275400D01*
X14525400D01*
Y5300800D01*
X14474600D01*
Y5275400D01*
X14449200D01*
Y5224600D01*
X14474600D01*
X14599600Y4974600D02*
Y4949200D01*
X14650400D01*
Y4974600D01*
X14675800D01*
Y5025400D01*
X14650400D01*
Y5050800D01*
X14599600D01*
Y5025400D01*
X14574200D01*
Y4974600D01*
X14599600D01*
X14474600Y4724600D02*
Y4699200D01*
X14525400D01*
Y4724600D01*
X14550800D01*
Y4775400D01*
X14525400D01*
Y4800800D01*
X14474600D01*
Y4775400D01*
X14449200D01*
Y4724600D01*
X14474600D01*
X14599600Y4474600D02*
Y4449200D01*
X14650400D01*
Y4474600D01*
X14675800D01*
Y4525400D01*
X14650400D01*
Y4550800D01*
X14599600D01*
Y4525400D01*
X14574200D01*
Y4474600D01*
X14599600D01*
X14474600Y4224600D02*
Y4199200D01*
X14525400D01*
Y4224600D01*
X14550800D01*
Y4275400D01*
X14525400D01*
Y4300800D01*
X14474600D01*
Y4275400D01*
X14449200D01*
Y4224600D01*
X14474600D01*
X14349600Y11974600D02*
Y11949200D01*
X14400400D01*
Y11974600D01*
X14425800D01*
Y12025400D01*
X14400400D01*
Y12050800D01*
X14349600D01*
Y12025400D01*
X14324200D01*
Y11974600D01*
X14349600D01*
X14224600Y11724600D02*
Y11699200D01*
X14275400D01*
Y11724600D01*
X14300800D01*
Y11775400D01*
X14275400D01*
Y11800800D01*
X14224600D01*
Y11775400D01*
X14199200D01*
Y11724600D01*
X14224600D01*
X14349600Y11474600D02*
Y11449200D01*
X14400400D01*
Y11474600D01*
X14425800D01*
Y11525400D01*
X14400400D01*
Y11550800D01*
X14349600D01*
Y11525400D01*
X14324200D01*
Y11474600D01*
X14349600D01*
Y10974600D02*
Y10949200D01*
X14400400D01*
Y10974600D01*
X14425800D01*
Y11025400D01*
X14400400D01*
Y11050800D01*
X14349600D01*
Y11025400D01*
X14324200D01*
Y10974600D01*
X14349600D01*
X14224600Y10724600D02*
Y10699200D01*
X14275400D01*
Y10724600D01*
X14300800D01*
Y10775400D01*
X14275400D01*
Y10800800D01*
X14224600D01*
Y10775400D01*
X14199200D01*
Y10724600D01*
X14224600D01*
X14349600Y10474600D02*
Y10449200D01*
X14400400D01*
Y10474600D01*
X14425800D01*
Y10525400D01*
X14400400D01*
Y10550800D01*
X14349600D01*
Y10525400D01*
X14324200D01*
Y10474600D01*
X14349600D01*
X14224600Y10224600D02*
Y10199200D01*
X14275400D01*
Y10224600D01*
X14300800D01*
Y10275400D01*
X14275400D01*
Y10300800D01*
X14224600D01*
Y10275400D01*
X14199200D01*
Y10224600D01*
X14224600D01*
X14349600Y9974600D02*
Y9949200D01*
X14400400D01*
Y9974600D01*
X14425800D01*
Y10025400D01*
X14400400D01*
Y10050800D01*
X14349600D01*
Y10025400D01*
X14324200D01*
Y9974600D01*
X14349600D01*
X14224600Y9724600D02*
Y9699200D01*
X14275400D01*
Y9724600D01*
X14300800D01*
Y9775400D01*
X14275400D01*
Y9800800D01*
X14224600D01*
Y9775400D01*
X14199200D01*
Y9724600D01*
X14224600D01*
X14349600Y9474600D02*
Y9449200D01*
X14400400D01*
Y9474600D01*
X14425800D01*
Y9525400D01*
X14400400D01*
Y9550800D01*
X14349600D01*
Y9525400D01*
X14324200D01*
Y9474600D01*
X14349600D01*
X14224600Y8724600D02*
Y8699200D01*
X14275400D01*
Y8724600D01*
X14300800D01*
Y8775400D01*
X14275400D01*
Y8800800D01*
X14224600D01*
Y8775400D01*
X14199200D01*
Y8724600D01*
X14224600D01*
X14349600Y8474600D02*
Y8449200D01*
X14400400D01*
Y8474600D01*
X14425800D01*
Y8525400D01*
X14400400D01*
Y8550800D01*
X14349600D01*
Y8525400D01*
X14324200D01*
Y8474600D01*
X14349600D01*
X14224600Y8224600D02*
Y8199200D01*
X14275400D01*
Y8224600D01*
X14300800D01*
Y8275400D01*
X14275400D01*
Y8300800D01*
X14224600D01*
Y8275400D01*
X14199200D01*
Y8224600D01*
X14224600D01*
X14349600Y7974600D02*
Y7949200D01*
X14400400D01*
Y7974600D01*
X14425800D01*
Y8025400D01*
X14400400D01*
Y8050800D01*
X14349600D01*
Y8025400D01*
X14324200D01*
Y7974600D01*
X14349600D01*
Y7474600D02*
Y7449200D01*
X14400400D01*
Y7474600D01*
X14425800D01*
Y7525400D01*
X14400400D01*
Y7550800D01*
X14349600D01*
Y7525400D01*
X14324200D01*
Y7474600D01*
X14349600D01*
Y6974600D02*
Y6949200D01*
X14400400D01*
Y6974600D01*
X14425800D01*
Y7025400D01*
X14400400D01*
Y7050800D01*
X14349600D01*
Y7025400D01*
X14324200D01*
Y6974600D01*
X14349600D01*
X14224600Y6724600D02*
Y6699200D01*
X14275400D01*
Y6724600D01*
X14300800D01*
Y6775400D01*
X14275400D01*
Y6800800D01*
X14224600D01*
Y6775400D01*
X14199200D01*
Y6724600D01*
X14224600D01*
X14349600Y6474600D02*
Y6449200D01*
X14400400D01*
Y6474600D01*
X14425800D01*
Y6525400D01*
X14400400D01*
Y6550800D01*
X14349600D01*
Y6525400D01*
X14324200D01*
Y6474600D01*
X14349600D01*
X14224600Y6224600D02*
Y6199200D01*
X14275400D01*
Y6224600D01*
X14300800D01*
Y6275400D01*
X14275400D01*
Y6300800D01*
X14224600D01*
Y6275400D01*
X14199200D01*
Y6224600D01*
X14224600D01*
X14349600Y5974600D02*
Y5949200D01*
X14400400D01*
Y5974600D01*
X14425800D01*
Y6025400D01*
X14400400D01*
Y6050800D01*
X14349600D01*
Y6025400D01*
X14324200D01*
Y5974600D01*
X14349600D01*
X14224600Y5724600D02*
Y5699200D01*
X14275400D01*
Y5724600D01*
X14300800D01*
Y5775400D01*
X14275400D01*
Y5800800D01*
X14224600D01*
Y5775400D01*
X14199200D01*
Y5724600D01*
X14224600D01*
X14349600Y5474600D02*
Y5449200D01*
X14400400D01*
Y5474600D01*
X14425800D01*
Y5525400D01*
X14400400D01*
Y5550800D01*
X14349600D01*
Y5525400D01*
X14324200D01*
Y5474600D01*
X14349600D01*
X14224600Y5224600D02*
Y5199200D01*
X14275400D01*
Y5224600D01*
X14300800D01*
Y5275400D01*
X14275400D01*
Y5300800D01*
X14224600D01*
Y5275400D01*
X14199200D01*
Y5224600D01*
X14224600D01*
X14349600Y4974600D02*
Y4949200D01*
X14400400D01*
Y4974600D01*
X14425800D01*
Y5025400D01*
X14400400D01*
Y5050800D01*
X14349600D01*
Y5025400D01*
X14324200D01*
Y4974600D01*
X14349600D01*
X14224600Y4724600D02*
Y4699200D01*
X14275400D01*
Y4724600D01*
X14300800D01*
Y4775400D01*
X14275400D01*
Y4800800D01*
X14224600D01*
Y4775400D01*
X14199200D01*
Y4724600D01*
X14224600D01*
X14349600Y4474600D02*
Y4449200D01*
X14400400D01*
Y4474600D01*
X14425800D01*
Y4525400D01*
X14400400D01*
Y4550800D01*
X14349600D01*
Y4525400D01*
X14324200D01*
Y4474600D01*
X14349600D01*
X14224600Y4224600D02*
Y4199200D01*
X14275400D01*
Y4224600D01*
X14300800D01*
Y4275400D01*
X14275400D01*
Y4300800D01*
X14224600D01*
Y4275400D01*
X14199200D01*
Y4224600D01*
X14224600D01*
X14099600Y11974600D02*
Y11949200D01*
X14150400D01*
Y11974600D01*
X14175800D01*
Y12025400D01*
X14150400D01*
Y12050800D01*
X14099600D01*
Y12025400D01*
X14074200D01*
Y11974600D01*
X14099600D01*
X13974600Y11724600D02*
Y11699200D01*
X14025400D01*
Y11724600D01*
X14050800D01*
Y11775400D01*
X14025400D01*
Y11800800D01*
X13974600D01*
Y11775400D01*
X13949200D01*
Y11724600D01*
X13974600D01*
X14099600Y11474600D02*
Y11449200D01*
X14150400D01*
Y11474600D01*
X14175800D01*
Y11525400D01*
X14150400D01*
Y11550800D01*
X14099600D01*
Y11525400D01*
X14074200D01*
Y11474600D01*
X14099600D01*
Y10974600D02*
Y10949200D01*
X14150400D01*
Y10974600D01*
X14175800D01*
Y11025400D01*
X14150400D01*
Y11050800D01*
X14099600D01*
Y11025400D01*
X14074200D01*
Y10974600D01*
X14099600D01*
X13974600Y10724600D02*
Y10699200D01*
X14025400D01*
Y10724600D01*
X14050800D01*
Y10775400D01*
X14025400D01*
Y10800800D01*
X13974600D01*
Y10775400D01*
X13949200D01*
Y10724600D01*
X13974600D01*
X14099600Y10474600D02*
Y10449200D01*
X14150400D01*
Y10474600D01*
X14175800D01*
Y10525400D01*
X14150400D01*
Y10550800D01*
X14099600D01*
Y10525400D01*
X14074200D01*
Y10474600D01*
X14099600D01*
X13974600Y10224600D02*
Y10199200D01*
X14025400D01*
Y10224600D01*
X14050800D01*
Y10275400D01*
X14025400D01*
Y10300800D01*
X13974600D01*
Y10275400D01*
X13949200D01*
Y10224600D01*
X13974600D01*
X14099600Y9974600D02*
Y9949200D01*
X14150400D01*
Y9974600D01*
X14175800D01*
Y10025400D01*
X14150400D01*
Y10050800D01*
X14099600D01*
Y10025400D01*
X14074200D01*
Y9974600D01*
X14099600D01*
X13974600Y9724600D02*
Y9699200D01*
X14025400D01*
Y9724600D01*
X14050800D01*
Y9775400D01*
X14025400D01*
Y9800800D01*
X13974600D01*
Y9775400D01*
X13949200D01*
Y9724600D01*
X13974600D01*
X14099600Y9474600D02*
Y9449200D01*
X14150400D01*
Y9474600D01*
X14175800D01*
Y9525400D01*
X14150400D01*
Y9550800D01*
X14099600D01*
Y9525400D01*
X14074200D01*
Y9474600D01*
X14099600D01*
X13974600Y9224600D02*
Y9199200D01*
X14025400D01*
Y9224600D01*
X14050800D01*
Y9275400D01*
X14025400D01*
Y9300800D01*
X13974600D01*
Y9275400D01*
X13949200D01*
Y9224600D01*
X13974600D01*
X14099600Y8974600D02*
Y8949200D01*
X14150400D01*
Y8974600D01*
X14175800D01*
Y9025400D01*
X14150400D01*
Y9050800D01*
X14099600D01*
Y9025400D01*
X14074200D01*
Y8974600D01*
X14099600D01*
X13974600Y8724600D02*
Y8699200D01*
X14025400D01*
Y8724600D01*
X14050800D01*
Y8775400D01*
X14025400D01*
Y8800800D01*
X13974600D01*
Y8775400D01*
X13949200D01*
Y8724600D01*
X13974600D01*
X14099600Y8474600D02*
Y8449200D01*
X14150400D01*
Y8474600D01*
X14175800D01*
Y8525400D01*
X14150400D01*
Y8550800D01*
X14099600D01*
Y8525400D01*
X14074200D01*
Y8474600D01*
X14099600D01*
X13974600Y8224600D02*
Y8199200D01*
X14025400D01*
Y8224600D01*
X14050800D01*
Y8275400D01*
X14025400D01*
Y8300800D01*
X13974600D01*
Y8275400D01*
X13949200D01*
Y8224600D01*
X13974600D01*
X14099600Y7974600D02*
Y7949200D01*
X14150400D01*
Y7974600D01*
X14175800D01*
Y8025400D01*
X14150400D01*
Y8050800D01*
X14099600D01*
Y8025400D01*
X14074200D01*
Y7974600D01*
X14099600D01*
Y7474600D02*
Y7449200D01*
X14150400D01*
Y7474600D01*
X14175800D01*
Y7525400D01*
X14150400D01*
Y7550800D01*
X14099600D01*
Y7525400D01*
X14074200D01*
Y7474600D01*
X14099600D01*
Y6974600D02*
Y6949200D01*
X14150400D01*
Y6974600D01*
X14175800D01*
Y7025400D01*
X14150400D01*
Y7050800D01*
X14099600D01*
Y7025400D01*
X14074200D01*
Y6974600D01*
X14099600D01*
X13974600Y6724600D02*
Y6699200D01*
X14025400D01*
Y6724600D01*
X14050800D01*
Y6775400D01*
X14025400D01*
Y6800800D01*
X13974600D01*
Y6775400D01*
X13949200D01*
Y6724600D01*
X13974600D01*
X14099600Y6474600D02*
Y6449200D01*
X14150400D01*
Y6474600D01*
X14175800D01*
Y6525400D01*
X14150400D01*
Y6550800D01*
X14099600D01*
Y6525400D01*
X14074200D01*
Y6474600D01*
X14099600D01*
X13974600Y6224600D02*
Y6199200D01*
X14025400D01*
Y6224600D01*
X14050800D01*
Y6275400D01*
X14025400D01*
Y6300800D01*
X13974600D01*
Y6275400D01*
X13949200D01*
Y6224600D01*
X13974600D01*
X14099600Y5974600D02*
Y5949200D01*
X14150400D01*
Y5974600D01*
X14175800D01*
Y6025400D01*
X14150400D01*
Y6050800D01*
X14099600D01*
Y6025400D01*
X14074200D01*
Y5974600D01*
X14099600D01*
Y5474600D02*
Y5449200D01*
X14150400D01*
Y5474600D01*
X14175800D01*
Y5525400D01*
X14150400D01*
Y5550800D01*
X14099600D01*
Y5525400D01*
X14074200D01*
Y5474600D01*
X14099600D01*
X13974600Y5224600D02*
Y5199200D01*
X14025400D01*
Y5224600D01*
X14050800D01*
Y5275400D01*
X14025400D01*
Y5300800D01*
X13974600D01*
Y5275400D01*
X13949200D01*
Y5224600D01*
X13974600D01*
X14099600Y4974600D02*
Y4949200D01*
X14150400D01*
Y4974600D01*
X14175800D01*
Y5025400D01*
X14150400D01*
Y5050800D01*
X14099600D01*
Y5025400D01*
X14074200D01*
Y4974600D01*
X14099600D01*
X13974600Y4724600D02*
Y4699200D01*
X14025400D01*
Y4724600D01*
X14050800D01*
Y4775400D01*
X14025400D01*
Y4800800D01*
X13974600D01*
Y4775400D01*
X13949200D01*
Y4724600D01*
X13974600D01*
X14099600Y4474600D02*
Y4449200D01*
X14150400D01*
Y4474600D01*
X14175800D01*
Y4525400D01*
X14150400D01*
Y4550800D01*
X14099600D01*
Y4525400D01*
X14074200D01*
Y4474600D01*
X14099600D01*
X13974600Y4224600D02*
Y4199200D01*
X14025400D01*
Y4224600D01*
X14050800D01*
Y4275400D01*
X14025400D01*
Y4300800D01*
X13974600D01*
Y4275400D01*
X13949200D01*
Y4224600D01*
X13974600D01*
X13849600Y11974600D02*
Y11949200D01*
X13900400D01*
Y11974600D01*
X13925800D01*
Y12025400D01*
X13900400D01*
Y12050800D01*
X13849600D01*
Y12025400D01*
X13824200D01*
Y11974600D01*
X13849600D01*
X13724600Y11724600D02*
Y11699200D01*
X13775400D01*
Y11724600D01*
X13800800D01*
Y11775400D01*
X13775400D01*
Y11800800D01*
X13724600D01*
Y11775400D01*
X13699200D01*
Y11724600D01*
X13724600D01*
X13849600Y11474600D02*
Y11449200D01*
X13900400D01*
Y11474600D01*
X13925800D01*
Y11525400D01*
X13900400D01*
Y11550800D01*
X13849600D01*
Y11525400D01*
X13824200D01*
Y11474600D01*
X13849600D01*
X13724600Y11224600D02*
Y11199200D01*
X13775400D01*
Y11224600D01*
X13800800D01*
Y11275400D01*
X13775400D01*
Y11300800D01*
X13724600D01*
Y11275400D01*
X13699200D01*
Y11224600D01*
X13724600D01*
Y10724600D02*
Y10699200D01*
X13775400D01*
Y10724600D01*
X13800800D01*
Y10775400D01*
X13775400D01*
Y10800800D01*
X13724600D01*
Y10775400D01*
X13699200D01*
Y10724600D01*
X13724600D01*
Y10224600D02*
Y10199200D01*
X13775400D01*
Y10224600D01*
X13800800D01*
Y10275400D01*
X13775400D01*
Y10300800D01*
X13724600D01*
Y10275400D01*
X13699200D01*
Y10224600D01*
X13724600D01*
Y9724600D02*
Y9699200D01*
X13775400D01*
Y9724600D01*
X13800800D01*
Y9775400D01*
X13775400D01*
Y9800800D01*
X13724600D01*
Y9775400D01*
X13699200D01*
Y9724600D01*
X13724600D01*
Y9224600D02*
Y9199200D01*
X13775400D01*
Y9224600D01*
X13800800D01*
Y9275400D01*
X13775400D01*
Y9300800D01*
X13724600D01*
Y9275400D01*
X13699200D01*
Y9224600D01*
X13724600D01*
Y8724600D02*
Y8699200D01*
X13775400D01*
Y8724600D01*
X13800800D01*
Y8775400D01*
X13775400D01*
Y8800800D01*
X13724600D01*
Y8775400D01*
X13699200D01*
Y8724600D01*
X13724600D01*
Y8224600D02*
Y8199200D01*
X13775400D01*
Y8224600D01*
X13800800D01*
Y8275400D01*
X13775400D01*
Y8300800D01*
X13724600D01*
Y8275400D01*
X13699200D01*
Y8224600D01*
X13724600D01*
Y7724600D02*
Y7699200D01*
X13775400D01*
Y7724600D01*
X13800800D01*
Y7775400D01*
X13775400D01*
Y7800800D01*
X13724600D01*
Y7775400D01*
X13699200D01*
Y7724600D01*
X13724600D01*
Y7224600D02*
Y7199200D01*
X13775400D01*
Y7224600D01*
X13800800D01*
Y7275400D01*
X13775400D01*
Y7300800D01*
X13724600D01*
Y7275400D01*
X13699200D01*
Y7224600D01*
X13724600D01*
Y6724600D02*
Y6699200D01*
X13775400D01*
Y6724600D01*
X13800800D01*
Y6775400D01*
X13775400D01*
Y6800800D01*
X13724600D01*
Y6775400D01*
X13699200D01*
Y6724600D01*
X13724600D01*
Y6224600D02*
Y6199200D01*
X13775400D01*
Y6224600D01*
X13800800D01*
Y6275400D01*
X13775400D01*
Y6300800D01*
X13724600D01*
Y6275400D01*
X13699200D01*
Y6224600D01*
X13724600D01*
Y5724600D02*
Y5699200D01*
X13775400D01*
Y5724600D01*
X13800800D01*
Y5775400D01*
X13775400D01*
Y5800800D01*
X13724600D01*
Y5775400D01*
X13699200D01*
Y5724600D01*
X13724600D01*
X13849600Y5474600D02*
Y5449200D01*
X13900400D01*
Y5474600D01*
X13925800D01*
Y5525400D01*
X13900400D01*
Y5550800D01*
X13849600D01*
Y5525400D01*
X13824200D01*
Y5474600D01*
X13849600D01*
X13724600Y5224600D02*
Y5199200D01*
X13775400D01*
Y5224600D01*
X13800800D01*
Y5275400D01*
X13775400D01*
Y5300800D01*
X13724600D01*
Y5275400D01*
X13699200D01*
Y5224600D01*
X13724600D01*
X13849600Y4974600D02*
Y4949200D01*
X13900400D01*
Y4974600D01*
X13925800D01*
Y5025400D01*
X13900400D01*
Y5050800D01*
X13849600D01*
Y5025400D01*
X13824200D01*
Y4974600D01*
X13849600D01*
X13724600Y4724600D02*
Y4699200D01*
X13775400D01*
Y4724600D01*
X13800800D01*
Y4775400D01*
X13775400D01*
Y4800800D01*
X13724600D01*
Y4775400D01*
X13699200D01*
Y4724600D01*
X13724600D01*
X13849600Y4474600D02*
Y4449200D01*
X13900400D01*
Y4474600D01*
X13925800D01*
Y4525400D01*
X13900400D01*
Y4550800D01*
X13849600D01*
Y4525400D01*
X13824200D01*
Y4474600D01*
X13849600D01*
X13724600Y4224600D02*
Y4199200D01*
X13775400D01*
Y4224600D01*
X13800800D01*
Y4275400D01*
X13775400D01*
Y4300800D01*
X13724600D01*
Y4275400D01*
X13699200D01*
Y4224600D01*
X13724600D01*
X17297400Y5245100D02*
Y5219700D01*
X17348199D01*
Y5245100D01*
X17373599D01*
Y5295900D01*
X17348199D01*
Y5321300D01*
X17297400D01*
Y5295900D01*
X17272000D01*
Y5245100D01*
X17297400D01*
X17157700Y11125200D02*
Y11099800D01*
X17208501D01*
Y11125200D01*
X17233900D01*
Y11176000D01*
X17208501D01*
Y11201400D01*
X17157700D01*
Y11176000D01*
X17132300D01*
Y11125200D01*
X17157700D01*
X15514320Y7383780D02*
Y7358380D01*
X15565120D01*
Y7383780D01*
X15590520D01*
Y7434580D01*
X15565120D01*
Y7459980D01*
X15514320D01*
Y7434580D01*
X15488921D01*
Y7383780D01*
X15514320D01*
X16068040Y11523980D02*
Y11498580D01*
X16118840D01*
Y11523980D01*
X16144240D01*
Y11574780D01*
X16118840D01*
Y11600180D01*
X16068040D01*
Y11574780D01*
X16042641D01*
Y11523980D01*
X16068040D01*
D96*
X15367000Y6375400D02*
G03*
X15367000Y6375400I-50800J0D01*
G01*
Y6121400D02*
G03*
X15367000Y6121400I-50800J0D01*
G01*
Y6629400D02*
G03*
X15367000Y6629400I-50800J0D01*
G01*
Y5867400D02*
G03*
X15367000Y5867400I-50800J0D01*
G01*
X16243300Y5143500D02*
G03*
X16243300Y5143500I-50800J0D01*
G01*
X16497301D02*
G03*
X16497301Y5143500I-50800J0D01*
G01*
X15735300D02*
G03*
X15735300Y5143500I-50800J0D01*
G01*
X15989301D02*
G03*
X15989301Y5143500I-50800J0D01*
G01*
X16002000Y8089900D02*
G03*
X16002000Y8089900I-50800J0D01*
G01*
X15748000D02*
G03*
X15748000Y8089900I-50800J0D01*
G01*
X16256000D02*
G03*
X16256000Y8089900I-50800J0D01*
G01*
X16510001D02*
G03*
X16510001Y8089900I-50800J0D01*
G01*
X16764000D02*
G03*
X16764000Y8089900I-50800J0D01*
G01*
X17017999D02*
G03*
X17017999Y8089900I-50800J0D01*
G01*
%TF.MD5,d2259b2a087a4db5e33270c0ffb33cfa*%
M02*
